M48
; DRILL file {KiCad (5.1.4)-1} date 12/21/2020 11:36:32 AM
; FORMAT={2:4/ absolute / inch / suppress trailing zeros}
; #@! TF.CreationDate,2020-12-21T11:36:32-05:00
; #@! TF.GenerationSoftware,Kicad,Pcbnew,(5.1.4)-1
; #@! TF.FileFunction,Plated,1,2,PTH
FMAT,2
INCH,LZ
T1C0.0315
T2C0.0394
T3C0.0512
%
G90
G05
T1
X052Y-04
X052984Y-04
X062Y-042
X066Y-042
X062Y-041
X066Y-041
X054016Y-04
X055Y-04
X05Y-04
X05Y-044
X063Y-043016
X063Y-044
X052Y-041
X052Y-042
X052Y-043
X052Y-044
X055Y-041
X055Y-042
X055Y-043
X055Y-044
X051Y-041
X051Y-044
X0565Y-04
X0605Y-04
T2
X066Y-045
X067Y-045
X05Y-045
X051Y-045
X067Y-038
X067Y-039
X057Y-045
X058Y-045
X059Y-045
X06Y-045
X057Y-044
X058Y-044
X059Y-044
X06Y-044
X05Y-038
X05Y-039
T3
X051594Y-038
X052579Y-038984
X053563Y-034063
X054547Y-038
X055531Y-034063
X056516Y-038984
X0575Y-038
X0595Y-038
X060484Y-038984
X061469Y-034063
X062453Y-038
X063437Y-034063
X064421Y-038984
X065406Y-038
T0
M30
