G04 #@! TF.GenerationSoftware,KiCad,Pcbnew,(5.1.5)-3*
G04 #@! TF.CreationDate,2020-09-08T17:50:37-04:00*
G04 #@! TF.ProjectId,breadboard_midi,62726561-6462-46f6-9172-645f6d696469,rev?*
G04 #@! TF.SameCoordinates,Original*
G04 #@! TF.FileFunction,Legend,Bot*
G04 #@! TF.FilePolarity,Positive*
%FSLAX46Y46*%
G04 Gerber Fmt 4.6, Leading zero omitted, Abs format (unit mm)*
G04 Created by KiCad (PCBNEW (5.1.5)-3) date 2020-09-08 17:50:37*
%MOMM*%
%LPD*%
G04 APERTURE LIST*
%ADD10C,0.120000*%
G04 APERTURE END LIST*
D10*
X125670000Y-112970000D02*
X125670000Y-114300000D01*
X127000000Y-112970000D02*
X125670000Y-112970000D01*
X128270000Y-112970000D02*
X128270000Y-115630000D01*
X128270000Y-115630000D02*
X130870000Y-115630000D01*
X128270000Y-112970000D02*
X130870000Y-112970000D01*
X130870000Y-112970000D02*
X130870000Y-115630000D01*
X128330000Y-100390000D02*
X125670000Y-100390000D01*
X128330000Y-97790000D02*
X128330000Y-100390000D01*
X125670000Y-97790000D02*
X125670000Y-100390000D01*
X128330000Y-97790000D02*
X125670000Y-97790000D01*
X128330000Y-96520000D02*
X128330000Y-95190000D01*
X128330000Y-95190000D02*
X127000000Y-95190000D01*
X166310000Y-115630000D02*
X166310000Y-112970000D01*
X168910000Y-115630000D02*
X166310000Y-115630000D01*
X168910000Y-112970000D02*
X166310000Y-112970000D01*
X168910000Y-115630000D02*
X168910000Y-112970000D01*
X170180000Y-115630000D02*
X171510000Y-115630000D01*
X171510000Y-115630000D02*
X171510000Y-114300000D01*
X171510000Y-95190000D02*
X170180000Y-95190000D01*
X171510000Y-96520000D02*
X171510000Y-95190000D01*
X171510000Y-97790000D02*
X168850000Y-97790000D01*
X168850000Y-97790000D02*
X168850000Y-100390000D01*
X171510000Y-97790000D02*
X171510000Y-100390000D01*
X171510000Y-100390000D02*
X168850000Y-100390000D01*
X143450000Y-112970000D02*
X143450000Y-114300000D01*
X144780000Y-112970000D02*
X143450000Y-112970000D01*
X146050000Y-112970000D02*
X146050000Y-115630000D01*
X146050000Y-115630000D02*
X153730000Y-115630000D01*
X146050000Y-112970000D02*
X153730000Y-112970000D01*
X153730000Y-112970000D02*
X153730000Y-115630000D01*
M02*
