G04 #@! TF.GenerationSoftware,KiCad,Pcbnew,(5.0.0)*
G04 #@! TF.CreationDate,2020-09-09T22:39:45-04:00*
G04 #@! TF.ProjectId,breadboard_midi,6272656164626F6172645F6D6964692E,rev?*
G04 #@! TF.SameCoordinates,Original*
G04 #@! TF.FileFunction,Legend,Top*
G04 #@! TF.FilePolarity,Positive*
%FSLAX46Y46*%
G04 Gerber Fmt 4.6, Leading zero omitted, Abs format (unit mm)*
G04 Created by KiCad (PCBNEW (5.0.0)) date 09/09/20 22:39:45*
%MOMM*%
%LPD*%
G01*
G04 APERTURE LIST*
%ADD10C,0.150000*%
%ADD11C,0.300000*%
%ADD12C,0.120000*%
%ADD13C,0.127000*%
%ADD14C,0.200000*%
G04 APERTURE END LIST*
D10*
X143970952Y-88352380D02*
X143970952Y-89066666D01*
X143923333Y-89209523D01*
X143828095Y-89304761D01*
X143685238Y-89352380D01*
X143590000Y-89352380D01*
X144923333Y-89352380D02*
X144447142Y-89352380D01*
X144447142Y-88352380D01*
X145828095Y-89257142D02*
X145780476Y-89304761D01*
X145637619Y-89352380D01*
X145542380Y-89352380D01*
X145399523Y-89304761D01*
X145304285Y-89209523D01*
X145256666Y-89114285D01*
X145209047Y-88923809D01*
X145209047Y-88780952D01*
X145256666Y-88590476D01*
X145304285Y-88495238D01*
X145399523Y-88400000D01*
X145542380Y-88352380D01*
X145637619Y-88352380D01*
X145780476Y-88400000D01*
X145828095Y-88447619D01*
X146542380Y-88352380D02*
X146542380Y-89066666D01*
X146494761Y-89209523D01*
X146399523Y-89304761D01*
X146256666Y-89352380D01*
X146161428Y-89352380D01*
X147494761Y-89352380D02*
X147018571Y-89352380D01*
X147018571Y-88352380D01*
X148399523Y-89257142D02*
X148351904Y-89304761D01*
X148209047Y-89352380D01*
X148113809Y-89352380D01*
X147970952Y-89304761D01*
X147875714Y-89209523D01*
X147828095Y-89114285D01*
X147780476Y-88923809D01*
X147780476Y-88780952D01*
X147828095Y-88590476D01*
X147875714Y-88495238D01*
X147970952Y-88400000D01*
X148113809Y-88352380D01*
X148209047Y-88352380D01*
X148351904Y-88400000D01*
X148399523Y-88447619D01*
X149113809Y-88352380D02*
X149113809Y-89066666D01*
X149066190Y-89209523D01*
X148970952Y-89304761D01*
X148828095Y-89352380D01*
X148732857Y-89352380D01*
X150066190Y-89352380D02*
X149590000Y-89352380D01*
X149590000Y-88352380D01*
X150970952Y-89257142D02*
X150923333Y-89304761D01*
X150780476Y-89352380D01*
X150685238Y-89352380D01*
X150542380Y-89304761D01*
X150447142Y-89209523D01*
X150399523Y-89114285D01*
X150351904Y-88923809D01*
X150351904Y-88780952D01*
X150399523Y-88590476D01*
X150447142Y-88495238D01*
X150542380Y-88400000D01*
X150685238Y-88352380D01*
X150780476Y-88352380D01*
X150923333Y-88400000D01*
X150970952Y-88447619D01*
X151685238Y-88352380D02*
X151685238Y-89066666D01*
X151637619Y-89209523D01*
X151542380Y-89304761D01*
X151399523Y-89352380D01*
X151304285Y-89352380D01*
X152637619Y-89352380D02*
X152161428Y-89352380D01*
X152161428Y-88352380D01*
X153542380Y-89257142D02*
X153494761Y-89304761D01*
X153351904Y-89352380D01*
X153256666Y-89352380D01*
X153113809Y-89304761D01*
X153018571Y-89209523D01*
X152970952Y-89114285D01*
X152923333Y-88923809D01*
X152923333Y-88780952D01*
X152970952Y-88590476D01*
X153018571Y-88495238D01*
X153113809Y-88400000D01*
X153256666Y-88352380D01*
X153351904Y-88352380D01*
X153494761Y-88400000D01*
X153542380Y-88447619D01*
X155408571Y-114752380D02*
X155075238Y-114276190D01*
X154837142Y-114752380D02*
X154837142Y-113752380D01*
X155218095Y-113752380D01*
X155313333Y-113800000D01*
X155360952Y-113847619D01*
X155408571Y-113942857D01*
X155408571Y-114085714D01*
X155360952Y-114180952D01*
X155313333Y-114228571D01*
X155218095Y-114276190D01*
X154837142Y-114276190D01*
X156218095Y-114704761D02*
X156122857Y-114752380D01*
X155932380Y-114752380D01*
X155837142Y-114704761D01*
X155789523Y-114609523D01*
X155789523Y-114228571D01*
X155837142Y-114133333D01*
X155932380Y-114085714D01*
X156122857Y-114085714D01*
X156218095Y-114133333D01*
X156265714Y-114228571D01*
X156265714Y-114323809D01*
X155789523Y-114419047D01*
X156599047Y-114085714D02*
X156837142Y-114752380D01*
X157075238Y-114085714D01*
X158408571Y-113752380D02*
X158503809Y-113752380D01*
X158599047Y-113800000D01*
X158646666Y-113847619D01*
X158694285Y-113942857D01*
X158741904Y-114133333D01*
X158741904Y-114371428D01*
X158694285Y-114561904D01*
X158646666Y-114657142D01*
X158599047Y-114704761D01*
X158503809Y-114752380D01*
X158408571Y-114752380D01*
X158313333Y-114704761D01*
X158265714Y-114657142D01*
X158218095Y-114561904D01*
X158170476Y-114371428D01*
X158170476Y-114133333D01*
X158218095Y-113942857D01*
X158265714Y-113847619D01*
X158313333Y-113800000D01*
X158408571Y-113752380D01*
X159170476Y-114657142D02*
X159218095Y-114704761D01*
X159170476Y-114752380D01*
X159122857Y-114704761D01*
X159170476Y-114657142D01*
X159170476Y-114752380D01*
X160170476Y-114752380D02*
X159599047Y-114752380D01*
X159884761Y-114752380D02*
X159884761Y-113752380D01*
X159789523Y-113895238D01*
X159694285Y-113990476D01*
X159599047Y-114038095D01*
X144018571Y-104037380D02*
X144637619Y-104037380D01*
X144304285Y-104418333D01*
X144447142Y-104418333D01*
X144542380Y-104465952D01*
X144590000Y-104513571D01*
X144637619Y-104608809D01*
X144637619Y-104846904D01*
X144590000Y-104942142D01*
X144542380Y-104989761D01*
X144447142Y-105037380D01*
X144161428Y-105037380D01*
X144066190Y-104989761D01*
X144018571Y-104942142D01*
X145590000Y-105037380D02*
X145018571Y-105037380D01*
X145304285Y-105037380D02*
X145304285Y-104037380D01*
X145209047Y-104180238D01*
X145113809Y-104275476D01*
X145018571Y-104323095D01*
X145970952Y-104132619D02*
X146018571Y-104085000D01*
X146113809Y-104037380D01*
X146351904Y-104037380D01*
X146447142Y-104085000D01*
X146494761Y-104132619D01*
X146542380Y-104227857D01*
X146542380Y-104323095D01*
X146494761Y-104465952D01*
X145923333Y-105037380D01*
X146542380Y-105037380D01*
X147447142Y-104037380D02*
X146970952Y-104037380D01*
X146923333Y-104513571D01*
X146970952Y-104465952D01*
X147066190Y-104418333D01*
X147304285Y-104418333D01*
X147399523Y-104465952D01*
X147447142Y-104513571D01*
X147494761Y-104608809D01*
X147494761Y-104846904D01*
X147447142Y-104942142D01*
X147399523Y-104989761D01*
X147304285Y-105037380D01*
X147066190Y-105037380D01*
X146970952Y-104989761D01*
X146923333Y-104942142D01*
X148113809Y-104037380D02*
X148209047Y-104037380D01*
X148304285Y-104085000D01*
X148351904Y-104132619D01*
X148399523Y-104227857D01*
X148447142Y-104418333D01*
X148447142Y-104656428D01*
X148399523Y-104846904D01*
X148351904Y-104942142D01*
X148304285Y-104989761D01*
X148209047Y-105037380D01*
X148113809Y-105037380D01*
X148018571Y-104989761D01*
X147970952Y-104942142D01*
X147923333Y-104846904D01*
X147875714Y-104656428D01*
X147875714Y-104418333D01*
X147923333Y-104227857D01*
X147970952Y-104132619D01*
X148018571Y-104085000D01*
X148113809Y-104037380D01*
X149970952Y-104513571D02*
X150113809Y-104561190D01*
X150161428Y-104608809D01*
X150209047Y-104704047D01*
X150209047Y-104846904D01*
X150161428Y-104942142D01*
X150113809Y-104989761D01*
X150018571Y-105037380D01*
X149637619Y-105037380D01*
X149637619Y-104037380D01*
X149970952Y-104037380D01*
X150066190Y-104085000D01*
X150113809Y-104132619D01*
X150161428Y-104227857D01*
X150161428Y-104323095D01*
X150113809Y-104418333D01*
X150066190Y-104465952D01*
X149970952Y-104513571D01*
X149637619Y-104513571D01*
X150590000Y-104751666D02*
X151066190Y-104751666D01*
X150494761Y-105037380D02*
X150828095Y-104037380D01*
X151161428Y-105037380D01*
X151494761Y-104037380D02*
X151494761Y-104846904D01*
X151542380Y-104942142D01*
X151590000Y-104989761D01*
X151685238Y-105037380D01*
X151875714Y-105037380D01*
X151970952Y-104989761D01*
X152018571Y-104942142D01*
X152066190Y-104846904D01*
X152066190Y-104037380D01*
X152542380Y-105037380D02*
X152542380Y-104037380D01*
X152780476Y-104037380D01*
X152923333Y-104085000D01*
X153018571Y-104180238D01*
X153066190Y-104275476D01*
X153113809Y-104465952D01*
X153113809Y-104608809D01*
X153066190Y-104799285D01*
X153018571Y-104894523D01*
X152923333Y-104989761D01*
X152780476Y-105037380D01*
X152542380Y-105037380D01*
X147494761Y-106115952D02*
X147399523Y-106068333D01*
X147351904Y-106020714D01*
X147304285Y-105925476D01*
X147304285Y-105877857D01*
X147351904Y-105782619D01*
X147399523Y-105735000D01*
X147494761Y-105687380D01*
X147685238Y-105687380D01*
X147780476Y-105735000D01*
X147828095Y-105782619D01*
X147875714Y-105877857D01*
X147875714Y-105925476D01*
X147828095Y-106020714D01*
X147780476Y-106068333D01*
X147685238Y-106115952D01*
X147494761Y-106115952D01*
X147399523Y-106163571D01*
X147351904Y-106211190D01*
X147304285Y-106306428D01*
X147304285Y-106496904D01*
X147351904Y-106592142D01*
X147399523Y-106639761D01*
X147494761Y-106687380D01*
X147685238Y-106687380D01*
X147780476Y-106639761D01*
X147828095Y-106592142D01*
X147875714Y-106496904D01*
X147875714Y-106306428D01*
X147828095Y-106211190D01*
X147780476Y-106163571D01*
X147685238Y-106115952D01*
X148304285Y-106687380D02*
X148304285Y-105687380D01*
X148875714Y-106687380D01*
X148875714Y-105687380D01*
X149875714Y-106687380D02*
X149304285Y-106687380D01*
X149590000Y-106687380D02*
X149590000Y-105687380D01*
X149494761Y-105830238D01*
X149399523Y-105925476D01*
X149304285Y-105973095D01*
X151852380Y-109963928D02*
X151852380Y-109773452D01*
X151900000Y-109678214D01*
X151995238Y-109582976D01*
X152185714Y-109535357D01*
X152519047Y-109535357D01*
X152709523Y-109582976D01*
X152804761Y-109678214D01*
X152852380Y-109773452D01*
X152852380Y-109963928D01*
X152804761Y-110059166D01*
X152709523Y-110154404D01*
X152519047Y-110202023D01*
X152185714Y-110202023D01*
X151995238Y-110154404D01*
X151900000Y-110059166D01*
X151852380Y-109963928D01*
X151852380Y-109106785D02*
X152661904Y-109106785D01*
X152757142Y-109059166D01*
X152804761Y-109011547D01*
X152852380Y-108916309D01*
X152852380Y-108725833D01*
X152804761Y-108630595D01*
X152757142Y-108582976D01*
X152661904Y-108535357D01*
X151852380Y-108535357D01*
X151852380Y-108202023D02*
X151852380Y-107630595D01*
X152852380Y-107916309D02*
X151852380Y-107916309D01*
X150312380Y-110154404D02*
X149312380Y-110154404D01*
X150312380Y-109678214D02*
X149312380Y-109678214D01*
X150312380Y-109106785D01*
X149312380Y-109106785D01*
X146820000Y-109630595D02*
X146772380Y-109725833D01*
X146772380Y-109868690D01*
X146820000Y-110011547D01*
X146915238Y-110106785D01*
X147010476Y-110154404D01*
X147200952Y-110202023D01*
X147343809Y-110202023D01*
X147534285Y-110154404D01*
X147629523Y-110106785D01*
X147724761Y-110011547D01*
X147772380Y-109868690D01*
X147772380Y-109773452D01*
X147724761Y-109630595D01*
X147677142Y-109582976D01*
X147343809Y-109582976D01*
X147343809Y-109773452D01*
X147772380Y-109154404D02*
X146772380Y-109154404D01*
X147772380Y-108582976D01*
X146772380Y-108582976D01*
X147772380Y-108106785D02*
X146772380Y-108106785D01*
X146772380Y-107868690D01*
X146820000Y-107725833D01*
X146915238Y-107630595D01*
X147010476Y-107582976D01*
X147200952Y-107535357D01*
X147343809Y-107535357D01*
X147534285Y-107582976D01*
X147629523Y-107630595D01*
X147724761Y-107725833D01*
X147772380Y-107868690D01*
X147772380Y-108106785D01*
X144232380Y-110297261D02*
X145232380Y-109963928D01*
X144232380Y-109630595D01*
X145232380Y-109297261D02*
X144232380Y-109297261D01*
X144232380Y-109059166D01*
X144280000Y-108916309D01*
X144375238Y-108821071D01*
X144470476Y-108773452D01*
X144660952Y-108725833D01*
X144803809Y-108725833D01*
X144994285Y-108773452D01*
X145089523Y-108821071D01*
X145184761Y-108916309D01*
X145232380Y-109059166D01*
X145232380Y-109297261D01*
X145232380Y-108297261D02*
X144232380Y-108297261D01*
X144232380Y-108059166D01*
X144280000Y-107916309D01*
X144375238Y-107821071D01*
X144470476Y-107773452D01*
X144660952Y-107725833D01*
X144803809Y-107725833D01*
X144994285Y-107773452D01*
X145089523Y-107821071D01*
X145184761Y-107916309D01*
X145232380Y-108059166D01*
X145232380Y-108297261D01*
D11*
X170858571Y-94213571D02*
X169358571Y-94213571D01*
X170430000Y-93713571D01*
X169358571Y-93213571D01*
X170858571Y-93213571D01*
X170858571Y-92499285D02*
X169358571Y-92499285D01*
X170858571Y-91785000D02*
X169358571Y-91785000D01*
X169358571Y-91427857D01*
X169430000Y-91213571D01*
X169572857Y-91070714D01*
X169715714Y-90999285D01*
X170001428Y-90927857D01*
X170215714Y-90927857D01*
X170501428Y-90999285D01*
X170644285Y-91070714D01*
X170787142Y-91213571D01*
X170858571Y-91427857D01*
X170858571Y-91785000D01*
X170858571Y-90285000D02*
X169358571Y-90285000D01*
X169358571Y-88142142D02*
X169358571Y-87856428D01*
X169430000Y-87713571D01*
X169572857Y-87570714D01*
X169858571Y-87499285D01*
X170358571Y-87499285D01*
X170644285Y-87570714D01*
X170787142Y-87713571D01*
X170858571Y-87856428D01*
X170858571Y-88142142D01*
X170787142Y-88285000D01*
X170644285Y-88427857D01*
X170358571Y-88499285D01*
X169858571Y-88499285D01*
X169572857Y-88427857D01*
X169430000Y-88285000D01*
X169358571Y-88142142D01*
X169358571Y-86856428D02*
X170572857Y-86856428D01*
X170715714Y-86785000D01*
X170787142Y-86713571D01*
X170858571Y-86570714D01*
X170858571Y-86285000D01*
X170787142Y-86142142D01*
X170715714Y-86070714D01*
X170572857Y-85999285D01*
X169358571Y-85999285D01*
X169358571Y-85499285D02*
X169358571Y-84642142D01*
X170858571Y-85070714D02*
X169358571Y-85070714D01*
X126321428Y-85856428D02*
X127821428Y-85856428D01*
X126750000Y-86356428D01*
X127821428Y-86856428D01*
X126321428Y-86856428D01*
X126321428Y-87570714D02*
X127821428Y-87570714D01*
X126321428Y-88285000D02*
X127821428Y-88285000D01*
X127821428Y-88642142D01*
X127750000Y-88856428D01*
X127607142Y-88999285D01*
X127464285Y-89070714D01*
X127178571Y-89142142D01*
X126964285Y-89142142D01*
X126678571Y-89070714D01*
X126535714Y-88999285D01*
X126392857Y-88856428D01*
X126321428Y-88642142D01*
X126321428Y-88285000D01*
X126321428Y-89785000D02*
X127821428Y-89785000D01*
X126321428Y-91642142D02*
X127821428Y-91642142D01*
X126321428Y-92356428D02*
X127821428Y-92356428D01*
X126321428Y-93213571D01*
X127821428Y-93213571D01*
X157250000Y-98238571D02*
X157535714Y-98238571D01*
X157678571Y-98310000D01*
X157821428Y-98452857D01*
X157892857Y-98738571D01*
X157892857Y-99238571D01*
X157821428Y-99524285D01*
X157678571Y-99667142D01*
X157535714Y-99738571D01*
X157250000Y-99738571D01*
X157107142Y-99667142D01*
X156964285Y-99524285D01*
X156892857Y-99238571D01*
X156892857Y-98738571D01*
X156964285Y-98452857D01*
X157107142Y-98310000D01*
X157250000Y-98238571D01*
X158535714Y-98238571D02*
X158535714Y-99452857D01*
X158607142Y-99595714D01*
X158678571Y-99667142D01*
X158821428Y-99738571D01*
X159107142Y-99738571D01*
X159250000Y-99667142D01*
X159321428Y-99595714D01*
X159392857Y-99452857D01*
X159392857Y-98238571D01*
X159892857Y-98238571D02*
X160750000Y-98238571D01*
X160321428Y-99738571D02*
X160321428Y-98238571D01*
X137644285Y-99738571D02*
X137644285Y-98238571D01*
X138358571Y-99738571D02*
X138358571Y-98238571D01*
X139215714Y-99738571D01*
X139215714Y-98238571D01*
D12*
G04 #@! TO.C,J4*
X143450000Y-113090000D02*
X143450000Y-111760000D01*
X144780000Y-113090000D02*
X143450000Y-113090000D01*
X146050000Y-113090000D02*
X146050000Y-110430000D01*
X146050000Y-110430000D02*
X153730000Y-110430000D01*
X146050000Y-113090000D02*
X153730000Y-113090000D01*
X153730000Y-113090000D02*
X153730000Y-110430000D01*
G04 #@! TO.C,D1*
X130660000Y-106430000D02*
X128420000Y-106430000D01*
X130660000Y-106670000D02*
X128420000Y-106670000D01*
X130660000Y-106550000D02*
X128420000Y-106550000D01*
X129540000Y-110720000D02*
X129540000Y-110070000D01*
X129540000Y-105180000D02*
X129540000Y-105830000D01*
X130660000Y-110070000D02*
X130660000Y-105830000D01*
X128420000Y-110070000D02*
X130660000Y-110070000D01*
X128420000Y-105830000D02*
X128420000Y-110070000D01*
X130660000Y-105830000D02*
X128420000Y-105830000D01*
G04 #@! TO.C,U1*
X141030000Y-102750000D02*
X130750000Y-102750000D01*
X141030000Y-113150000D02*
X141030000Y-102750000D01*
X130750000Y-113150000D02*
X141030000Y-113150000D01*
X130750000Y-102750000D02*
X130750000Y-113150000D01*
X138540000Y-102810000D02*
X136890000Y-102810000D01*
X138540000Y-113090000D02*
X138540000Y-102810000D01*
X133240000Y-113090000D02*
X138540000Y-113090000D01*
X133240000Y-102810000D02*
X133240000Y-113090000D01*
X134890000Y-102810000D02*
X133240000Y-102810000D01*
X136890000Y-102810000D02*
G75*
G02X134890000Y-102810000I-1000000J0D01*
G01*
D13*
G04 #@! TO.C,J2*
X148630000Y-96520000D02*
X149930000Y-96520000D01*
X157430000Y-96520000D02*
X152330000Y-96520000D01*
X164930000Y-96520000D02*
X159830000Y-96520000D01*
X168630000Y-96520000D02*
X167330000Y-96520000D01*
D14*
X147830000Y-96920000D02*
G75*
G03X147830000Y-96920000I-100000J0D01*
G01*
D13*
X148630000Y-84020000D02*
X148630000Y-96520000D01*
X168630000Y-84020000D02*
X148630000Y-84020000D01*
X168630000Y-96520000D02*
X168630000Y-84020000D01*
D12*
G04 #@! TO.C,U2*
X161900000Y-110310000D02*
X161900000Y-112760000D01*
X165120000Y-112110000D02*
X165120000Y-110310000D01*
G04 #@! TO.C,R4*
X166600000Y-106680000D02*
X165830000Y-106680000D01*
X158520000Y-106680000D02*
X159290000Y-106680000D01*
X165830000Y-105310000D02*
X159290000Y-105310000D01*
X165830000Y-108050000D02*
X165830000Y-105310000D01*
X159290000Y-108050000D02*
X165830000Y-108050000D01*
X159290000Y-105310000D02*
X159290000Y-108050000D01*
G04 #@! TO.C,R3*
X158520000Y-104140000D02*
X159290000Y-104140000D01*
X166600000Y-104140000D02*
X165830000Y-104140000D01*
X159290000Y-105510000D02*
X165830000Y-105510000D01*
X159290000Y-102770000D02*
X159290000Y-105510000D01*
X165830000Y-102770000D02*
X159290000Y-102770000D01*
X165830000Y-105510000D02*
X165830000Y-102770000D01*
G04 #@! TO.C,R2*
X127000000Y-102640000D02*
X127000000Y-103410000D01*
X127000000Y-110720000D02*
X127000000Y-109950000D01*
X125630000Y-103410000D02*
X125630000Y-109950000D01*
X128370000Y-103410000D02*
X125630000Y-103410000D01*
X128370000Y-109950000D02*
X128370000Y-103410000D01*
X125630000Y-109950000D02*
X128370000Y-109950000D01*
G04 #@! TO.C,R1*
X152630000Y-101600000D02*
X151860000Y-101600000D01*
X144550000Y-101600000D02*
X145320000Y-101600000D01*
X151860000Y-100230000D02*
X145320000Y-100230000D01*
X151860000Y-102970000D02*
X151860000Y-100230000D01*
X145320000Y-102970000D02*
X151860000Y-102970000D01*
X145320000Y-100230000D02*
X145320000Y-102970000D01*
D13*
G04 #@! TO.C,J1*
X128550000Y-96520000D02*
X129850000Y-96520000D01*
X137350000Y-96520000D02*
X132250000Y-96520000D01*
X144850000Y-96520000D02*
X139750000Y-96520000D01*
X148550000Y-96520000D02*
X147250000Y-96520000D01*
D14*
X127750000Y-96920000D02*
G75*
G03X127750000Y-96920000I-100000J0D01*
G01*
D13*
X128550000Y-84020000D02*
X128550000Y-96520000D01*
X148550000Y-84020000D02*
X128550000Y-84020000D01*
X148550000Y-96520000D02*
X148550000Y-84020000D01*
D12*
G04 #@! TO.C,C3*
X160940000Y-111139000D02*
X160940000Y-109881000D01*
X159100000Y-111139000D02*
X159100000Y-109881000D01*
G04 #@! TO.C,C2*
X139079000Y-100680000D02*
X137821000Y-100680000D01*
X139079000Y-102520000D02*
X137821000Y-102520000D01*
G04 #@! TO.C,C1*
X133959000Y-100680000D02*
X132701000Y-100680000D01*
X133959000Y-102520000D02*
X132701000Y-102520000D01*
G04 #@! TO.C,D1*
D10*
X128801904Y-102687380D02*
X128801904Y-101687380D01*
X129040000Y-101687380D01*
X129182857Y-101735000D01*
X129278095Y-101830238D01*
X129325714Y-101925476D01*
X129373333Y-102115952D01*
X129373333Y-102258809D01*
X129325714Y-102449285D01*
X129278095Y-102544523D01*
X129182857Y-102639761D01*
X129040000Y-102687380D01*
X128801904Y-102687380D01*
X130325714Y-102687380D02*
X129754285Y-102687380D01*
X130040000Y-102687380D02*
X130040000Y-101687380D01*
X129944761Y-101830238D01*
X129849523Y-101925476D01*
X129754285Y-101973095D01*
G04 #@! TO.C,U1*
X135128095Y-113752380D02*
X135128095Y-114561904D01*
X135175714Y-114657142D01*
X135223333Y-114704761D01*
X135318571Y-114752380D01*
X135509047Y-114752380D01*
X135604285Y-114704761D01*
X135651904Y-114657142D01*
X135699523Y-114561904D01*
X135699523Y-113752380D01*
X136699523Y-114752380D02*
X136128095Y-114752380D01*
X136413809Y-114752380D02*
X136413809Y-113752380D01*
X136318571Y-113895238D01*
X136223333Y-113990476D01*
X136128095Y-114038095D01*
G04 #@! TO.C,J2*
X149526666Y-84542380D02*
X149526666Y-85256666D01*
X149479047Y-85399523D01*
X149383809Y-85494761D01*
X149240952Y-85542380D01*
X149145714Y-85542380D01*
X149955238Y-84637619D02*
X150002857Y-84590000D01*
X150098095Y-84542380D01*
X150336190Y-84542380D01*
X150431428Y-84590000D01*
X150479047Y-84637619D01*
X150526666Y-84732857D01*
X150526666Y-84828095D01*
X150479047Y-84970952D01*
X149907619Y-85542380D01*
X150526666Y-85542380D01*
G04 #@! TO.C,U2*
X165608095Y-110577380D02*
X165608095Y-111386904D01*
X165655714Y-111482142D01*
X165703333Y-111529761D01*
X165798571Y-111577380D01*
X165989047Y-111577380D01*
X166084285Y-111529761D01*
X166131904Y-111482142D01*
X166179523Y-111386904D01*
X166179523Y-110577380D01*
X166608095Y-110672619D02*
X166655714Y-110625000D01*
X166750952Y-110577380D01*
X166989047Y-110577380D01*
X167084285Y-110625000D01*
X167131904Y-110672619D01*
X167179523Y-110767857D01*
X167179523Y-110863095D01*
X167131904Y-111005952D01*
X166560476Y-111577380D01*
X167179523Y-111577380D01*
G04 #@! TO.C,R4*
X170013333Y-107132380D02*
X169680000Y-106656190D01*
X169441904Y-107132380D02*
X169441904Y-106132380D01*
X169822857Y-106132380D01*
X169918095Y-106180000D01*
X169965714Y-106227619D01*
X170013333Y-106322857D01*
X170013333Y-106465714D01*
X169965714Y-106560952D01*
X169918095Y-106608571D01*
X169822857Y-106656190D01*
X169441904Y-106656190D01*
X170870476Y-106465714D02*
X170870476Y-107132380D01*
X170632380Y-106084761D02*
X170394285Y-106799047D01*
X171013333Y-106799047D01*
G04 #@! TO.C,R3*
X170013333Y-104592380D02*
X169680000Y-104116190D01*
X169441904Y-104592380D02*
X169441904Y-103592380D01*
X169822857Y-103592380D01*
X169918095Y-103640000D01*
X169965714Y-103687619D01*
X170013333Y-103782857D01*
X170013333Y-103925714D01*
X169965714Y-104020952D01*
X169918095Y-104068571D01*
X169822857Y-104116190D01*
X169441904Y-104116190D01*
X170346666Y-103592380D02*
X170965714Y-103592380D01*
X170632380Y-103973333D01*
X170775238Y-103973333D01*
X170870476Y-104020952D01*
X170918095Y-104068571D01*
X170965714Y-104163809D01*
X170965714Y-104401904D01*
X170918095Y-104497142D01*
X170870476Y-104544761D01*
X170775238Y-104592380D01*
X170489523Y-104592380D01*
X170394285Y-104544761D01*
X170346666Y-104497142D01*
G04 #@! TO.C,R2*
X129373333Y-101417380D02*
X129040000Y-100941190D01*
X128801904Y-101417380D02*
X128801904Y-100417380D01*
X129182857Y-100417380D01*
X129278095Y-100465000D01*
X129325714Y-100512619D01*
X129373333Y-100607857D01*
X129373333Y-100750714D01*
X129325714Y-100845952D01*
X129278095Y-100893571D01*
X129182857Y-100941190D01*
X128801904Y-100941190D01*
X129754285Y-100512619D02*
X129801904Y-100465000D01*
X129897142Y-100417380D01*
X130135238Y-100417380D01*
X130230476Y-100465000D01*
X130278095Y-100512619D01*
X130325714Y-100607857D01*
X130325714Y-100703095D01*
X130278095Y-100845952D01*
X129706666Y-101417380D01*
X130325714Y-101417380D01*
G04 #@! TO.C,R1*
X156043333Y-102052380D02*
X155710000Y-101576190D01*
X155471904Y-102052380D02*
X155471904Y-101052380D01*
X155852857Y-101052380D01*
X155948095Y-101100000D01*
X155995714Y-101147619D01*
X156043333Y-101242857D01*
X156043333Y-101385714D01*
X155995714Y-101480952D01*
X155948095Y-101528571D01*
X155852857Y-101576190D01*
X155471904Y-101576190D01*
X156995714Y-102052380D02*
X156424285Y-102052380D01*
X156710000Y-102052380D02*
X156710000Y-101052380D01*
X156614761Y-101195238D01*
X156519523Y-101290476D01*
X156424285Y-101338095D01*
G04 #@! TO.C,J1*
X129206666Y-84542380D02*
X129206666Y-85256666D01*
X129159047Y-85399523D01*
X129063809Y-85494761D01*
X128920952Y-85542380D01*
X128825714Y-85542380D01*
X130206666Y-85542380D02*
X129635238Y-85542380D01*
X129920952Y-85542380D02*
X129920952Y-84542380D01*
X129825714Y-84685238D01*
X129730476Y-84780476D01*
X129635238Y-84828095D01*
G04 #@! TO.C,C3*
X157313333Y-110847142D02*
X157265714Y-110894761D01*
X157122857Y-110942380D01*
X157027619Y-110942380D01*
X156884761Y-110894761D01*
X156789523Y-110799523D01*
X156741904Y-110704285D01*
X156694285Y-110513809D01*
X156694285Y-110370952D01*
X156741904Y-110180476D01*
X156789523Y-110085238D01*
X156884761Y-109990000D01*
X157027619Y-109942380D01*
X157122857Y-109942380D01*
X157265714Y-109990000D01*
X157313333Y-110037619D01*
X157646666Y-109942380D02*
X158265714Y-109942380D01*
X157932380Y-110323333D01*
X158075238Y-110323333D01*
X158170476Y-110370952D01*
X158218095Y-110418571D01*
X158265714Y-110513809D01*
X158265714Y-110751904D01*
X158218095Y-110847142D01*
X158170476Y-110894761D01*
X158075238Y-110942380D01*
X157789523Y-110942380D01*
X157694285Y-110894761D01*
X157646666Y-110847142D01*
G04 #@! TO.C,C2*
X141438333Y-101957142D02*
X141390714Y-102004761D01*
X141247857Y-102052380D01*
X141152619Y-102052380D01*
X141009761Y-102004761D01*
X140914523Y-101909523D01*
X140866904Y-101814285D01*
X140819285Y-101623809D01*
X140819285Y-101480952D01*
X140866904Y-101290476D01*
X140914523Y-101195238D01*
X141009761Y-101100000D01*
X141152619Y-101052380D01*
X141247857Y-101052380D01*
X141390714Y-101100000D01*
X141438333Y-101147619D01*
X141819285Y-101147619D02*
X141866904Y-101100000D01*
X141962142Y-101052380D01*
X142200238Y-101052380D01*
X142295476Y-101100000D01*
X142343095Y-101147619D01*
X142390714Y-101242857D01*
X142390714Y-101338095D01*
X142343095Y-101480952D01*
X141771666Y-102052380D01*
X142390714Y-102052380D01*
G04 #@! TO.C,C1*
X130643333Y-99417142D02*
X130595714Y-99464761D01*
X130452857Y-99512380D01*
X130357619Y-99512380D01*
X130214761Y-99464761D01*
X130119523Y-99369523D01*
X130071904Y-99274285D01*
X130024285Y-99083809D01*
X130024285Y-98940952D01*
X130071904Y-98750476D01*
X130119523Y-98655238D01*
X130214761Y-98560000D01*
X130357619Y-98512380D01*
X130452857Y-98512380D01*
X130595714Y-98560000D01*
X130643333Y-98607619D01*
X131595714Y-99512380D02*
X131024285Y-99512380D01*
X131310000Y-99512380D02*
X131310000Y-98512380D01*
X131214761Y-98655238D01*
X131119523Y-98750476D01*
X131024285Y-98798095D01*
G04 #@! TD*
M02*
