G04 #@! TF.GenerationSoftware,KiCad,Pcbnew,(5.1.5)-3*
G04 #@! TF.CreationDate,2020-09-08T17:50:37-04:00*
G04 #@! TF.ProjectId,breadboard_midi,62726561-6462-46f6-9172-645f6d696469,rev?*
G04 #@! TF.SameCoordinates,Original*
G04 #@! TF.FileFunction,Copper,L1,Top*
G04 #@! TF.FilePolarity,Positive*
%FSLAX46Y46*%
G04 Gerber Fmt 4.6, Leading zero omitted, Abs format (unit mm)*
G04 Created by KiCad (PCBNEW (5.1.5)-3) date 2020-09-08 17:50:37*
%MOMM*%
%LPD*%
G04 APERTURE LIST*
%ADD10O,1.600000X1.600000*%
%ADD11R,1.600000X1.600000*%
%ADD12O,1.700000X1.700000*%
%ADD13R,1.700000X1.700000*%
%ADD14C,1.950000*%
%ADD15R,0.650000X1.560000*%
%ADD16C,1.600000*%
%ADD17C,0.500000*%
%ADD18C,0.254000*%
G04 APERTURE END LIST*
D10*
X129540000Y-111760000D03*
D11*
X129540000Y-104140000D03*
D10*
X139700000Y-104140000D03*
X132080000Y-111760000D03*
X139700000Y-106680000D03*
X132080000Y-109220000D03*
X139700000Y-109220000D03*
X132080000Y-106680000D03*
X139700000Y-111760000D03*
D11*
X132080000Y-104140000D03*
D12*
X129540000Y-114300000D03*
D13*
X127000000Y-114300000D03*
X127000000Y-96520000D03*
D12*
X127000000Y-99060000D03*
D14*
X156130000Y-86520000D03*
X161130000Y-86520000D03*
X166130000Y-96520000D03*
X163630000Y-99020000D03*
X151130000Y-96520000D03*
X153630000Y-99020000D03*
X158630000Y-96520000D03*
D13*
X170180000Y-114300000D03*
D12*
X167640000Y-114300000D03*
X170180000Y-99060000D03*
D13*
X170180000Y-96520000D03*
D15*
X162560000Y-109860000D03*
X164460000Y-109860000D03*
X164460000Y-112560000D03*
X163510000Y-112560000D03*
X162560000Y-112560000D03*
D10*
X167640000Y-106680000D03*
D16*
X157480000Y-106680000D03*
D10*
X157480000Y-104140000D03*
D16*
X167640000Y-104140000D03*
D10*
X127000000Y-101600000D03*
D16*
X127000000Y-111760000D03*
D10*
X153670000Y-101600000D03*
D16*
X143510000Y-101600000D03*
D12*
X152400000Y-111760000D03*
X149860000Y-111760000D03*
X147320000Y-111760000D03*
D13*
X144780000Y-111760000D03*
D12*
X152400000Y-114300000D03*
X149860000Y-114300000D03*
X147320000Y-114300000D03*
D13*
X144780000Y-114300000D03*
D14*
X136050000Y-86520000D03*
X141050000Y-86520000D03*
X146050000Y-96520000D03*
X143550000Y-99020000D03*
X131050000Y-96520000D03*
X133550000Y-99020000D03*
X138550000Y-96520000D03*
D16*
X160020000Y-109260000D03*
X160020000Y-111760000D03*
X137200000Y-101600000D03*
X139700000Y-101600000D03*
X132080000Y-101600000D03*
X134580000Y-101600000D03*
D17*
X147320000Y-114300000D02*
X147320000Y-111760000D01*
X138550000Y-97630000D02*
X138550000Y-96520000D01*
X134580000Y-101600000D02*
X138550000Y-97630000D01*
X136050000Y-86520000D02*
X141050000Y-86520000D01*
X141050000Y-100250000D02*
X141050000Y-86520000D01*
X139700000Y-101600000D02*
X141050000Y-100250000D01*
X157480000Y-106720000D02*
X160020000Y-109260000D01*
X157480000Y-106680000D02*
X157480000Y-106720000D01*
X160620000Y-109860000D02*
X160020000Y-109260000D01*
X162560000Y-109860000D02*
X160620000Y-109860000D01*
X144780000Y-114300000D02*
X144780000Y-111760000D01*
X140970000Y-104140000D02*
X143510000Y-101600000D01*
X139700000Y-104140000D02*
X140970000Y-104140000D01*
X129540000Y-111760000D02*
X132080000Y-109220000D01*
X138410001Y-102889999D02*
X132879999Y-108420001D01*
X142575001Y-100575001D02*
X140260003Y-102889999D01*
X132879999Y-108420001D02*
X132080000Y-109220000D01*
X142575001Y-99994999D02*
X142575001Y-100575001D01*
X140260003Y-102889999D02*
X138410001Y-102889999D01*
X143550000Y-99020000D02*
X142575001Y-99994999D01*
X129540000Y-104140000D02*
X132080000Y-106680000D01*
X127000000Y-111760000D02*
X132080000Y-106680000D01*
X129580000Y-99020000D02*
X133550000Y-99020000D01*
X127000000Y-101600000D02*
X129580000Y-99020000D01*
X167640000Y-103030000D02*
X167640000Y-104140000D01*
X163630000Y-99020000D02*
X167640000Y-103030000D01*
X159980000Y-99020000D02*
X167640000Y-106680000D01*
X153630000Y-99020000D02*
X159980000Y-99020000D01*
X153602081Y-114300000D02*
X152400000Y-114300000D01*
X162735002Y-114300000D02*
X153602081Y-114300000D01*
X163510000Y-113525002D02*
X162735002Y-114300000D01*
X163510000Y-112560000D02*
X163510000Y-113525002D01*
X152400000Y-114300000D02*
X152400000Y-111760000D01*
X149860000Y-111760000D02*
X149860000Y-114300000D01*
X147320000Y-109220000D02*
X149860000Y-111760000D01*
X139700000Y-109220000D02*
X147320000Y-109220000D01*
X153670000Y-107950000D02*
X149860000Y-111760000D01*
X153670000Y-101600000D02*
X153670000Y-107950000D01*
X164460000Y-108580000D02*
X164460000Y-109860000D01*
X160020000Y-104140000D02*
X164460000Y-108580000D01*
X157480000Y-104140000D02*
X160020000Y-104140000D01*
D18*
G36*
X170765000Y-95031928D02*
G01*
X169330000Y-95031928D01*
X169205518Y-95044188D01*
X169085820Y-95080498D01*
X168975506Y-95139463D01*
X168878815Y-95218815D01*
X168799463Y-95315506D01*
X168740498Y-95425820D01*
X168704188Y-95545518D01*
X168691928Y-95670000D01*
X168691928Y-97370000D01*
X168704188Y-97494482D01*
X168740498Y-97614180D01*
X168799463Y-97724494D01*
X168878815Y-97821185D01*
X168975506Y-97900537D01*
X169085820Y-97959502D01*
X169158380Y-97981513D01*
X169026525Y-98113368D01*
X168864010Y-98356589D01*
X168752068Y-98626842D01*
X168695000Y-98913740D01*
X168695000Y-99206260D01*
X168752068Y-99493158D01*
X168864010Y-99763411D01*
X169026525Y-100006632D01*
X169233368Y-100213475D01*
X169476589Y-100375990D01*
X169746842Y-100487932D01*
X170033740Y-100545000D01*
X170326260Y-100545000D01*
X170613158Y-100487932D01*
X170765001Y-100425037D01*
X170765001Y-112811928D01*
X169330000Y-112811928D01*
X169205518Y-112824188D01*
X169085820Y-112860498D01*
X168975506Y-112919463D01*
X168878815Y-112998815D01*
X168799463Y-113095506D01*
X168740498Y-113205820D01*
X168718487Y-113278380D01*
X168586632Y-113146525D01*
X168343411Y-112984010D01*
X168073158Y-112872068D01*
X167786260Y-112815000D01*
X167493740Y-112815000D01*
X167206842Y-112872068D01*
X166936589Y-112984010D01*
X166693368Y-113146525D01*
X166486525Y-113353368D01*
X166324010Y-113596589D01*
X166212068Y-113866842D01*
X166155000Y-114153740D01*
X166155000Y-114446260D01*
X166212068Y-114733158D01*
X166274963Y-114885000D01*
X163401580Y-114885000D01*
X164105049Y-114181532D01*
X164138817Y-114153819D01*
X164249411Y-114019061D01*
X164330773Y-113866842D01*
X164331589Y-113865316D01*
X164382195Y-113698492D01*
X164386440Y-113655388D01*
X164424502Y-113584180D01*
X164460812Y-113464482D01*
X164473072Y-113340000D01*
X164473072Y-112687000D01*
X164587000Y-112687000D01*
X164587000Y-113816250D01*
X164745750Y-113975000D01*
X164785000Y-113978072D01*
X164909482Y-113965812D01*
X165029180Y-113929502D01*
X165139494Y-113870537D01*
X165236185Y-113791185D01*
X165315537Y-113694494D01*
X165374502Y-113584180D01*
X165410812Y-113464482D01*
X165423072Y-113340000D01*
X165420000Y-112845750D01*
X165261250Y-112687000D01*
X164587000Y-112687000D01*
X164473072Y-112687000D01*
X164473072Y-112413000D01*
X164587000Y-112413000D01*
X164587000Y-112433000D01*
X165261250Y-112433000D01*
X165420000Y-112274250D01*
X165423072Y-111780000D01*
X165410812Y-111655518D01*
X165374502Y-111535820D01*
X165315537Y-111425506D01*
X165236185Y-111328815D01*
X165139494Y-111249463D01*
X165065665Y-111210000D01*
X165139494Y-111170537D01*
X165236185Y-111091185D01*
X165315537Y-110994494D01*
X165374502Y-110884180D01*
X165410812Y-110764482D01*
X165423072Y-110640000D01*
X165423072Y-109080000D01*
X165410812Y-108955518D01*
X165374502Y-108835820D01*
X165345000Y-108780627D01*
X165345000Y-108623465D01*
X165349281Y-108579999D01*
X165345000Y-108536533D01*
X165345000Y-108536523D01*
X165332195Y-108406510D01*
X165281589Y-108239687D01*
X165199411Y-108085941D01*
X165088817Y-107951183D01*
X165055050Y-107923472D01*
X160676532Y-103544954D01*
X160648817Y-103511183D01*
X160514059Y-103400589D01*
X160360313Y-103318411D01*
X160193490Y-103267805D01*
X160063477Y-103255000D01*
X160063469Y-103255000D01*
X160020000Y-103250719D01*
X159976531Y-103255000D01*
X158614521Y-103255000D01*
X158594637Y-103225241D01*
X158394759Y-103025363D01*
X158159727Y-102868320D01*
X157898574Y-102760147D01*
X157621335Y-102705000D01*
X157338665Y-102705000D01*
X157061426Y-102760147D01*
X156800273Y-102868320D01*
X156565241Y-103025363D01*
X156365363Y-103225241D01*
X156208320Y-103460273D01*
X156100147Y-103721426D01*
X156045000Y-103998665D01*
X156045000Y-104281335D01*
X156100147Y-104558574D01*
X156208320Y-104819727D01*
X156365363Y-105054759D01*
X156565241Y-105254637D01*
X156797759Y-105410000D01*
X156565241Y-105565363D01*
X156365363Y-105765241D01*
X156208320Y-106000273D01*
X156100147Y-106261426D01*
X156045000Y-106538665D01*
X156045000Y-106821335D01*
X156100147Y-107098574D01*
X156208320Y-107359727D01*
X156365363Y-107594759D01*
X156565241Y-107794637D01*
X156800273Y-107951680D01*
X157061426Y-108059853D01*
X157338665Y-108115000D01*
X157621335Y-108115000D01*
X157623075Y-108114654D01*
X158591983Y-109083561D01*
X158585000Y-109118665D01*
X158585000Y-109401335D01*
X158640147Y-109678574D01*
X158748320Y-109939727D01*
X158905363Y-110174759D01*
X159105241Y-110374637D01*
X159305869Y-110508692D01*
X159278486Y-110523329D01*
X159206903Y-110767298D01*
X160020000Y-111580395D01*
X160034143Y-111566253D01*
X160213748Y-111745858D01*
X160199605Y-111760000D01*
X161012702Y-112573097D01*
X161256671Y-112501514D01*
X161377571Y-112246004D01*
X161446300Y-111971816D01*
X161460217Y-111689488D01*
X161418787Y-111409870D01*
X161323603Y-111143708D01*
X161256671Y-111018486D01*
X161012704Y-110946903D01*
X161128977Y-110830630D01*
X161043347Y-110745000D01*
X161607269Y-110745000D01*
X161609188Y-110764482D01*
X161645498Y-110884180D01*
X161704463Y-110994494D01*
X161783815Y-111091185D01*
X161880506Y-111170537D01*
X161954335Y-111210000D01*
X161880506Y-111249463D01*
X161783815Y-111328815D01*
X161704463Y-111425506D01*
X161645498Y-111535820D01*
X161609188Y-111655518D01*
X161596928Y-111780000D01*
X161600000Y-112274250D01*
X161758750Y-112433000D01*
X162433000Y-112433000D01*
X162433000Y-112413000D01*
X162546928Y-112413000D01*
X162546928Y-112707000D01*
X162433000Y-112707000D01*
X162433000Y-112687000D01*
X161758750Y-112687000D01*
X161600000Y-112845750D01*
X161596928Y-113340000D01*
X161604315Y-113415000D01*
X153594656Y-113415000D01*
X153553475Y-113353368D01*
X153346632Y-113146525D01*
X153285000Y-113105344D01*
X153285000Y-112954656D01*
X153346632Y-112913475D01*
X153507405Y-112752702D01*
X159206903Y-112752702D01*
X159278486Y-112996671D01*
X159533996Y-113117571D01*
X159808184Y-113186300D01*
X160090512Y-113200217D01*
X160370130Y-113158787D01*
X160636292Y-113063603D01*
X160761514Y-112996671D01*
X160833097Y-112752702D01*
X160020000Y-111939605D01*
X159206903Y-112752702D01*
X153507405Y-112752702D01*
X153553475Y-112706632D01*
X153715990Y-112463411D01*
X153827932Y-112193158D01*
X153885000Y-111906260D01*
X153885000Y-111830512D01*
X158579783Y-111830512D01*
X158621213Y-112110130D01*
X158716397Y-112376292D01*
X158783329Y-112501514D01*
X159027298Y-112573097D01*
X159840395Y-111760000D01*
X159027298Y-110946903D01*
X158783329Y-111018486D01*
X158662429Y-111273996D01*
X158593700Y-111548184D01*
X158579783Y-111830512D01*
X153885000Y-111830512D01*
X153885000Y-111613740D01*
X153827932Y-111326842D01*
X153715990Y-111056589D01*
X153553475Y-110813368D01*
X153346632Y-110606525D01*
X153103411Y-110444010D01*
X152833158Y-110332068D01*
X152588230Y-110283348D01*
X154265049Y-108606530D01*
X154298817Y-108578817D01*
X154333527Y-108536524D01*
X154409411Y-108444059D01*
X154491589Y-108290314D01*
X154542195Y-108123490D01*
X154546509Y-108079688D01*
X154555000Y-107993477D01*
X154555000Y-107993469D01*
X154559281Y-107950000D01*
X154555000Y-107906531D01*
X154555000Y-102734521D01*
X154584759Y-102714637D01*
X154784637Y-102514759D01*
X154941680Y-102279727D01*
X155049853Y-102018574D01*
X155105000Y-101741335D01*
X155105000Y-101458665D01*
X155049853Y-101181426D01*
X154941680Y-100920273D01*
X154784637Y-100685241D01*
X154584759Y-100485363D01*
X154459805Y-100401872D01*
X154656315Y-100270569D01*
X154880569Y-100046315D01*
X154974992Y-99905000D01*
X159613422Y-99905000D01*
X166211983Y-106503562D01*
X166205000Y-106538665D01*
X166205000Y-106821335D01*
X166260147Y-107098574D01*
X166368320Y-107359727D01*
X166525363Y-107594759D01*
X166725241Y-107794637D01*
X166960273Y-107951680D01*
X167221426Y-108059853D01*
X167498665Y-108115000D01*
X167781335Y-108115000D01*
X168058574Y-108059853D01*
X168319727Y-107951680D01*
X168554759Y-107794637D01*
X168754637Y-107594759D01*
X168911680Y-107359727D01*
X169019853Y-107098574D01*
X169075000Y-106821335D01*
X169075000Y-106538665D01*
X169019853Y-106261426D01*
X168911680Y-106000273D01*
X168754637Y-105765241D01*
X168554759Y-105565363D01*
X168322241Y-105410000D01*
X168554759Y-105254637D01*
X168754637Y-105054759D01*
X168911680Y-104819727D01*
X169019853Y-104558574D01*
X169075000Y-104281335D01*
X169075000Y-103998665D01*
X169019853Y-103721426D01*
X168911680Y-103460273D01*
X168754637Y-103225241D01*
X168554759Y-103025363D01*
X168526997Y-103006813D01*
X168525000Y-102986533D01*
X168525000Y-102986523D01*
X168512195Y-102856510D01*
X168461589Y-102689687D01*
X168379411Y-102535941D01*
X168268817Y-102401183D01*
X168235050Y-102373472D01*
X165206843Y-99345265D01*
X165240000Y-99178571D01*
X165240000Y-98861429D01*
X165178129Y-98550380D01*
X165056763Y-98257379D01*
X164880569Y-97993685D01*
X164656315Y-97769431D01*
X164392621Y-97593237D01*
X164099620Y-97471871D01*
X163788571Y-97410000D01*
X163471429Y-97410000D01*
X163160380Y-97471871D01*
X162867379Y-97593237D01*
X162603685Y-97769431D01*
X162379431Y-97993685D01*
X162203237Y-98257379D01*
X162081871Y-98550380D01*
X162020000Y-98861429D01*
X162020000Y-99178571D01*
X162081871Y-99489620D01*
X162203237Y-99782621D01*
X162379431Y-100046315D01*
X162603685Y-100270569D01*
X162867379Y-100446763D01*
X163160380Y-100568129D01*
X163471429Y-100630000D01*
X163788571Y-100630000D01*
X163955265Y-100596843D01*
X166554513Y-103196091D01*
X166525363Y-103225241D01*
X166368320Y-103460273D01*
X166260147Y-103721426D01*
X166205870Y-103994291D01*
X160636534Y-98424956D01*
X160608817Y-98391183D01*
X160474059Y-98280589D01*
X160320313Y-98198411D01*
X160153490Y-98147805D01*
X160023477Y-98135000D01*
X160023469Y-98135000D01*
X159980000Y-98130719D01*
X159936531Y-98135000D01*
X158704714Y-98135000D01*
X159007733Y-98093074D01*
X159307367Y-97989156D01*
X159475234Y-97899429D01*
X159567979Y-97637584D01*
X158630000Y-96699605D01*
X157692021Y-97637584D01*
X157784766Y-97899429D01*
X158070120Y-98037820D01*
X158376990Y-98117883D01*
X158667451Y-98135000D01*
X154974992Y-98135000D01*
X154880569Y-97993685D01*
X154656315Y-97769431D01*
X154392621Y-97593237D01*
X154099620Y-97471871D01*
X153788571Y-97410000D01*
X153471429Y-97410000D01*
X153160380Y-97471871D01*
X152867379Y-97593237D01*
X152603685Y-97769431D01*
X152379431Y-97993685D01*
X152203237Y-98257379D01*
X152081871Y-98550380D01*
X152020000Y-98861429D01*
X152020000Y-99178571D01*
X152081871Y-99489620D01*
X152203237Y-99782621D01*
X152379431Y-100046315D01*
X152603685Y-100270569D01*
X152840195Y-100428599D01*
X152755241Y-100485363D01*
X152555363Y-100685241D01*
X152398320Y-100920273D01*
X152290147Y-101181426D01*
X152235000Y-101458665D01*
X152235000Y-101741335D01*
X152290147Y-102018574D01*
X152398320Y-102279727D01*
X152555363Y-102514759D01*
X152755241Y-102714637D01*
X152785000Y-102734521D01*
X152785001Y-107583420D01*
X150078961Y-110289461D01*
X150006260Y-110275000D01*
X149713740Y-110275000D01*
X149641040Y-110289461D01*
X147976532Y-108624954D01*
X147948817Y-108591183D01*
X147814059Y-108480589D01*
X147660313Y-108398411D01*
X147493490Y-108347805D01*
X147363477Y-108335000D01*
X147363469Y-108335000D01*
X147320000Y-108330719D01*
X147276531Y-108335000D01*
X140834521Y-108335000D01*
X140814637Y-108305241D01*
X140614759Y-108105363D01*
X140382241Y-107950000D01*
X140614759Y-107794637D01*
X140814637Y-107594759D01*
X140971680Y-107359727D01*
X141079853Y-107098574D01*
X141135000Y-106821335D01*
X141135000Y-106538665D01*
X141079853Y-106261426D01*
X140971680Y-106000273D01*
X140814637Y-105765241D01*
X140614759Y-105565363D01*
X140382241Y-105410000D01*
X140614759Y-105254637D01*
X140814637Y-105054759D01*
X140834521Y-105025000D01*
X140926531Y-105025000D01*
X140970000Y-105029281D01*
X141013469Y-105025000D01*
X141013477Y-105025000D01*
X141143490Y-105012195D01*
X141310313Y-104961589D01*
X141464059Y-104879411D01*
X141598817Y-104768817D01*
X141626534Y-104735044D01*
X143333561Y-103028017D01*
X143368665Y-103035000D01*
X143651335Y-103035000D01*
X143928574Y-102979853D01*
X144189727Y-102871680D01*
X144424759Y-102714637D01*
X144624637Y-102514759D01*
X144781680Y-102279727D01*
X144889853Y-102018574D01*
X144945000Y-101741335D01*
X144945000Y-101458665D01*
X144889853Y-101181426D01*
X144781680Y-100920273D01*
X144624637Y-100685241D01*
X144424759Y-100485363D01*
X144339805Y-100428599D01*
X144576315Y-100270569D01*
X144800569Y-100046315D01*
X144976763Y-99782621D01*
X145098129Y-99489620D01*
X145160000Y-99178571D01*
X145160000Y-98861429D01*
X145098129Y-98550380D01*
X144976763Y-98257379D01*
X144800569Y-97993685D01*
X144576315Y-97769431D01*
X144312621Y-97593237D01*
X144019620Y-97471871D01*
X143708571Y-97410000D01*
X143391429Y-97410000D01*
X143080380Y-97471871D01*
X142787379Y-97593237D01*
X142523685Y-97769431D01*
X142299431Y-97993685D01*
X142123237Y-98257379D01*
X142001871Y-98550380D01*
X141940000Y-98861429D01*
X141940000Y-99178571D01*
X141972949Y-99344217D01*
X141946184Y-99366182D01*
X141935000Y-99379810D01*
X141935000Y-96361429D01*
X144440000Y-96361429D01*
X144440000Y-96678571D01*
X144501871Y-96989620D01*
X144623237Y-97282621D01*
X144799431Y-97546315D01*
X145023685Y-97770569D01*
X145287379Y-97946763D01*
X145580380Y-98068129D01*
X145891429Y-98130000D01*
X146208571Y-98130000D01*
X146519620Y-98068129D01*
X146812621Y-97946763D01*
X147076315Y-97770569D01*
X147300569Y-97546315D01*
X147476763Y-97282621D01*
X147598129Y-96989620D01*
X147660000Y-96678571D01*
X147660000Y-96361429D01*
X149520000Y-96361429D01*
X149520000Y-96678571D01*
X149581871Y-96989620D01*
X149703237Y-97282621D01*
X149879431Y-97546315D01*
X150103685Y-97770569D01*
X150367379Y-97946763D01*
X150660380Y-98068129D01*
X150971429Y-98130000D01*
X151288571Y-98130000D01*
X151599620Y-98068129D01*
X151892621Y-97946763D01*
X152156315Y-97770569D01*
X152380569Y-97546315D01*
X152556763Y-97282621D01*
X152678129Y-96989620D01*
X152740000Y-96678571D01*
X152740000Y-96583584D01*
X157013460Y-96583584D01*
X157056926Y-96897733D01*
X157160844Y-97197367D01*
X157250571Y-97365234D01*
X157512416Y-97457979D01*
X158450395Y-96520000D01*
X158809605Y-96520000D01*
X159747584Y-97457979D01*
X160009429Y-97365234D01*
X160147820Y-97079880D01*
X160227883Y-96773010D01*
X160246540Y-96456416D01*
X160233398Y-96361429D01*
X164520000Y-96361429D01*
X164520000Y-96678571D01*
X164581871Y-96989620D01*
X164703237Y-97282621D01*
X164879431Y-97546315D01*
X165103685Y-97770569D01*
X165367379Y-97946763D01*
X165660380Y-98068129D01*
X165971429Y-98130000D01*
X166288571Y-98130000D01*
X166599620Y-98068129D01*
X166892621Y-97946763D01*
X167156315Y-97770569D01*
X167380569Y-97546315D01*
X167556763Y-97282621D01*
X167678129Y-96989620D01*
X167740000Y-96678571D01*
X167740000Y-96361429D01*
X167678129Y-96050380D01*
X167556763Y-95757379D01*
X167380569Y-95493685D01*
X167156315Y-95269431D01*
X166892621Y-95093237D01*
X166599620Y-94971871D01*
X166288571Y-94910000D01*
X165971429Y-94910000D01*
X165660380Y-94971871D01*
X165367379Y-95093237D01*
X165103685Y-95269431D01*
X164879431Y-95493685D01*
X164703237Y-95757379D01*
X164581871Y-96050380D01*
X164520000Y-96361429D01*
X160233398Y-96361429D01*
X160203074Y-96142267D01*
X160099156Y-95842633D01*
X160009429Y-95674766D01*
X159747584Y-95582021D01*
X158809605Y-96520000D01*
X158450395Y-96520000D01*
X157512416Y-95582021D01*
X157250571Y-95674766D01*
X157112180Y-95960120D01*
X157032117Y-96266990D01*
X157013460Y-96583584D01*
X152740000Y-96583584D01*
X152740000Y-96361429D01*
X152678129Y-96050380D01*
X152556763Y-95757379D01*
X152380569Y-95493685D01*
X152289300Y-95402416D01*
X157692021Y-95402416D01*
X158630000Y-96340395D01*
X159567979Y-95402416D01*
X159475234Y-95140571D01*
X159189880Y-95002180D01*
X158883010Y-94922117D01*
X158566416Y-94903460D01*
X158252267Y-94946926D01*
X157952633Y-95050844D01*
X157784766Y-95140571D01*
X157692021Y-95402416D01*
X152289300Y-95402416D01*
X152156315Y-95269431D01*
X151892621Y-95093237D01*
X151599620Y-94971871D01*
X151288571Y-94910000D01*
X150971429Y-94910000D01*
X150660380Y-94971871D01*
X150367379Y-95093237D01*
X150103685Y-95269431D01*
X149879431Y-95493685D01*
X149703237Y-95757379D01*
X149581871Y-96050380D01*
X149520000Y-96361429D01*
X147660000Y-96361429D01*
X147598129Y-96050380D01*
X147476763Y-95757379D01*
X147300569Y-95493685D01*
X147076315Y-95269431D01*
X146812621Y-95093237D01*
X146519620Y-94971871D01*
X146208571Y-94910000D01*
X145891429Y-94910000D01*
X145580380Y-94971871D01*
X145287379Y-95093237D01*
X145023685Y-95269431D01*
X144799431Y-95493685D01*
X144623237Y-95757379D01*
X144501871Y-96050380D01*
X144440000Y-96361429D01*
X141935000Y-96361429D01*
X141935000Y-91339268D01*
X144215000Y-91339268D01*
X144215000Y-91700732D01*
X144285518Y-92055250D01*
X144423844Y-92389199D01*
X144624662Y-92689744D01*
X144880256Y-92945338D01*
X145180801Y-93146156D01*
X145514750Y-93284482D01*
X145869268Y-93355000D01*
X146230732Y-93355000D01*
X146585250Y-93284482D01*
X146919199Y-93146156D01*
X147219744Y-92945338D01*
X147475338Y-92689744D01*
X147676156Y-92389199D01*
X147814482Y-92055250D01*
X147885000Y-91700732D01*
X147885000Y-91339268D01*
X149295000Y-91339268D01*
X149295000Y-91700732D01*
X149365518Y-92055250D01*
X149503844Y-92389199D01*
X149704662Y-92689744D01*
X149960256Y-92945338D01*
X150260801Y-93146156D01*
X150594750Y-93284482D01*
X150949268Y-93355000D01*
X151310732Y-93355000D01*
X151665250Y-93284482D01*
X151999199Y-93146156D01*
X152299744Y-92945338D01*
X152555338Y-92689744D01*
X152756156Y-92389199D01*
X152894482Y-92055250D01*
X152965000Y-91700732D01*
X152965000Y-91339268D01*
X164295000Y-91339268D01*
X164295000Y-91700732D01*
X164365518Y-92055250D01*
X164503844Y-92389199D01*
X164704662Y-92689744D01*
X164960256Y-92945338D01*
X165260801Y-93146156D01*
X165594750Y-93284482D01*
X165949268Y-93355000D01*
X166310732Y-93355000D01*
X166665250Y-93284482D01*
X166999199Y-93146156D01*
X167299744Y-92945338D01*
X167555338Y-92689744D01*
X167756156Y-92389199D01*
X167894482Y-92055250D01*
X167965000Y-91700732D01*
X167965000Y-91339268D01*
X167894482Y-90984750D01*
X167756156Y-90650801D01*
X167555338Y-90350256D01*
X167299744Y-90094662D01*
X166999199Y-89893844D01*
X166665250Y-89755518D01*
X166310732Y-89685000D01*
X165949268Y-89685000D01*
X165594750Y-89755518D01*
X165260801Y-89893844D01*
X164960256Y-90094662D01*
X164704662Y-90350256D01*
X164503844Y-90650801D01*
X164365518Y-90984750D01*
X164295000Y-91339268D01*
X152965000Y-91339268D01*
X152894482Y-90984750D01*
X152756156Y-90650801D01*
X152555338Y-90350256D01*
X152299744Y-90094662D01*
X151999199Y-89893844D01*
X151665250Y-89755518D01*
X151310732Y-89685000D01*
X150949268Y-89685000D01*
X150594750Y-89755518D01*
X150260801Y-89893844D01*
X149960256Y-90094662D01*
X149704662Y-90350256D01*
X149503844Y-90650801D01*
X149365518Y-90984750D01*
X149295000Y-91339268D01*
X147885000Y-91339268D01*
X147814482Y-90984750D01*
X147676156Y-90650801D01*
X147475338Y-90350256D01*
X147219744Y-90094662D01*
X146919199Y-89893844D01*
X146585250Y-89755518D01*
X146230732Y-89685000D01*
X145869268Y-89685000D01*
X145514750Y-89755518D01*
X145180801Y-89893844D01*
X144880256Y-90094662D01*
X144624662Y-90350256D01*
X144423844Y-90650801D01*
X144285518Y-90984750D01*
X144215000Y-91339268D01*
X141935000Y-91339268D01*
X141935000Y-87864992D01*
X142076315Y-87770569D01*
X142209300Y-87637584D01*
X155192021Y-87637584D01*
X155284766Y-87899429D01*
X155570120Y-88037820D01*
X155876990Y-88117883D01*
X156193584Y-88136540D01*
X156507733Y-88093074D01*
X156807367Y-87989156D01*
X156975234Y-87899429D01*
X157067979Y-87637584D01*
X160192021Y-87637584D01*
X160284766Y-87899429D01*
X160570120Y-88037820D01*
X160876990Y-88117883D01*
X161193584Y-88136540D01*
X161507733Y-88093074D01*
X161807367Y-87989156D01*
X161975234Y-87899429D01*
X162067979Y-87637584D01*
X161130000Y-86699605D01*
X160192021Y-87637584D01*
X157067979Y-87637584D01*
X156130000Y-86699605D01*
X155192021Y-87637584D01*
X142209300Y-87637584D01*
X142300569Y-87546315D01*
X142476763Y-87282621D01*
X142598129Y-86989620D01*
X142660000Y-86678571D01*
X142660000Y-86583584D01*
X154513460Y-86583584D01*
X154556926Y-86897733D01*
X154660844Y-87197367D01*
X154750571Y-87365234D01*
X155012416Y-87457979D01*
X155950395Y-86520000D01*
X156309605Y-86520000D01*
X157247584Y-87457979D01*
X157509429Y-87365234D01*
X157647820Y-87079880D01*
X157727883Y-86773010D01*
X157739045Y-86583584D01*
X159513460Y-86583584D01*
X159556926Y-86897733D01*
X159660844Y-87197367D01*
X159750571Y-87365234D01*
X160012416Y-87457979D01*
X160950395Y-86520000D01*
X161309605Y-86520000D01*
X162247584Y-87457979D01*
X162509429Y-87365234D01*
X162647820Y-87079880D01*
X162727883Y-86773010D01*
X162746540Y-86456416D01*
X162703074Y-86142267D01*
X162599156Y-85842633D01*
X162509429Y-85674766D01*
X162247584Y-85582021D01*
X161309605Y-86520000D01*
X160950395Y-86520000D01*
X160012416Y-85582021D01*
X159750571Y-85674766D01*
X159612180Y-85960120D01*
X159532117Y-86266990D01*
X159513460Y-86583584D01*
X157739045Y-86583584D01*
X157746540Y-86456416D01*
X157703074Y-86142267D01*
X157599156Y-85842633D01*
X157509429Y-85674766D01*
X157247584Y-85582021D01*
X156309605Y-86520000D01*
X155950395Y-86520000D01*
X155012416Y-85582021D01*
X154750571Y-85674766D01*
X154612180Y-85960120D01*
X154532117Y-86266990D01*
X154513460Y-86583584D01*
X142660000Y-86583584D01*
X142660000Y-86361429D01*
X142598129Y-86050380D01*
X142476763Y-85757379D01*
X142300569Y-85493685D01*
X142209300Y-85402416D01*
X155192021Y-85402416D01*
X156130000Y-86340395D01*
X157067979Y-85402416D01*
X160192021Y-85402416D01*
X161130000Y-86340395D01*
X162067979Y-85402416D01*
X161975234Y-85140571D01*
X161689880Y-85002180D01*
X161383010Y-84922117D01*
X161066416Y-84903460D01*
X160752267Y-84946926D01*
X160452633Y-85050844D01*
X160284766Y-85140571D01*
X160192021Y-85402416D01*
X157067979Y-85402416D01*
X156975234Y-85140571D01*
X156689880Y-85002180D01*
X156383010Y-84922117D01*
X156066416Y-84903460D01*
X155752267Y-84946926D01*
X155452633Y-85050844D01*
X155284766Y-85140571D01*
X155192021Y-85402416D01*
X142209300Y-85402416D01*
X142076315Y-85269431D01*
X141812621Y-85093237D01*
X141519620Y-84971871D01*
X141208571Y-84910000D01*
X140891429Y-84910000D01*
X140580380Y-84971871D01*
X140287379Y-85093237D01*
X140023685Y-85269431D01*
X139799431Y-85493685D01*
X139705008Y-85635000D01*
X137394992Y-85635000D01*
X137300569Y-85493685D01*
X137076315Y-85269431D01*
X136812621Y-85093237D01*
X136519620Y-84971871D01*
X136208571Y-84910000D01*
X135891429Y-84910000D01*
X135580380Y-84971871D01*
X135287379Y-85093237D01*
X135023685Y-85269431D01*
X134799431Y-85493685D01*
X134623237Y-85757379D01*
X134501871Y-86050380D01*
X134440000Y-86361429D01*
X134440000Y-86678571D01*
X134501871Y-86989620D01*
X134623237Y-87282621D01*
X134799431Y-87546315D01*
X135023685Y-87770569D01*
X135287379Y-87946763D01*
X135580380Y-88068129D01*
X135891429Y-88130000D01*
X136208571Y-88130000D01*
X136519620Y-88068129D01*
X136812621Y-87946763D01*
X137076315Y-87770569D01*
X137300569Y-87546315D01*
X137394992Y-87405000D01*
X139705008Y-87405000D01*
X139799431Y-87546315D01*
X140023685Y-87770569D01*
X140165001Y-87864993D01*
X140165000Y-99883421D01*
X139876439Y-100171983D01*
X139841335Y-100165000D01*
X139558665Y-100165000D01*
X139281426Y-100220147D01*
X139020273Y-100328320D01*
X138785241Y-100485363D01*
X138585363Y-100685241D01*
X138451308Y-100885869D01*
X138436671Y-100858486D01*
X138192702Y-100786903D01*
X137379605Y-101600000D01*
X137393748Y-101614143D01*
X137214143Y-101793748D01*
X137200000Y-101779605D01*
X136386903Y-102592702D01*
X136458486Y-102836671D01*
X136713996Y-102957571D01*
X136988184Y-103026300D01*
X137020527Y-103027894D01*
X133514130Y-106534292D01*
X133459853Y-106261426D01*
X133351680Y-106000273D01*
X133194637Y-105765241D01*
X132996039Y-105566643D01*
X133004482Y-105565812D01*
X133124180Y-105529502D01*
X133234494Y-105470537D01*
X133331185Y-105391185D01*
X133410537Y-105294494D01*
X133469502Y-105184180D01*
X133505812Y-105064482D01*
X133518072Y-104940000D01*
X133518072Y-103340000D01*
X133505812Y-103215518D01*
X133469502Y-103095820D01*
X133410537Y-102985506D01*
X133331185Y-102888815D01*
X133234494Y-102809463D01*
X133124180Y-102750498D01*
X133004482Y-102714188D01*
X132880000Y-102701928D01*
X132861049Y-102701928D01*
X132893097Y-102592702D01*
X132080000Y-101779605D01*
X131266903Y-102592702D01*
X131298951Y-102701928D01*
X131280000Y-102701928D01*
X131155518Y-102714188D01*
X131035820Y-102750498D01*
X130925506Y-102809463D01*
X130828815Y-102888815D01*
X130810000Y-102911741D01*
X130791185Y-102888815D01*
X130694494Y-102809463D01*
X130584180Y-102750498D01*
X130464482Y-102714188D01*
X130340000Y-102701928D01*
X128740000Y-102701928D01*
X128615518Y-102714188D01*
X128495820Y-102750498D01*
X128385506Y-102809463D01*
X128288815Y-102888815D01*
X128209463Y-102985506D01*
X128150498Y-103095820D01*
X128114188Y-103215518D01*
X128101928Y-103340000D01*
X128101928Y-104940000D01*
X128114188Y-105064482D01*
X128150498Y-105184180D01*
X128209463Y-105294494D01*
X128288815Y-105391185D01*
X128385506Y-105470537D01*
X128495820Y-105529502D01*
X128615518Y-105565812D01*
X128740000Y-105578072D01*
X129726494Y-105578072D01*
X130651983Y-106503561D01*
X130645000Y-106538665D01*
X130645000Y-106821335D01*
X130651983Y-106856439D01*
X127176439Y-110331983D01*
X127141335Y-110325000D01*
X126858665Y-110325000D01*
X126581426Y-110380147D01*
X126415000Y-110449083D01*
X126415000Y-102910917D01*
X126581426Y-102979853D01*
X126858665Y-103035000D01*
X127141335Y-103035000D01*
X127418574Y-102979853D01*
X127679727Y-102871680D01*
X127914759Y-102714637D01*
X128114637Y-102514759D01*
X128271680Y-102279727D01*
X128379853Y-102018574D01*
X128435000Y-101741335D01*
X128435000Y-101670512D01*
X130639783Y-101670512D01*
X130681213Y-101950130D01*
X130776397Y-102216292D01*
X130843329Y-102341514D01*
X131087298Y-102413097D01*
X131900395Y-101600000D01*
X131087298Y-100786903D01*
X130843329Y-100858486D01*
X130722429Y-101113996D01*
X130653700Y-101388184D01*
X130639783Y-101670512D01*
X128435000Y-101670512D01*
X128435000Y-101458665D01*
X128428017Y-101423561D01*
X129946579Y-99905000D01*
X132205008Y-99905000D01*
X132299431Y-100046315D01*
X132471975Y-100218859D01*
X132291816Y-100173700D01*
X132009488Y-100159783D01*
X131729870Y-100201213D01*
X131463708Y-100296397D01*
X131338486Y-100363329D01*
X131266903Y-100607298D01*
X132080000Y-101420395D01*
X132893097Y-100607298D01*
X132854104Y-100474402D01*
X133080380Y-100568129D01*
X133391429Y-100630000D01*
X133520604Y-100630000D01*
X133465363Y-100685241D01*
X133331308Y-100885869D01*
X133316671Y-100858486D01*
X133072702Y-100786903D01*
X132259605Y-101600000D01*
X133072702Y-102413097D01*
X133316671Y-102341514D01*
X133330324Y-102312659D01*
X133465363Y-102514759D01*
X133665241Y-102714637D01*
X133900273Y-102871680D01*
X134161426Y-102979853D01*
X134438665Y-103035000D01*
X134721335Y-103035000D01*
X134998574Y-102979853D01*
X135259727Y-102871680D01*
X135494759Y-102714637D01*
X135694637Y-102514759D01*
X135851680Y-102279727D01*
X135887852Y-102192399D01*
X135896397Y-102216292D01*
X135963329Y-102341514D01*
X136207298Y-102413097D01*
X137020395Y-101600000D01*
X137006253Y-101585858D01*
X137185858Y-101406253D01*
X137200000Y-101420395D01*
X138013097Y-100607298D01*
X137941514Y-100363329D01*
X137686004Y-100242429D01*
X137411816Y-100173700D01*
X137265110Y-100166468D01*
X139145050Y-98286528D01*
X139178817Y-98258817D01*
X139228392Y-98198411D01*
X139289411Y-98124059D01*
X139335506Y-98037820D01*
X139371589Y-97970313D01*
X139395540Y-97891359D01*
X139576315Y-97770569D01*
X139800569Y-97546315D01*
X139976763Y-97282621D01*
X140098129Y-96989620D01*
X140160000Y-96678571D01*
X140160000Y-96361429D01*
X140098129Y-96050380D01*
X139976763Y-95757379D01*
X139800569Y-95493685D01*
X139576315Y-95269431D01*
X139312621Y-95093237D01*
X139019620Y-94971871D01*
X138708571Y-94910000D01*
X138391429Y-94910000D01*
X138080380Y-94971871D01*
X137787379Y-95093237D01*
X137523685Y-95269431D01*
X137299431Y-95493685D01*
X137123237Y-95757379D01*
X137001871Y-96050380D01*
X136940000Y-96361429D01*
X136940000Y-96678571D01*
X137001871Y-96989620D01*
X137123237Y-97282621D01*
X137299431Y-97546315D01*
X137340769Y-97587653D01*
X134756439Y-100171983D01*
X134721335Y-100165000D01*
X134681884Y-100165000D01*
X134800569Y-100046315D01*
X134976763Y-99782621D01*
X135098129Y-99489620D01*
X135160000Y-99178571D01*
X135160000Y-98861429D01*
X135098129Y-98550380D01*
X134976763Y-98257379D01*
X134800569Y-97993685D01*
X134576315Y-97769431D01*
X134312621Y-97593237D01*
X134019620Y-97471871D01*
X133708571Y-97410000D01*
X133391429Y-97410000D01*
X133080380Y-97471871D01*
X132787379Y-97593237D01*
X132523685Y-97769431D01*
X132299431Y-97993685D01*
X132205008Y-98135000D01*
X129623469Y-98135000D01*
X129580000Y-98130719D01*
X129536531Y-98135000D01*
X129536523Y-98135000D01*
X129421306Y-98146348D01*
X129406509Y-98147805D01*
X129355903Y-98163157D01*
X129239687Y-98198411D01*
X129085941Y-98280589D01*
X129085939Y-98280590D01*
X129085940Y-98280590D01*
X128984953Y-98363468D01*
X128984951Y-98363470D01*
X128951183Y-98391183D01*
X128923470Y-98424951D01*
X128476652Y-98871770D01*
X128427932Y-98626842D01*
X128315990Y-98356589D01*
X128153475Y-98113368D01*
X128021620Y-97981513D01*
X128094180Y-97959502D01*
X128204494Y-97900537D01*
X128301185Y-97821185D01*
X128380537Y-97724494D01*
X128439502Y-97614180D01*
X128475812Y-97494482D01*
X128488072Y-97370000D01*
X128488072Y-96361429D01*
X129440000Y-96361429D01*
X129440000Y-96678571D01*
X129501871Y-96989620D01*
X129623237Y-97282621D01*
X129799431Y-97546315D01*
X130023685Y-97770569D01*
X130287379Y-97946763D01*
X130580380Y-98068129D01*
X130891429Y-98130000D01*
X131208571Y-98130000D01*
X131519620Y-98068129D01*
X131812621Y-97946763D01*
X132076315Y-97770569D01*
X132300569Y-97546315D01*
X132476763Y-97282621D01*
X132598129Y-96989620D01*
X132660000Y-96678571D01*
X132660000Y-96361429D01*
X132598129Y-96050380D01*
X132476763Y-95757379D01*
X132300569Y-95493685D01*
X132076315Y-95269431D01*
X131812621Y-95093237D01*
X131519620Y-94971871D01*
X131208571Y-94910000D01*
X130891429Y-94910000D01*
X130580380Y-94971871D01*
X130287379Y-95093237D01*
X130023685Y-95269431D01*
X129799431Y-95493685D01*
X129623237Y-95757379D01*
X129501871Y-96050380D01*
X129440000Y-96361429D01*
X128488072Y-96361429D01*
X128488072Y-95670000D01*
X128475812Y-95545518D01*
X128439502Y-95425820D01*
X128380537Y-95315506D01*
X128301185Y-95218815D01*
X128204494Y-95139463D01*
X128094180Y-95080498D01*
X127974482Y-95044188D01*
X127850000Y-95031928D01*
X126415000Y-95031928D01*
X126415000Y-91339268D01*
X129215000Y-91339268D01*
X129215000Y-91700732D01*
X129285518Y-92055250D01*
X129423844Y-92389199D01*
X129624662Y-92689744D01*
X129880256Y-92945338D01*
X130180801Y-93146156D01*
X130514750Y-93284482D01*
X130869268Y-93355000D01*
X131230732Y-93355000D01*
X131585250Y-93284482D01*
X131919199Y-93146156D01*
X132219744Y-92945338D01*
X132475338Y-92689744D01*
X132676156Y-92389199D01*
X132814482Y-92055250D01*
X132885000Y-91700732D01*
X132885000Y-91339268D01*
X132814482Y-90984750D01*
X132676156Y-90650801D01*
X132475338Y-90350256D01*
X132219744Y-90094662D01*
X131919199Y-89893844D01*
X131585250Y-89755518D01*
X131230732Y-89685000D01*
X130869268Y-89685000D01*
X130514750Y-89755518D01*
X130180801Y-89893844D01*
X129880256Y-90094662D01*
X129624662Y-90350256D01*
X129423844Y-90650801D01*
X129285518Y-90984750D01*
X129215000Y-91339268D01*
X126415000Y-91339268D01*
X126415000Y-84505000D01*
X170765000Y-84505000D01*
X170765000Y-95031928D01*
G37*
X170765000Y-95031928D02*
X169330000Y-95031928D01*
X169205518Y-95044188D01*
X169085820Y-95080498D01*
X168975506Y-95139463D01*
X168878815Y-95218815D01*
X168799463Y-95315506D01*
X168740498Y-95425820D01*
X168704188Y-95545518D01*
X168691928Y-95670000D01*
X168691928Y-97370000D01*
X168704188Y-97494482D01*
X168740498Y-97614180D01*
X168799463Y-97724494D01*
X168878815Y-97821185D01*
X168975506Y-97900537D01*
X169085820Y-97959502D01*
X169158380Y-97981513D01*
X169026525Y-98113368D01*
X168864010Y-98356589D01*
X168752068Y-98626842D01*
X168695000Y-98913740D01*
X168695000Y-99206260D01*
X168752068Y-99493158D01*
X168864010Y-99763411D01*
X169026525Y-100006632D01*
X169233368Y-100213475D01*
X169476589Y-100375990D01*
X169746842Y-100487932D01*
X170033740Y-100545000D01*
X170326260Y-100545000D01*
X170613158Y-100487932D01*
X170765001Y-100425037D01*
X170765001Y-112811928D01*
X169330000Y-112811928D01*
X169205518Y-112824188D01*
X169085820Y-112860498D01*
X168975506Y-112919463D01*
X168878815Y-112998815D01*
X168799463Y-113095506D01*
X168740498Y-113205820D01*
X168718487Y-113278380D01*
X168586632Y-113146525D01*
X168343411Y-112984010D01*
X168073158Y-112872068D01*
X167786260Y-112815000D01*
X167493740Y-112815000D01*
X167206842Y-112872068D01*
X166936589Y-112984010D01*
X166693368Y-113146525D01*
X166486525Y-113353368D01*
X166324010Y-113596589D01*
X166212068Y-113866842D01*
X166155000Y-114153740D01*
X166155000Y-114446260D01*
X166212068Y-114733158D01*
X166274963Y-114885000D01*
X163401580Y-114885000D01*
X164105049Y-114181532D01*
X164138817Y-114153819D01*
X164249411Y-114019061D01*
X164330773Y-113866842D01*
X164331589Y-113865316D01*
X164382195Y-113698492D01*
X164386440Y-113655388D01*
X164424502Y-113584180D01*
X164460812Y-113464482D01*
X164473072Y-113340000D01*
X164473072Y-112687000D01*
X164587000Y-112687000D01*
X164587000Y-113816250D01*
X164745750Y-113975000D01*
X164785000Y-113978072D01*
X164909482Y-113965812D01*
X165029180Y-113929502D01*
X165139494Y-113870537D01*
X165236185Y-113791185D01*
X165315537Y-113694494D01*
X165374502Y-113584180D01*
X165410812Y-113464482D01*
X165423072Y-113340000D01*
X165420000Y-112845750D01*
X165261250Y-112687000D01*
X164587000Y-112687000D01*
X164473072Y-112687000D01*
X164473072Y-112413000D01*
X164587000Y-112413000D01*
X164587000Y-112433000D01*
X165261250Y-112433000D01*
X165420000Y-112274250D01*
X165423072Y-111780000D01*
X165410812Y-111655518D01*
X165374502Y-111535820D01*
X165315537Y-111425506D01*
X165236185Y-111328815D01*
X165139494Y-111249463D01*
X165065665Y-111210000D01*
X165139494Y-111170537D01*
X165236185Y-111091185D01*
X165315537Y-110994494D01*
X165374502Y-110884180D01*
X165410812Y-110764482D01*
X165423072Y-110640000D01*
X165423072Y-109080000D01*
X165410812Y-108955518D01*
X165374502Y-108835820D01*
X165345000Y-108780627D01*
X165345000Y-108623465D01*
X165349281Y-108579999D01*
X165345000Y-108536533D01*
X165345000Y-108536523D01*
X165332195Y-108406510D01*
X165281589Y-108239687D01*
X165199411Y-108085941D01*
X165088817Y-107951183D01*
X165055050Y-107923472D01*
X160676532Y-103544954D01*
X160648817Y-103511183D01*
X160514059Y-103400589D01*
X160360313Y-103318411D01*
X160193490Y-103267805D01*
X160063477Y-103255000D01*
X160063469Y-103255000D01*
X160020000Y-103250719D01*
X159976531Y-103255000D01*
X158614521Y-103255000D01*
X158594637Y-103225241D01*
X158394759Y-103025363D01*
X158159727Y-102868320D01*
X157898574Y-102760147D01*
X157621335Y-102705000D01*
X157338665Y-102705000D01*
X157061426Y-102760147D01*
X156800273Y-102868320D01*
X156565241Y-103025363D01*
X156365363Y-103225241D01*
X156208320Y-103460273D01*
X156100147Y-103721426D01*
X156045000Y-103998665D01*
X156045000Y-104281335D01*
X156100147Y-104558574D01*
X156208320Y-104819727D01*
X156365363Y-105054759D01*
X156565241Y-105254637D01*
X156797759Y-105410000D01*
X156565241Y-105565363D01*
X156365363Y-105765241D01*
X156208320Y-106000273D01*
X156100147Y-106261426D01*
X156045000Y-106538665D01*
X156045000Y-106821335D01*
X156100147Y-107098574D01*
X156208320Y-107359727D01*
X156365363Y-107594759D01*
X156565241Y-107794637D01*
X156800273Y-107951680D01*
X157061426Y-108059853D01*
X157338665Y-108115000D01*
X157621335Y-108115000D01*
X157623075Y-108114654D01*
X158591983Y-109083561D01*
X158585000Y-109118665D01*
X158585000Y-109401335D01*
X158640147Y-109678574D01*
X158748320Y-109939727D01*
X158905363Y-110174759D01*
X159105241Y-110374637D01*
X159305869Y-110508692D01*
X159278486Y-110523329D01*
X159206903Y-110767298D01*
X160020000Y-111580395D01*
X160034143Y-111566253D01*
X160213748Y-111745858D01*
X160199605Y-111760000D01*
X161012702Y-112573097D01*
X161256671Y-112501514D01*
X161377571Y-112246004D01*
X161446300Y-111971816D01*
X161460217Y-111689488D01*
X161418787Y-111409870D01*
X161323603Y-111143708D01*
X161256671Y-111018486D01*
X161012704Y-110946903D01*
X161128977Y-110830630D01*
X161043347Y-110745000D01*
X161607269Y-110745000D01*
X161609188Y-110764482D01*
X161645498Y-110884180D01*
X161704463Y-110994494D01*
X161783815Y-111091185D01*
X161880506Y-111170537D01*
X161954335Y-111210000D01*
X161880506Y-111249463D01*
X161783815Y-111328815D01*
X161704463Y-111425506D01*
X161645498Y-111535820D01*
X161609188Y-111655518D01*
X161596928Y-111780000D01*
X161600000Y-112274250D01*
X161758750Y-112433000D01*
X162433000Y-112433000D01*
X162433000Y-112413000D01*
X162546928Y-112413000D01*
X162546928Y-112707000D01*
X162433000Y-112707000D01*
X162433000Y-112687000D01*
X161758750Y-112687000D01*
X161600000Y-112845750D01*
X161596928Y-113340000D01*
X161604315Y-113415000D01*
X153594656Y-113415000D01*
X153553475Y-113353368D01*
X153346632Y-113146525D01*
X153285000Y-113105344D01*
X153285000Y-112954656D01*
X153346632Y-112913475D01*
X153507405Y-112752702D01*
X159206903Y-112752702D01*
X159278486Y-112996671D01*
X159533996Y-113117571D01*
X159808184Y-113186300D01*
X160090512Y-113200217D01*
X160370130Y-113158787D01*
X160636292Y-113063603D01*
X160761514Y-112996671D01*
X160833097Y-112752702D01*
X160020000Y-111939605D01*
X159206903Y-112752702D01*
X153507405Y-112752702D01*
X153553475Y-112706632D01*
X153715990Y-112463411D01*
X153827932Y-112193158D01*
X153885000Y-111906260D01*
X153885000Y-111830512D01*
X158579783Y-111830512D01*
X158621213Y-112110130D01*
X158716397Y-112376292D01*
X158783329Y-112501514D01*
X159027298Y-112573097D01*
X159840395Y-111760000D01*
X159027298Y-110946903D01*
X158783329Y-111018486D01*
X158662429Y-111273996D01*
X158593700Y-111548184D01*
X158579783Y-111830512D01*
X153885000Y-111830512D01*
X153885000Y-111613740D01*
X153827932Y-111326842D01*
X153715990Y-111056589D01*
X153553475Y-110813368D01*
X153346632Y-110606525D01*
X153103411Y-110444010D01*
X152833158Y-110332068D01*
X152588230Y-110283348D01*
X154265049Y-108606530D01*
X154298817Y-108578817D01*
X154333527Y-108536524D01*
X154409411Y-108444059D01*
X154491589Y-108290314D01*
X154542195Y-108123490D01*
X154546509Y-108079688D01*
X154555000Y-107993477D01*
X154555000Y-107993469D01*
X154559281Y-107950000D01*
X154555000Y-107906531D01*
X154555000Y-102734521D01*
X154584759Y-102714637D01*
X154784637Y-102514759D01*
X154941680Y-102279727D01*
X155049853Y-102018574D01*
X155105000Y-101741335D01*
X155105000Y-101458665D01*
X155049853Y-101181426D01*
X154941680Y-100920273D01*
X154784637Y-100685241D01*
X154584759Y-100485363D01*
X154459805Y-100401872D01*
X154656315Y-100270569D01*
X154880569Y-100046315D01*
X154974992Y-99905000D01*
X159613422Y-99905000D01*
X166211983Y-106503562D01*
X166205000Y-106538665D01*
X166205000Y-106821335D01*
X166260147Y-107098574D01*
X166368320Y-107359727D01*
X166525363Y-107594759D01*
X166725241Y-107794637D01*
X166960273Y-107951680D01*
X167221426Y-108059853D01*
X167498665Y-108115000D01*
X167781335Y-108115000D01*
X168058574Y-108059853D01*
X168319727Y-107951680D01*
X168554759Y-107794637D01*
X168754637Y-107594759D01*
X168911680Y-107359727D01*
X169019853Y-107098574D01*
X169075000Y-106821335D01*
X169075000Y-106538665D01*
X169019853Y-106261426D01*
X168911680Y-106000273D01*
X168754637Y-105765241D01*
X168554759Y-105565363D01*
X168322241Y-105410000D01*
X168554759Y-105254637D01*
X168754637Y-105054759D01*
X168911680Y-104819727D01*
X169019853Y-104558574D01*
X169075000Y-104281335D01*
X169075000Y-103998665D01*
X169019853Y-103721426D01*
X168911680Y-103460273D01*
X168754637Y-103225241D01*
X168554759Y-103025363D01*
X168526997Y-103006813D01*
X168525000Y-102986533D01*
X168525000Y-102986523D01*
X168512195Y-102856510D01*
X168461589Y-102689687D01*
X168379411Y-102535941D01*
X168268817Y-102401183D01*
X168235050Y-102373472D01*
X165206843Y-99345265D01*
X165240000Y-99178571D01*
X165240000Y-98861429D01*
X165178129Y-98550380D01*
X165056763Y-98257379D01*
X164880569Y-97993685D01*
X164656315Y-97769431D01*
X164392621Y-97593237D01*
X164099620Y-97471871D01*
X163788571Y-97410000D01*
X163471429Y-97410000D01*
X163160380Y-97471871D01*
X162867379Y-97593237D01*
X162603685Y-97769431D01*
X162379431Y-97993685D01*
X162203237Y-98257379D01*
X162081871Y-98550380D01*
X162020000Y-98861429D01*
X162020000Y-99178571D01*
X162081871Y-99489620D01*
X162203237Y-99782621D01*
X162379431Y-100046315D01*
X162603685Y-100270569D01*
X162867379Y-100446763D01*
X163160380Y-100568129D01*
X163471429Y-100630000D01*
X163788571Y-100630000D01*
X163955265Y-100596843D01*
X166554513Y-103196091D01*
X166525363Y-103225241D01*
X166368320Y-103460273D01*
X166260147Y-103721426D01*
X166205870Y-103994291D01*
X160636534Y-98424956D01*
X160608817Y-98391183D01*
X160474059Y-98280589D01*
X160320313Y-98198411D01*
X160153490Y-98147805D01*
X160023477Y-98135000D01*
X160023469Y-98135000D01*
X159980000Y-98130719D01*
X159936531Y-98135000D01*
X158704714Y-98135000D01*
X159007733Y-98093074D01*
X159307367Y-97989156D01*
X159475234Y-97899429D01*
X159567979Y-97637584D01*
X158630000Y-96699605D01*
X157692021Y-97637584D01*
X157784766Y-97899429D01*
X158070120Y-98037820D01*
X158376990Y-98117883D01*
X158667451Y-98135000D01*
X154974992Y-98135000D01*
X154880569Y-97993685D01*
X154656315Y-97769431D01*
X154392621Y-97593237D01*
X154099620Y-97471871D01*
X153788571Y-97410000D01*
X153471429Y-97410000D01*
X153160380Y-97471871D01*
X152867379Y-97593237D01*
X152603685Y-97769431D01*
X152379431Y-97993685D01*
X152203237Y-98257379D01*
X152081871Y-98550380D01*
X152020000Y-98861429D01*
X152020000Y-99178571D01*
X152081871Y-99489620D01*
X152203237Y-99782621D01*
X152379431Y-100046315D01*
X152603685Y-100270569D01*
X152840195Y-100428599D01*
X152755241Y-100485363D01*
X152555363Y-100685241D01*
X152398320Y-100920273D01*
X152290147Y-101181426D01*
X152235000Y-101458665D01*
X152235000Y-101741335D01*
X152290147Y-102018574D01*
X152398320Y-102279727D01*
X152555363Y-102514759D01*
X152755241Y-102714637D01*
X152785000Y-102734521D01*
X152785001Y-107583420D01*
X150078961Y-110289461D01*
X150006260Y-110275000D01*
X149713740Y-110275000D01*
X149641040Y-110289461D01*
X147976532Y-108624954D01*
X147948817Y-108591183D01*
X147814059Y-108480589D01*
X147660313Y-108398411D01*
X147493490Y-108347805D01*
X147363477Y-108335000D01*
X147363469Y-108335000D01*
X147320000Y-108330719D01*
X147276531Y-108335000D01*
X140834521Y-108335000D01*
X140814637Y-108305241D01*
X140614759Y-108105363D01*
X140382241Y-107950000D01*
X140614759Y-107794637D01*
X140814637Y-107594759D01*
X140971680Y-107359727D01*
X141079853Y-107098574D01*
X141135000Y-106821335D01*
X141135000Y-106538665D01*
X141079853Y-106261426D01*
X140971680Y-106000273D01*
X140814637Y-105765241D01*
X140614759Y-105565363D01*
X140382241Y-105410000D01*
X140614759Y-105254637D01*
X140814637Y-105054759D01*
X140834521Y-105025000D01*
X140926531Y-105025000D01*
X140970000Y-105029281D01*
X141013469Y-105025000D01*
X141013477Y-105025000D01*
X141143490Y-105012195D01*
X141310313Y-104961589D01*
X141464059Y-104879411D01*
X141598817Y-104768817D01*
X141626534Y-104735044D01*
X143333561Y-103028017D01*
X143368665Y-103035000D01*
X143651335Y-103035000D01*
X143928574Y-102979853D01*
X144189727Y-102871680D01*
X144424759Y-102714637D01*
X144624637Y-102514759D01*
X144781680Y-102279727D01*
X144889853Y-102018574D01*
X144945000Y-101741335D01*
X144945000Y-101458665D01*
X144889853Y-101181426D01*
X144781680Y-100920273D01*
X144624637Y-100685241D01*
X144424759Y-100485363D01*
X144339805Y-100428599D01*
X144576315Y-100270569D01*
X144800569Y-100046315D01*
X144976763Y-99782621D01*
X145098129Y-99489620D01*
X145160000Y-99178571D01*
X145160000Y-98861429D01*
X145098129Y-98550380D01*
X144976763Y-98257379D01*
X144800569Y-97993685D01*
X144576315Y-97769431D01*
X144312621Y-97593237D01*
X144019620Y-97471871D01*
X143708571Y-97410000D01*
X143391429Y-97410000D01*
X143080380Y-97471871D01*
X142787379Y-97593237D01*
X142523685Y-97769431D01*
X142299431Y-97993685D01*
X142123237Y-98257379D01*
X142001871Y-98550380D01*
X141940000Y-98861429D01*
X141940000Y-99178571D01*
X141972949Y-99344217D01*
X141946184Y-99366182D01*
X141935000Y-99379810D01*
X141935000Y-96361429D01*
X144440000Y-96361429D01*
X144440000Y-96678571D01*
X144501871Y-96989620D01*
X144623237Y-97282621D01*
X144799431Y-97546315D01*
X145023685Y-97770569D01*
X145287379Y-97946763D01*
X145580380Y-98068129D01*
X145891429Y-98130000D01*
X146208571Y-98130000D01*
X146519620Y-98068129D01*
X146812621Y-97946763D01*
X147076315Y-97770569D01*
X147300569Y-97546315D01*
X147476763Y-97282621D01*
X147598129Y-96989620D01*
X147660000Y-96678571D01*
X147660000Y-96361429D01*
X149520000Y-96361429D01*
X149520000Y-96678571D01*
X149581871Y-96989620D01*
X149703237Y-97282621D01*
X149879431Y-97546315D01*
X150103685Y-97770569D01*
X150367379Y-97946763D01*
X150660380Y-98068129D01*
X150971429Y-98130000D01*
X151288571Y-98130000D01*
X151599620Y-98068129D01*
X151892621Y-97946763D01*
X152156315Y-97770569D01*
X152380569Y-97546315D01*
X152556763Y-97282621D01*
X152678129Y-96989620D01*
X152740000Y-96678571D01*
X152740000Y-96583584D01*
X157013460Y-96583584D01*
X157056926Y-96897733D01*
X157160844Y-97197367D01*
X157250571Y-97365234D01*
X157512416Y-97457979D01*
X158450395Y-96520000D01*
X158809605Y-96520000D01*
X159747584Y-97457979D01*
X160009429Y-97365234D01*
X160147820Y-97079880D01*
X160227883Y-96773010D01*
X160246540Y-96456416D01*
X160233398Y-96361429D01*
X164520000Y-96361429D01*
X164520000Y-96678571D01*
X164581871Y-96989620D01*
X164703237Y-97282621D01*
X164879431Y-97546315D01*
X165103685Y-97770569D01*
X165367379Y-97946763D01*
X165660380Y-98068129D01*
X165971429Y-98130000D01*
X166288571Y-98130000D01*
X166599620Y-98068129D01*
X166892621Y-97946763D01*
X167156315Y-97770569D01*
X167380569Y-97546315D01*
X167556763Y-97282621D01*
X167678129Y-96989620D01*
X167740000Y-96678571D01*
X167740000Y-96361429D01*
X167678129Y-96050380D01*
X167556763Y-95757379D01*
X167380569Y-95493685D01*
X167156315Y-95269431D01*
X166892621Y-95093237D01*
X166599620Y-94971871D01*
X166288571Y-94910000D01*
X165971429Y-94910000D01*
X165660380Y-94971871D01*
X165367379Y-95093237D01*
X165103685Y-95269431D01*
X164879431Y-95493685D01*
X164703237Y-95757379D01*
X164581871Y-96050380D01*
X164520000Y-96361429D01*
X160233398Y-96361429D01*
X160203074Y-96142267D01*
X160099156Y-95842633D01*
X160009429Y-95674766D01*
X159747584Y-95582021D01*
X158809605Y-96520000D01*
X158450395Y-96520000D01*
X157512416Y-95582021D01*
X157250571Y-95674766D01*
X157112180Y-95960120D01*
X157032117Y-96266990D01*
X157013460Y-96583584D01*
X152740000Y-96583584D01*
X152740000Y-96361429D01*
X152678129Y-96050380D01*
X152556763Y-95757379D01*
X152380569Y-95493685D01*
X152289300Y-95402416D01*
X157692021Y-95402416D01*
X158630000Y-96340395D01*
X159567979Y-95402416D01*
X159475234Y-95140571D01*
X159189880Y-95002180D01*
X158883010Y-94922117D01*
X158566416Y-94903460D01*
X158252267Y-94946926D01*
X157952633Y-95050844D01*
X157784766Y-95140571D01*
X157692021Y-95402416D01*
X152289300Y-95402416D01*
X152156315Y-95269431D01*
X151892621Y-95093237D01*
X151599620Y-94971871D01*
X151288571Y-94910000D01*
X150971429Y-94910000D01*
X150660380Y-94971871D01*
X150367379Y-95093237D01*
X150103685Y-95269431D01*
X149879431Y-95493685D01*
X149703237Y-95757379D01*
X149581871Y-96050380D01*
X149520000Y-96361429D01*
X147660000Y-96361429D01*
X147598129Y-96050380D01*
X147476763Y-95757379D01*
X147300569Y-95493685D01*
X147076315Y-95269431D01*
X146812621Y-95093237D01*
X146519620Y-94971871D01*
X146208571Y-94910000D01*
X145891429Y-94910000D01*
X145580380Y-94971871D01*
X145287379Y-95093237D01*
X145023685Y-95269431D01*
X144799431Y-95493685D01*
X144623237Y-95757379D01*
X144501871Y-96050380D01*
X144440000Y-96361429D01*
X141935000Y-96361429D01*
X141935000Y-91339268D01*
X144215000Y-91339268D01*
X144215000Y-91700732D01*
X144285518Y-92055250D01*
X144423844Y-92389199D01*
X144624662Y-92689744D01*
X144880256Y-92945338D01*
X145180801Y-93146156D01*
X145514750Y-93284482D01*
X145869268Y-93355000D01*
X146230732Y-93355000D01*
X146585250Y-93284482D01*
X146919199Y-93146156D01*
X147219744Y-92945338D01*
X147475338Y-92689744D01*
X147676156Y-92389199D01*
X147814482Y-92055250D01*
X147885000Y-91700732D01*
X147885000Y-91339268D01*
X149295000Y-91339268D01*
X149295000Y-91700732D01*
X149365518Y-92055250D01*
X149503844Y-92389199D01*
X149704662Y-92689744D01*
X149960256Y-92945338D01*
X150260801Y-93146156D01*
X150594750Y-93284482D01*
X150949268Y-93355000D01*
X151310732Y-93355000D01*
X151665250Y-93284482D01*
X151999199Y-93146156D01*
X152299744Y-92945338D01*
X152555338Y-92689744D01*
X152756156Y-92389199D01*
X152894482Y-92055250D01*
X152965000Y-91700732D01*
X152965000Y-91339268D01*
X164295000Y-91339268D01*
X164295000Y-91700732D01*
X164365518Y-92055250D01*
X164503844Y-92389199D01*
X164704662Y-92689744D01*
X164960256Y-92945338D01*
X165260801Y-93146156D01*
X165594750Y-93284482D01*
X165949268Y-93355000D01*
X166310732Y-93355000D01*
X166665250Y-93284482D01*
X166999199Y-93146156D01*
X167299744Y-92945338D01*
X167555338Y-92689744D01*
X167756156Y-92389199D01*
X167894482Y-92055250D01*
X167965000Y-91700732D01*
X167965000Y-91339268D01*
X167894482Y-90984750D01*
X167756156Y-90650801D01*
X167555338Y-90350256D01*
X167299744Y-90094662D01*
X166999199Y-89893844D01*
X166665250Y-89755518D01*
X166310732Y-89685000D01*
X165949268Y-89685000D01*
X165594750Y-89755518D01*
X165260801Y-89893844D01*
X164960256Y-90094662D01*
X164704662Y-90350256D01*
X164503844Y-90650801D01*
X164365518Y-90984750D01*
X164295000Y-91339268D01*
X152965000Y-91339268D01*
X152894482Y-90984750D01*
X152756156Y-90650801D01*
X152555338Y-90350256D01*
X152299744Y-90094662D01*
X151999199Y-89893844D01*
X151665250Y-89755518D01*
X151310732Y-89685000D01*
X150949268Y-89685000D01*
X150594750Y-89755518D01*
X150260801Y-89893844D01*
X149960256Y-90094662D01*
X149704662Y-90350256D01*
X149503844Y-90650801D01*
X149365518Y-90984750D01*
X149295000Y-91339268D01*
X147885000Y-91339268D01*
X147814482Y-90984750D01*
X147676156Y-90650801D01*
X147475338Y-90350256D01*
X147219744Y-90094662D01*
X146919199Y-89893844D01*
X146585250Y-89755518D01*
X146230732Y-89685000D01*
X145869268Y-89685000D01*
X145514750Y-89755518D01*
X145180801Y-89893844D01*
X144880256Y-90094662D01*
X144624662Y-90350256D01*
X144423844Y-90650801D01*
X144285518Y-90984750D01*
X144215000Y-91339268D01*
X141935000Y-91339268D01*
X141935000Y-87864992D01*
X142076315Y-87770569D01*
X142209300Y-87637584D01*
X155192021Y-87637584D01*
X155284766Y-87899429D01*
X155570120Y-88037820D01*
X155876990Y-88117883D01*
X156193584Y-88136540D01*
X156507733Y-88093074D01*
X156807367Y-87989156D01*
X156975234Y-87899429D01*
X157067979Y-87637584D01*
X160192021Y-87637584D01*
X160284766Y-87899429D01*
X160570120Y-88037820D01*
X160876990Y-88117883D01*
X161193584Y-88136540D01*
X161507733Y-88093074D01*
X161807367Y-87989156D01*
X161975234Y-87899429D01*
X162067979Y-87637584D01*
X161130000Y-86699605D01*
X160192021Y-87637584D01*
X157067979Y-87637584D01*
X156130000Y-86699605D01*
X155192021Y-87637584D01*
X142209300Y-87637584D01*
X142300569Y-87546315D01*
X142476763Y-87282621D01*
X142598129Y-86989620D01*
X142660000Y-86678571D01*
X142660000Y-86583584D01*
X154513460Y-86583584D01*
X154556926Y-86897733D01*
X154660844Y-87197367D01*
X154750571Y-87365234D01*
X155012416Y-87457979D01*
X155950395Y-86520000D01*
X156309605Y-86520000D01*
X157247584Y-87457979D01*
X157509429Y-87365234D01*
X157647820Y-87079880D01*
X157727883Y-86773010D01*
X157739045Y-86583584D01*
X159513460Y-86583584D01*
X159556926Y-86897733D01*
X159660844Y-87197367D01*
X159750571Y-87365234D01*
X160012416Y-87457979D01*
X160950395Y-86520000D01*
X161309605Y-86520000D01*
X162247584Y-87457979D01*
X162509429Y-87365234D01*
X162647820Y-87079880D01*
X162727883Y-86773010D01*
X162746540Y-86456416D01*
X162703074Y-86142267D01*
X162599156Y-85842633D01*
X162509429Y-85674766D01*
X162247584Y-85582021D01*
X161309605Y-86520000D01*
X160950395Y-86520000D01*
X160012416Y-85582021D01*
X159750571Y-85674766D01*
X159612180Y-85960120D01*
X159532117Y-86266990D01*
X159513460Y-86583584D01*
X157739045Y-86583584D01*
X157746540Y-86456416D01*
X157703074Y-86142267D01*
X157599156Y-85842633D01*
X157509429Y-85674766D01*
X157247584Y-85582021D01*
X156309605Y-86520000D01*
X155950395Y-86520000D01*
X155012416Y-85582021D01*
X154750571Y-85674766D01*
X154612180Y-85960120D01*
X154532117Y-86266990D01*
X154513460Y-86583584D01*
X142660000Y-86583584D01*
X142660000Y-86361429D01*
X142598129Y-86050380D01*
X142476763Y-85757379D01*
X142300569Y-85493685D01*
X142209300Y-85402416D01*
X155192021Y-85402416D01*
X156130000Y-86340395D01*
X157067979Y-85402416D01*
X160192021Y-85402416D01*
X161130000Y-86340395D01*
X162067979Y-85402416D01*
X161975234Y-85140571D01*
X161689880Y-85002180D01*
X161383010Y-84922117D01*
X161066416Y-84903460D01*
X160752267Y-84946926D01*
X160452633Y-85050844D01*
X160284766Y-85140571D01*
X160192021Y-85402416D01*
X157067979Y-85402416D01*
X156975234Y-85140571D01*
X156689880Y-85002180D01*
X156383010Y-84922117D01*
X156066416Y-84903460D01*
X155752267Y-84946926D01*
X155452633Y-85050844D01*
X155284766Y-85140571D01*
X155192021Y-85402416D01*
X142209300Y-85402416D01*
X142076315Y-85269431D01*
X141812621Y-85093237D01*
X141519620Y-84971871D01*
X141208571Y-84910000D01*
X140891429Y-84910000D01*
X140580380Y-84971871D01*
X140287379Y-85093237D01*
X140023685Y-85269431D01*
X139799431Y-85493685D01*
X139705008Y-85635000D01*
X137394992Y-85635000D01*
X137300569Y-85493685D01*
X137076315Y-85269431D01*
X136812621Y-85093237D01*
X136519620Y-84971871D01*
X136208571Y-84910000D01*
X135891429Y-84910000D01*
X135580380Y-84971871D01*
X135287379Y-85093237D01*
X135023685Y-85269431D01*
X134799431Y-85493685D01*
X134623237Y-85757379D01*
X134501871Y-86050380D01*
X134440000Y-86361429D01*
X134440000Y-86678571D01*
X134501871Y-86989620D01*
X134623237Y-87282621D01*
X134799431Y-87546315D01*
X135023685Y-87770569D01*
X135287379Y-87946763D01*
X135580380Y-88068129D01*
X135891429Y-88130000D01*
X136208571Y-88130000D01*
X136519620Y-88068129D01*
X136812621Y-87946763D01*
X137076315Y-87770569D01*
X137300569Y-87546315D01*
X137394992Y-87405000D01*
X139705008Y-87405000D01*
X139799431Y-87546315D01*
X140023685Y-87770569D01*
X140165001Y-87864993D01*
X140165000Y-99883421D01*
X139876439Y-100171983D01*
X139841335Y-100165000D01*
X139558665Y-100165000D01*
X139281426Y-100220147D01*
X139020273Y-100328320D01*
X138785241Y-100485363D01*
X138585363Y-100685241D01*
X138451308Y-100885869D01*
X138436671Y-100858486D01*
X138192702Y-100786903D01*
X137379605Y-101600000D01*
X137393748Y-101614143D01*
X137214143Y-101793748D01*
X137200000Y-101779605D01*
X136386903Y-102592702D01*
X136458486Y-102836671D01*
X136713996Y-102957571D01*
X136988184Y-103026300D01*
X137020527Y-103027894D01*
X133514130Y-106534292D01*
X133459853Y-106261426D01*
X133351680Y-106000273D01*
X133194637Y-105765241D01*
X132996039Y-105566643D01*
X133004482Y-105565812D01*
X133124180Y-105529502D01*
X133234494Y-105470537D01*
X133331185Y-105391185D01*
X133410537Y-105294494D01*
X133469502Y-105184180D01*
X133505812Y-105064482D01*
X133518072Y-104940000D01*
X133518072Y-103340000D01*
X133505812Y-103215518D01*
X133469502Y-103095820D01*
X133410537Y-102985506D01*
X133331185Y-102888815D01*
X133234494Y-102809463D01*
X133124180Y-102750498D01*
X133004482Y-102714188D01*
X132880000Y-102701928D01*
X132861049Y-102701928D01*
X132893097Y-102592702D01*
X132080000Y-101779605D01*
X131266903Y-102592702D01*
X131298951Y-102701928D01*
X131280000Y-102701928D01*
X131155518Y-102714188D01*
X131035820Y-102750498D01*
X130925506Y-102809463D01*
X130828815Y-102888815D01*
X130810000Y-102911741D01*
X130791185Y-102888815D01*
X130694494Y-102809463D01*
X130584180Y-102750498D01*
X130464482Y-102714188D01*
X130340000Y-102701928D01*
X128740000Y-102701928D01*
X128615518Y-102714188D01*
X128495820Y-102750498D01*
X128385506Y-102809463D01*
X128288815Y-102888815D01*
X128209463Y-102985506D01*
X128150498Y-103095820D01*
X128114188Y-103215518D01*
X128101928Y-103340000D01*
X128101928Y-104940000D01*
X128114188Y-105064482D01*
X128150498Y-105184180D01*
X128209463Y-105294494D01*
X128288815Y-105391185D01*
X128385506Y-105470537D01*
X128495820Y-105529502D01*
X128615518Y-105565812D01*
X128740000Y-105578072D01*
X129726494Y-105578072D01*
X130651983Y-106503561D01*
X130645000Y-106538665D01*
X130645000Y-106821335D01*
X130651983Y-106856439D01*
X127176439Y-110331983D01*
X127141335Y-110325000D01*
X126858665Y-110325000D01*
X126581426Y-110380147D01*
X126415000Y-110449083D01*
X126415000Y-102910917D01*
X126581426Y-102979853D01*
X126858665Y-103035000D01*
X127141335Y-103035000D01*
X127418574Y-102979853D01*
X127679727Y-102871680D01*
X127914759Y-102714637D01*
X128114637Y-102514759D01*
X128271680Y-102279727D01*
X128379853Y-102018574D01*
X128435000Y-101741335D01*
X128435000Y-101670512D01*
X130639783Y-101670512D01*
X130681213Y-101950130D01*
X130776397Y-102216292D01*
X130843329Y-102341514D01*
X131087298Y-102413097D01*
X131900395Y-101600000D01*
X131087298Y-100786903D01*
X130843329Y-100858486D01*
X130722429Y-101113996D01*
X130653700Y-101388184D01*
X130639783Y-101670512D01*
X128435000Y-101670512D01*
X128435000Y-101458665D01*
X128428017Y-101423561D01*
X129946579Y-99905000D01*
X132205008Y-99905000D01*
X132299431Y-100046315D01*
X132471975Y-100218859D01*
X132291816Y-100173700D01*
X132009488Y-100159783D01*
X131729870Y-100201213D01*
X131463708Y-100296397D01*
X131338486Y-100363329D01*
X131266903Y-100607298D01*
X132080000Y-101420395D01*
X132893097Y-100607298D01*
X132854104Y-100474402D01*
X133080380Y-100568129D01*
X133391429Y-100630000D01*
X133520604Y-100630000D01*
X133465363Y-100685241D01*
X133331308Y-100885869D01*
X133316671Y-100858486D01*
X133072702Y-100786903D01*
X132259605Y-101600000D01*
X133072702Y-102413097D01*
X133316671Y-102341514D01*
X133330324Y-102312659D01*
X133465363Y-102514759D01*
X133665241Y-102714637D01*
X133900273Y-102871680D01*
X134161426Y-102979853D01*
X134438665Y-103035000D01*
X134721335Y-103035000D01*
X134998574Y-102979853D01*
X135259727Y-102871680D01*
X135494759Y-102714637D01*
X135694637Y-102514759D01*
X135851680Y-102279727D01*
X135887852Y-102192399D01*
X135896397Y-102216292D01*
X135963329Y-102341514D01*
X136207298Y-102413097D01*
X137020395Y-101600000D01*
X137006253Y-101585858D01*
X137185858Y-101406253D01*
X137200000Y-101420395D01*
X138013097Y-100607298D01*
X137941514Y-100363329D01*
X137686004Y-100242429D01*
X137411816Y-100173700D01*
X137265110Y-100166468D01*
X139145050Y-98286528D01*
X139178817Y-98258817D01*
X139228392Y-98198411D01*
X139289411Y-98124059D01*
X139335506Y-98037820D01*
X139371589Y-97970313D01*
X139395540Y-97891359D01*
X139576315Y-97770569D01*
X139800569Y-97546315D01*
X139976763Y-97282621D01*
X140098129Y-96989620D01*
X140160000Y-96678571D01*
X140160000Y-96361429D01*
X140098129Y-96050380D01*
X139976763Y-95757379D01*
X139800569Y-95493685D01*
X139576315Y-95269431D01*
X139312621Y-95093237D01*
X139019620Y-94971871D01*
X138708571Y-94910000D01*
X138391429Y-94910000D01*
X138080380Y-94971871D01*
X137787379Y-95093237D01*
X137523685Y-95269431D01*
X137299431Y-95493685D01*
X137123237Y-95757379D01*
X137001871Y-96050380D01*
X136940000Y-96361429D01*
X136940000Y-96678571D01*
X137001871Y-96989620D01*
X137123237Y-97282621D01*
X137299431Y-97546315D01*
X137340769Y-97587653D01*
X134756439Y-100171983D01*
X134721335Y-100165000D01*
X134681884Y-100165000D01*
X134800569Y-100046315D01*
X134976763Y-99782621D01*
X135098129Y-99489620D01*
X135160000Y-99178571D01*
X135160000Y-98861429D01*
X135098129Y-98550380D01*
X134976763Y-98257379D01*
X134800569Y-97993685D01*
X134576315Y-97769431D01*
X134312621Y-97593237D01*
X134019620Y-97471871D01*
X133708571Y-97410000D01*
X133391429Y-97410000D01*
X133080380Y-97471871D01*
X132787379Y-97593237D01*
X132523685Y-97769431D01*
X132299431Y-97993685D01*
X132205008Y-98135000D01*
X129623469Y-98135000D01*
X129580000Y-98130719D01*
X129536531Y-98135000D01*
X129536523Y-98135000D01*
X129421306Y-98146348D01*
X129406509Y-98147805D01*
X129355903Y-98163157D01*
X129239687Y-98198411D01*
X129085941Y-98280589D01*
X129085939Y-98280590D01*
X129085940Y-98280590D01*
X128984953Y-98363468D01*
X128984951Y-98363470D01*
X128951183Y-98391183D01*
X128923470Y-98424951D01*
X128476652Y-98871770D01*
X128427932Y-98626842D01*
X128315990Y-98356589D01*
X128153475Y-98113368D01*
X128021620Y-97981513D01*
X128094180Y-97959502D01*
X128204494Y-97900537D01*
X128301185Y-97821185D01*
X128380537Y-97724494D01*
X128439502Y-97614180D01*
X128475812Y-97494482D01*
X128488072Y-97370000D01*
X128488072Y-96361429D01*
X129440000Y-96361429D01*
X129440000Y-96678571D01*
X129501871Y-96989620D01*
X129623237Y-97282621D01*
X129799431Y-97546315D01*
X130023685Y-97770569D01*
X130287379Y-97946763D01*
X130580380Y-98068129D01*
X130891429Y-98130000D01*
X131208571Y-98130000D01*
X131519620Y-98068129D01*
X131812621Y-97946763D01*
X132076315Y-97770569D01*
X132300569Y-97546315D01*
X132476763Y-97282621D01*
X132598129Y-96989620D01*
X132660000Y-96678571D01*
X132660000Y-96361429D01*
X132598129Y-96050380D01*
X132476763Y-95757379D01*
X132300569Y-95493685D01*
X132076315Y-95269431D01*
X131812621Y-95093237D01*
X131519620Y-94971871D01*
X131208571Y-94910000D01*
X130891429Y-94910000D01*
X130580380Y-94971871D01*
X130287379Y-95093237D01*
X130023685Y-95269431D01*
X129799431Y-95493685D01*
X129623237Y-95757379D01*
X129501871Y-96050380D01*
X129440000Y-96361429D01*
X128488072Y-96361429D01*
X128488072Y-95670000D01*
X128475812Y-95545518D01*
X128439502Y-95425820D01*
X128380537Y-95315506D01*
X128301185Y-95218815D01*
X128204494Y-95139463D01*
X128094180Y-95080498D01*
X127974482Y-95044188D01*
X127850000Y-95031928D01*
X126415000Y-95031928D01*
X126415000Y-91339268D01*
X129215000Y-91339268D01*
X129215000Y-91700732D01*
X129285518Y-92055250D01*
X129423844Y-92389199D01*
X129624662Y-92689744D01*
X129880256Y-92945338D01*
X130180801Y-93146156D01*
X130514750Y-93284482D01*
X130869268Y-93355000D01*
X131230732Y-93355000D01*
X131585250Y-93284482D01*
X131919199Y-93146156D01*
X132219744Y-92945338D01*
X132475338Y-92689744D01*
X132676156Y-92389199D01*
X132814482Y-92055250D01*
X132885000Y-91700732D01*
X132885000Y-91339268D01*
X132814482Y-90984750D01*
X132676156Y-90650801D01*
X132475338Y-90350256D01*
X132219744Y-90094662D01*
X131919199Y-89893844D01*
X131585250Y-89755518D01*
X131230732Y-89685000D01*
X130869268Y-89685000D01*
X130514750Y-89755518D01*
X130180801Y-89893844D01*
X129880256Y-90094662D01*
X129624662Y-90350256D01*
X129423844Y-90650801D01*
X129285518Y-90984750D01*
X129215000Y-91339268D01*
X126415000Y-91339268D01*
X126415000Y-84505000D01*
X170765000Y-84505000D01*
X170765000Y-95031928D01*
G36*
X138320147Y-104558574D02*
G01*
X138428320Y-104819727D01*
X138585363Y-105054759D01*
X138785241Y-105254637D01*
X139017759Y-105410000D01*
X138785241Y-105565363D01*
X138585363Y-105765241D01*
X138428320Y-106000273D01*
X138320147Y-106261426D01*
X138265000Y-106538665D01*
X138265000Y-106821335D01*
X138320147Y-107098574D01*
X138428320Y-107359727D01*
X138585363Y-107594759D01*
X138785241Y-107794637D01*
X139017759Y-107950000D01*
X138785241Y-108105363D01*
X138585363Y-108305241D01*
X138428320Y-108540273D01*
X138320147Y-108801426D01*
X138265000Y-109078665D01*
X138265000Y-109361335D01*
X138320147Y-109638574D01*
X138428320Y-109899727D01*
X138585363Y-110134759D01*
X138785241Y-110334637D01*
X139020273Y-110491680D01*
X139030865Y-110496067D01*
X138844869Y-110607615D01*
X138636481Y-110796586D01*
X138468963Y-111022580D01*
X138348754Y-111276913D01*
X138308096Y-111410961D01*
X138430085Y-111633000D01*
X139573000Y-111633000D01*
X139573000Y-111613000D01*
X139827000Y-111613000D01*
X139827000Y-111633000D01*
X140969915Y-111633000D01*
X141091904Y-111410961D01*
X141051246Y-111276913D01*
X140931037Y-111022580D01*
X140763519Y-110796586D01*
X140555131Y-110607615D01*
X140369135Y-110496067D01*
X140379727Y-110491680D01*
X140614759Y-110334637D01*
X140814637Y-110134759D01*
X140834521Y-110105000D01*
X146953422Y-110105000D01*
X147192998Y-110344576D01*
X147192998Y-110439844D01*
X146963110Y-110318524D01*
X146815901Y-110363175D01*
X146553080Y-110488359D01*
X146319731Y-110662412D01*
X146243966Y-110746466D01*
X146219502Y-110665820D01*
X146160537Y-110555506D01*
X146081185Y-110458815D01*
X145984494Y-110379463D01*
X145874180Y-110320498D01*
X145754482Y-110284188D01*
X145630000Y-110271928D01*
X143930000Y-110271928D01*
X143805518Y-110284188D01*
X143685820Y-110320498D01*
X143575506Y-110379463D01*
X143478815Y-110458815D01*
X143399463Y-110555506D01*
X143340498Y-110665820D01*
X143304188Y-110785518D01*
X143291928Y-110910000D01*
X143291928Y-112610000D01*
X143304188Y-112734482D01*
X143340498Y-112854180D01*
X143399463Y-112964494D01*
X143453222Y-113030000D01*
X143399463Y-113095506D01*
X143340498Y-113205820D01*
X143304188Y-113325518D01*
X143291928Y-113450000D01*
X143291928Y-114885000D01*
X130905037Y-114885000D01*
X130967932Y-114733158D01*
X131025000Y-114446260D01*
X131025000Y-114153740D01*
X130967932Y-113866842D01*
X130855990Y-113596589D01*
X130693475Y-113353368D01*
X130486632Y-113146525D01*
X130267241Y-112999932D01*
X130454759Y-112874637D01*
X130654637Y-112674759D01*
X130810000Y-112442241D01*
X130965363Y-112674759D01*
X131165241Y-112874637D01*
X131400273Y-113031680D01*
X131661426Y-113139853D01*
X131938665Y-113195000D01*
X132221335Y-113195000D01*
X132498574Y-113139853D01*
X132759727Y-113031680D01*
X132994759Y-112874637D01*
X133194637Y-112674759D01*
X133351680Y-112439727D01*
X133459853Y-112178574D01*
X133473684Y-112109039D01*
X138308096Y-112109039D01*
X138348754Y-112243087D01*
X138468963Y-112497420D01*
X138636481Y-112723414D01*
X138844869Y-112912385D01*
X139086119Y-113057070D01*
X139350960Y-113151909D01*
X139573000Y-113030624D01*
X139573000Y-111887000D01*
X139827000Y-111887000D01*
X139827000Y-113030624D01*
X140049040Y-113151909D01*
X140313881Y-113057070D01*
X140555131Y-112912385D01*
X140763519Y-112723414D01*
X140931037Y-112497420D01*
X141051246Y-112243087D01*
X141091904Y-112109039D01*
X140969915Y-111887000D01*
X139827000Y-111887000D01*
X139573000Y-111887000D01*
X138430085Y-111887000D01*
X138308096Y-112109039D01*
X133473684Y-112109039D01*
X133515000Y-111901335D01*
X133515000Y-111618665D01*
X133459853Y-111341426D01*
X133351680Y-111080273D01*
X133194637Y-110845241D01*
X132994759Y-110645363D01*
X132762241Y-110490000D01*
X132994759Y-110334637D01*
X133194637Y-110134759D01*
X133351680Y-109899727D01*
X133459853Y-109638574D01*
X133515000Y-109361335D01*
X133515000Y-109078665D01*
X133508017Y-109043562D01*
X133536531Y-109015048D01*
X133536536Y-109015042D01*
X138265870Y-104285709D01*
X138320147Y-104558574D01*
G37*
X138320147Y-104558574D02*
X138428320Y-104819727D01*
X138585363Y-105054759D01*
X138785241Y-105254637D01*
X139017759Y-105410000D01*
X138785241Y-105565363D01*
X138585363Y-105765241D01*
X138428320Y-106000273D01*
X138320147Y-106261426D01*
X138265000Y-106538665D01*
X138265000Y-106821335D01*
X138320147Y-107098574D01*
X138428320Y-107359727D01*
X138585363Y-107594759D01*
X138785241Y-107794637D01*
X139017759Y-107950000D01*
X138785241Y-108105363D01*
X138585363Y-108305241D01*
X138428320Y-108540273D01*
X138320147Y-108801426D01*
X138265000Y-109078665D01*
X138265000Y-109361335D01*
X138320147Y-109638574D01*
X138428320Y-109899727D01*
X138585363Y-110134759D01*
X138785241Y-110334637D01*
X139020273Y-110491680D01*
X139030865Y-110496067D01*
X138844869Y-110607615D01*
X138636481Y-110796586D01*
X138468963Y-111022580D01*
X138348754Y-111276913D01*
X138308096Y-111410961D01*
X138430085Y-111633000D01*
X139573000Y-111633000D01*
X139573000Y-111613000D01*
X139827000Y-111613000D01*
X139827000Y-111633000D01*
X140969915Y-111633000D01*
X141091904Y-111410961D01*
X141051246Y-111276913D01*
X140931037Y-111022580D01*
X140763519Y-110796586D01*
X140555131Y-110607615D01*
X140369135Y-110496067D01*
X140379727Y-110491680D01*
X140614759Y-110334637D01*
X140814637Y-110134759D01*
X140834521Y-110105000D01*
X146953422Y-110105000D01*
X147192998Y-110344576D01*
X147192998Y-110439844D01*
X146963110Y-110318524D01*
X146815901Y-110363175D01*
X146553080Y-110488359D01*
X146319731Y-110662412D01*
X146243966Y-110746466D01*
X146219502Y-110665820D01*
X146160537Y-110555506D01*
X146081185Y-110458815D01*
X145984494Y-110379463D01*
X145874180Y-110320498D01*
X145754482Y-110284188D01*
X145630000Y-110271928D01*
X143930000Y-110271928D01*
X143805518Y-110284188D01*
X143685820Y-110320498D01*
X143575506Y-110379463D01*
X143478815Y-110458815D01*
X143399463Y-110555506D01*
X143340498Y-110665820D01*
X143304188Y-110785518D01*
X143291928Y-110910000D01*
X143291928Y-112610000D01*
X143304188Y-112734482D01*
X143340498Y-112854180D01*
X143399463Y-112964494D01*
X143453222Y-113030000D01*
X143399463Y-113095506D01*
X143340498Y-113205820D01*
X143304188Y-113325518D01*
X143291928Y-113450000D01*
X143291928Y-114885000D01*
X130905037Y-114885000D01*
X130967932Y-114733158D01*
X131025000Y-114446260D01*
X131025000Y-114153740D01*
X130967932Y-113866842D01*
X130855990Y-113596589D01*
X130693475Y-113353368D01*
X130486632Y-113146525D01*
X130267241Y-112999932D01*
X130454759Y-112874637D01*
X130654637Y-112674759D01*
X130810000Y-112442241D01*
X130965363Y-112674759D01*
X131165241Y-112874637D01*
X131400273Y-113031680D01*
X131661426Y-113139853D01*
X131938665Y-113195000D01*
X132221335Y-113195000D01*
X132498574Y-113139853D01*
X132759727Y-113031680D01*
X132994759Y-112874637D01*
X133194637Y-112674759D01*
X133351680Y-112439727D01*
X133459853Y-112178574D01*
X133473684Y-112109039D01*
X138308096Y-112109039D01*
X138348754Y-112243087D01*
X138468963Y-112497420D01*
X138636481Y-112723414D01*
X138844869Y-112912385D01*
X139086119Y-113057070D01*
X139350960Y-113151909D01*
X139573000Y-113030624D01*
X139573000Y-111887000D01*
X139827000Y-111887000D01*
X139827000Y-113030624D01*
X140049040Y-113151909D01*
X140313881Y-113057070D01*
X140555131Y-112912385D01*
X140763519Y-112723414D01*
X140931037Y-112497420D01*
X141051246Y-112243087D01*
X141091904Y-112109039D01*
X140969915Y-111887000D01*
X139827000Y-111887000D01*
X139573000Y-111887000D01*
X138430085Y-111887000D01*
X138308096Y-112109039D01*
X133473684Y-112109039D01*
X133515000Y-111901335D01*
X133515000Y-111618665D01*
X133459853Y-111341426D01*
X133351680Y-111080273D01*
X133194637Y-110845241D01*
X132994759Y-110645363D01*
X132762241Y-110490000D01*
X132994759Y-110334637D01*
X133194637Y-110134759D01*
X133351680Y-109899727D01*
X133459853Y-109638574D01*
X133515000Y-109361335D01*
X133515000Y-109078665D01*
X133508017Y-109043562D01*
X133536531Y-109015048D01*
X133536536Y-109015042D01*
X138265870Y-104285709D01*
X138320147Y-104558574D01*
G36*
X147447000Y-111633000D02*
G01*
X147467000Y-111633000D01*
X147467000Y-111887000D01*
X147447000Y-111887000D01*
X147447000Y-114173000D01*
X147467000Y-114173000D01*
X147467000Y-114427000D01*
X147447000Y-114427000D01*
X147447000Y-114447000D01*
X147193000Y-114447000D01*
X147193000Y-114427000D01*
X147173000Y-114427000D01*
X147173000Y-114173000D01*
X147193000Y-114173000D01*
X147193000Y-111887000D01*
X147173000Y-111887000D01*
X147173000Y-111633000D01*
X147193000Y-111633000D01*
X147193000Y-111613000D01*
X147447000Y-111613000D01*
X147447000Y-111633000D01*
G37*
X147447000Y-111633000D02*
X147467000Y-111633000D01*
X147467000Y-111887000D01*
X147447000Y-111887000D01*
X147447000Y-114173000D01*
X147467000Y-114173000D01*
X147467000Y-114427000D01*
X147447000Y-114427000D01*
X147447000Y-114447000D01*
X147193000Y-114447000D01*
X147193000Y-114427000D01*
X147173000Y-114427000D01*
X147173000Y-114173000D01*
X147193000Y-114173000D01*
X147193000Y-111887000D01*
X147173000Y-111887000D01*
X147173000Y-111633000D01*
X147193000Y-111633000D01*
X147193000Y-111613000D01*
X147447000Y-111613000D01*
X147447000Y-111633000D01*
M02*
