M48
; DRILL file {KiCad (5.1.5)-3} date 2020-09-08 5:43:19 PM
; FORMAT={-:-/ absolute / inch / decimal}
; #@! TF.CreationDate,2020-09-08T17:43:19-04:00
; #@! TF.GenerationSoftware,Kicad,Pcbnew,(5.1.5)-3
; #@! TF.FileFunction,Plated,1,2,PTH
FMAT,2
INCH
T1C0.0315
T2C0.0394
T3C0.0512
%
G90
G05
T1
X5.65Y-4.0
X6.3Y-4.3016
X6.3Y-4.4
X5.2Y-4.0
X5.2984Y-4.0
X5.1Y-4.1
X5.1Y-4.4
X5.2Y-4.1
X5.2Y-4.2
X5.2Y-4.3
X5.2Y-4.4
X5.5Y-4.1
X5.5Y-4.2
X5.5Y-4.3
X5.5Y-4.4
X5.0Y-4.0
X5.0Y-4.4
X6.2Y-4.1
X6.6Y-4.1
X6.05Y-4.0
X6.2Y-4.2
X6.6Y-4.2
X5.4016Y-4.0
X5.5Y-4.0
T2
X6.7Y-3.8
X6.7Y-3.9
X5.0Y-4.5
X5.1Y-4.5
X5.0Y-3.8
X5.0Y-3.9
X5.7Y-4.4
X5.8Y-4.4
X5.9Y-4.4
X6.0Y-4.4
X5.7Y-4.5
X5.8Y-4.5
X5.9Y-4.5
X6.0Y-4.5
X6.6Y-4.5
X6.7Y-4.5
T3
X5.1594Y-3.8
X5.2579Y-3.8984
X5.3563Y-3.4063
X5.4547Y-3.8
X5.5531Y-3.4063
X5.6516Y-3.8984
X5.75Y-3.8
X5.95Y-3.8
X6.0484Y-3.8984
X6.1469Y-3.4063
X6.2453Y-3.8
X6.3437Y-3.4063
X6.4421Y-3.8984
X6.5406Y-3.8
T0
M30
