G04 #@! TF.GenerationSoftware,KiCad,Pcbnew,(5.0.0)*
G04 #@! TF.CreationDate,2020-09-09T22:39:45-04:00*
G04 #@! TF.ProjectId,breadboard_midi,6272656164626F6172645F6D6964692E,rev?*
G04 #@! TF.SameCoordinates,Original*
G04 #@! TF.FileFunction,Soldermask,Top*
G04 #@! TF.FilePolarity,Negative*
%FSLAX46Y46*%
G04 Gerber Fmt 4.6, Leading zero omitted, Abs format (unit mm)*
G04 Created by KiCad (PCBNEW (5.0.0)) date 09/09/20 22:39:45*
%MOMM*%
%LPD*%
G01*
G04 APERTURE LIST*
%ADD10C,0.100000*%
G04 APERTURE END LIST*
D10*
G36*
X171081000Y-115201000D02*
X169279000Y-115201000D01*
X169279000Y-113399000D01*
X171081000Y-113399000D01*
X171081000Y-115201000D01*
X171081000Y-115201000D01*
G37*
G36*
X167750443Y-113405519D02*
X167816627Y-113412037D01*
X167929853Y-113446384D01*
X167986467Y-113463557D01*
X168125087Y-113537652D01*
X168142991Y-113547222D01*
X168178729Y-113576552D01*
X168280186Y-113659814D01*
X168363448Y-113761271D01*
X168392778Y-113797009D01*
X168392779Y-113797011D01*
X168476443Y-113953533D01*
X168476443Y-113953534D01*
X168527963Y-114123373D01*
X168545359Y-114300000D01*
X168527963Y-114476627D01*
X168493616Y-114589853D01*
X168476443Y-114646467D01*
X168402348Y-114785087D01*
X168392778Y-114802991D01*
X168363448Y-114838729D01*
X168280186Y-114940186D01*
X168178729Y-115023448D01*
X168142991Y-115052778D01*
X168142989Y-115052779D01*
X167986467Y-115136443D01*
X167929853Y-115153616D01*
X167816627Y-115187963D01*
X167750442Y-115194482D01*
X167684260Y-115201000D01*
X167595740Y-115201000D01*
X167529558Y-115194482D01*
X167463373Y-115187963D01*
X167350147Y-115153616D01*
X167293533Y-115136443D01*
X167137011Y-115052779D01*
X167137009Y-115052778D01*
X167101271Y-115023448D01*
X166999814Y-114940186D01*
X166916552Y-114838729D01*
X166887222Y-114802991D01*
X166877652Y-114785087D01*
X166803557Y-114646467D01*
X166786384Y-114589853D01*
X166752037Y-114476627D01*
X166734641Y-114300000D01*
X166752037Y-114123373D01*
X166803557Y-113953534D01*
X166803557Y-113953533D01*
X166887221Y-113797011D01*
X166887222Y-113797009D01*
X166916552Y-113761271D01*
X166999814Y-113659814D01*
X167101271Y-113576552D01*
X167137009Y-113547222D01*
X167154913Y-113537652D01*
X167293533Y-113463557D01*
X167350147Y-113446384D01*
X167463373Y-113412037D01*
X167529557Y-113405519D01*
X167595740Y-113399000D01*
X167684260Y-113399000D01*
X167750443Y-113405519D01*
X167750443Y-113405519D01*
G37*
G36*
X145681000Y-115201000D02*
X143879000Y-115201000D01*
X143879000Y-113399000D01*
X145681000Y-113399000D01*
X145681000Y-115201000D01*
X145681000Y-115201000D01*
G37*
G36*
X147430443Y-113405519D02*
X147496627Y-113412037D01*
X147609853Y-113446384D01*
X147666467Y-113463557D01*
X147805087Y-113537652D01*
X147822991Y-113547222D01*
X147858729Y-113576552D01*
X147960186Y-113659814D01*
X148043448Y-113761271D01*
X148072778Y-113797009D01*
X148072779Y-113797011D01*
X148156443Y-113953533D01*
X148156443Y-113953534D01*
X148207963Y-114123373D01*
X148225359Y-114300000D01*
X148207963Y-114476627D01*
X148173616Y-114589853D01*
X148156443Y-114646467D01*
X148082348Y-114785087D01*
X148072778Y-114802991D01*
X148043448Y-114838729D01*
X147960186Y-114940186D01*
X147858729Y-115023448D01*
X147822991Y-115052778D01*
X147822989Y-115052779D01*
X147666467Y-115136443D01*
X147609853Y-115153616D01*
X147496627Y-115187963D01*
X147430442Y-115194482D01*
X147364260Y-115201000D01*
X147275740Y-115201000D01*
X147209558Y-115194482D01*
X147143373Y-115187963D01*
X147030147Y-115153616D01*
X146973533Y-115136443D01*
X146817011Y-115052779D01*
X146817009Y-115052778D01*
X146781271Y-115023448D01*
X146679814Y-114940186D01*
X146596552Y-114838729D01*
X146567222Y-114802991D01*
X146557652Y-114785087D01*
X146483557Y-114646467D01*
X146466384Y-114589853D01*
X146432037Y-114476627D01*
X146414641Y-114300000D01*
X146432037Y-114123373D01*
X146483557Y-113953534D01*
X146483557Y-113953533D01*
X146567221Y-113797011D01*
X146567222Y-113797009D01*
X146596552Y-113761271D01*
X146679814Y-113659814D01*
X146781271Y-113576552D01*
X146817009Y-113547222D01*
X146834913Y-113537652D01*
X146973533Y-113463557D01*
X147030147Y-113446384D01*
X147143373Y-113412037D01*
X147209557Y-113405519D01*
X147275740Y-113399000D01*
X147364260Y-113399000D01*
X147430443Y-113405519D01*
X147430443Y-113405519D01*
G37*
G36*
X149970443Y-113405519D02*
X150036627Y-113412037D01*
X150149853Y-113446384D01*
X150206467Y-113463557D01*
X150345087Y-113537652D01*
X150362991Y-113547222D01*
X150398729Y-113576552D01*
X150500186Y-113659814D01*
X150583448Y-113761271D01*
X150612778Y-113797009D01*
X150612779Y-113797011D01*
X150696443Y-113953533D01*
X150696443Y-113953534D01*
X150747963Y-114123373D01*
X150765359Y-114300000D01*
X150747963Y-114476627D01*
X150713616Y-114589853D01*
X150696443Y-114646467D01*
X150622348Y-114785087D01*
X150612778Y-114802991D01*
X150583448Y-114838729D01*
X150500186Y-114940186D01*
X150398729Y-115023448D01*
X150362991Y-115052778D01*
X150362989Y-115052779D01*
X150206467Y-115136443D01*
X150149853Y-115153616D01*
X150036627Y-115187963D01*
X149970442Y-115194482D01*
X149904260Y-115201000D01*
X149815740Y-115201000D01*
X149749558Y-115194482D01*
X149683373Y-115187963D01*
X149570147Y-115153616D01*
X149513533Y-115136443D01*
X149357011Y-115052779D01*
X149357009Y-115052778D01*
X149321271Y-115023448D01*
X149219814Y-114940186D01*
X149136552Y-114838729D01*
X149107222Y-114802991D01*
X149097652Y-114785087D01*
X149023557Y-114646467D01*
X149006384Y-114589853D01*
X148972037Y-114476627D01*
X148954641Y-114300000D01*
X148972037Y-114123373D01*
X149023557Y-113953534D01*
X149023557Y-113953533D01*
X149107221Y-113797011D01*
X149107222Y-113797009D01*
X149136552Y-113761271D01*
X149219814Y-113659814D01*
X149321271Y-113576552D01*
X149357009Y-113547222D01*
X149374913Y-113537652D01*
X149513533Y-113463557D01*
X149570147Y-113446384D01*
X149683373Y-113412037D01*
X149749557Y-113405519D01*
X149815740Y-113399000D01*
X149904260Y-113399000D01*
X149970443Y-113405519D01*
X149970443Y-113405519D01*
G37*
G36*
X127901000Y-115201000D02*
X126099000Y-115201000D01*
X126099000Y-113399000D01*
X127901000Y-113399000D01*
X127901000Y-115201000D01*
X127901000Y-115201000D01*
G37*
G36*
X129650443Y-113405519D02*
X129716627Y-113412037D01*
X129829853Y-113446384D01*
X129886467Y-113463557D01*
X130025087Y-113537652D01*
X130042991Y-113547222D01*
X130078729Y-113576552D01*
X130180186Y-113659814D01*
X130263448Y-113761271D01*
X130292778Y-113797009D01*
X130292779Y-113797011D01*
X130376443Y-113953533D01*
X130376443Y-113953534D01*
X130427963Y-114123373D01*
X130445359Y-114300000D01*
X130427963Y-114476627D01*
X130393616Y-114589853D01*
X130376443Y-114646467D01*
X130302348Y-114785087D01*
X130292778Y-114802991D01*
X130263448Y-114838729D01*
X130180186Y-114940186D01*
X130078729Y-115023448D01*
X130042991Y-115052778D01*
X130042989Y-115052779D01*
X129886467Y-115136443D01*
X129829853Y-115153616D01*
X129716627Y-115187963D01*
X129650442Y-115194482D01*
X129584260Y-115201000D01*
X129495740Y-115201000D01*
X129429558Y-115194482D01*
X129363373Y-115187963D01*
X129250147Y-115153616D01*
X129193533Y-115136443D01*
X129037011Y-115052779D01*
X129037009Y-115052778D01*
X129001271Y-115023448D01*
X128899814Y-114940186D01*
X128816552Y-114838729D01*
X128787222Y-114802991D01*
X128777652Y-114785087D01*
X128703557Y-114646467D01*
X128686384Y-114589853D01*
X128652037Y-114476627D01*
X128634641Y-114300000D01*
X128652037Y-114123373D01*
X128703557Y-113953534D01*
X128703557Y-113953533D01*
X128787221Y-113797011D01*
X128787222Y-113797009D01*
X128816552Y-113761271D01*
X128899814Y-113659814D01*
X129001271Y-113576552D01*
X129037009Y-113547222D01*
X129054913Y-113537652D01*
X129193533Y-113463557D01*
X129250147Y-113446384D01*
X129363373Y-113412037D01*
X129429557Y-113405519D01*
X129495740Y-113399000D01*
X129584260Y-113399000D01*
X129650443Y-113405519D01*
X129650443Y-113405519D01*
G37*
G36*
X152510443Y-113405519D02*
X152576627Y-113412037D01*
X152689853Y-113446384D01*
X152746467Y-113463557D01*
X152885087Y-113537652D01*
X152902991Y-113547222D01*
X152938729Y-113576552D01*
X153040186Y-113659814D01*
X153123448Y-113761271D01*
X153152778Y-113797009D01*
X153152779Y-113797011D01*
X153236443Y-113953533D01*
X153236443Y-113953534D01*
X153287963Y-114123373D01*
X153305359Y-114300000D01*
X153287963Y-114476627D01*
X153253616Y-114589853D01*
X153236443Y-114646467D01*
X153162348Y-114785087D01*
X153152778Y-114802991D01*
X153123448Y-114838729D01*
X153040186Y-114940186D01*
X152938729Y-115023448D01*
X152902991Y-115052778D01*
X152902989Y-115052779D01*
X152746467Y-115136443D01*
X152689853Y-115153616D01*
X152576627Y-115187963D01*
X152510442Y-115194482D01*
X152444260Y-115201000D01*
X152355740Y-115201000D01*
X152289558Y-115194482D01*
X152223373Y-115187963D01*
X152110147Y-115153616D01*
X152053533Y-115136443D01*
X151897011Y-115052779D01*
X151897009Y-115052778D01*
X151861271Y-115023448D01*
X151759814Y-114940186D01*
X151676552Y-114838729D01*
X151647222Y-114802991D01*
X151637652Y-114785087D01*
X151563557Y-114646467D01*
X151546384Y-114589853D01*
X151512037Y-114476627D01*
X151494641Y-114300000D01*
X151512037Y-114123373D01*
X151563557Y-113953534D01*
X151563557Y-113953533D01*
X151647221Y-113797011D01*
X151647222Y-113797009D01*
X151676552Y-113761271D01*
X151759814Y-113659814D01*
X151861271Y-113576552D01*
X151897009Y-113547222D01*
X151914913Y-113537652D01*
X152053533Y-113463557D01*
X152110147Y-113446384D01*
X152223373Y-113412037D01*
X152289557Y-113405519D01*
X152355740Y-113399000D01*
X152444260Y-113399000D01*
X152510443Y-113405519D01*
X152510443Y-113405519D01*
G37*
G36*
X164836000Y-113391000D02*
X162184000Y-113391000D01*
X162184000Y-111729000D01*
X164836000Y-111729000D01*
X164836000Y-113391000D01*
X164836000Y-113391000D01*
G37*
G36*
X145681000Y-112661000D02*
X143879000Y-112661000D01*
X143879000Y-110859000D01*
X145681000Y-110859000D01*
X145681000Y-112661000D01*
X145681000Y-112661000D01*
G37*
G36*
X147430442Y-110865518D02*
X147496627Y-110872037D01*
X147609853Y-110906384D01*
X147666467Y-110923557D01*
X147753311Y-110969977D01*
X147822991Y-111007222D01*
X147858729Y-111036552D01*
X147960186Y-111119814D01*
X148040369Y-111217519D01*
X148072778Y-111257009D01*
X148072779Y-111257011D01*
X148156443Y-111413533D01*
X148173616Y-111470147D01*
X148207963Y-111583373D01*
X148225359Y-111760000D01*
X148207963Y-111936627D01*
X148186243Y-112008228D01*
X148156443Y-112106467D01*
X148087698Y-112235078D01*
X148072778Y-112262991D01*
X148043448Y-112298729D01*
X147960186Y-112400186D01*
X147858729Y-112483448D01*
X147822991Y-112512778D01*
X147822989Y-112512779D01*
X147666467Y-112596443D01*
X147659069Y-112598687D01*
X147496627Y-112647963D01*
X147430442Y-112654482D01*
X147364260Y-112661000D01*
X147275740Y-112661000D01*
X147209558Y-112654482D01*
X147143373Y-112647963D01*
X146980931Y-112598687D01*
X146973533Y-112596443D01*
X146817011Y-112512779D01*
X146817009Y-112512778D01*
X146781271Y-112483448D01*
X146679814Y-112400186D01*
X146596552Y-112298729D01*
X146567222Y-112262991D01*
X146552302Y-112235078D01*
X146483557Y-112106467D01*
X146453757Y-112008228D01*
X146432037Y-111936627D01*
X146414641Y-111760000D01*
X146432037Y-111583373D01*
X146466384Y-111470147D01*
X146483557Y-111413533D01*
X146567221Y-111257011D01*
X146567222Y-111257009D01*
X146599631Y-111217519D01*
X146679814Y-111119814D01*
X146781271Y-111036552D01*
X146817009Y-111007222D01*
X146886689Y-110969977D01*
X146973533Y-110923557D01*
X147030147Y-110906384D01*
X147143373Y-110872037D01*
X147209558Y-110865518D01*
X147275740Y-110859000D01*
X147364260Y-110859000D01*
X147430442Y-110865518D01*
X147430442Y-110865518D01*
G37*
G36*
X149970442Y-110865518D02*
X150036627Y-110872037D01*
X150149853Y-110906384D01*
X150206467Y-110923557D01*
X150293311Y-110969977D01*
X150362991Y-111007222D01*
X150398729Y-111036552D01*
X150500186Y-111119814D01*
X150580369Y-111217519D01*
X150612778Y-111257009D01*
X150612779Y-111257011D01*
X150696443Y-111413533D01*
X150713616Y-111470147D01*
X150747963Y-111583373D01*
X150765359Y-111760000D01*
X150747963Y-111936627D01*
X150726243Y-112008228D01*
X150696443Y-112106467D01*
X150627698Y-112235078D01*
X150612778Y-112262991D01*
X150583448Y-112298729D01*
X150500186Y-112400186D01*
X150398729Y-112483448D01*
X150362991Y-112512778D01*
X150362989Y-112512779D01*
X150206467Y-112596443D01*
X150199069Y-112598687D01*
X150036627Y-112647963D01*
X149970442Y-112654482D01*
X149904260Y-112661000D01*
X149815740Y-112661000D01*
X149749558Y-112654482D01*
X149683373Y-112647963D01*
X149520931Y-112598687D01*
X149513533Y-112596443D01*
X149357011Y-112512779D01*
X149357009Y-112512778D01*
X149321271Y-112483448D01*
X149219814Y-112400186D01*
X149136552Y-112298729D01*
X149107222Y-112262991D01*
X149092302Y-112235078D01*
X149023557Y-112106467D01*
X148993757Y-112008228D01*
X148972037Y-111936627D01*
X148954641Y-111760000D01*
X148972037Y-111583373D01*
X149006384Y-111470147D01*
X149023557Y-111413533D01*
X149107221Y-111257011D01*
X149107222Y-111257009D01*
X149139631Y-111217519D01*
X149219814Y-111119814D01*
X149321271Y-111036552D01*
X149357009Y-111007222D01*
X149426689Y-110969977D01*
X149513533Y-110923557D01*
X149570147Y-110906384D01*
X149683373Y-110872037D01*
X149749558Y-110865518D01*
X149815740Y-110859000D01*
X149904260Y-110859000D01*
X149970442Y-110865518D01*
X149970442Y-110865518D01*
G37*
G36*
X152510442Y-110865518D02*
X152576627Y-110872037D01*
X152689853Y-110906384D01*
X152746467Y-110923557D01*
X152833311Y-110969977D01*
X152902991Y-111007222D01*
X152938729Y-111036552D01*
X153040186Y-111119814D01*
X153120369Y-111217519D01*
X153152778Y-111257009D01*
X153152779Y-111257011D01*
X153236443Y-111413533D01*
X153253616Y-111470147D01*
X153287963Y-111583373D01*
X153305359Y-111760000D01*
X153287963Y-111936627D01*
X153266243Y-112008228D01*
X153236443Y-112106467D01*
X153167698Y-112235078D01*
X153152778Y-112262991D01*
X153123448Y-112298729D01*
X153040186Y-112400186D01*
X152938729Y-112483448D01*
X152902991Y-112512778D01*
X152902989Y-112512779D01*
X152746467Y-112596443D01*
X152739069Y-112598687D01*
X152576627Y-112647963D01*
X152510442Y-112654482D01*
X152444260Y-112661000D01*
X152355740Y-112661000D01*
X152289558Y-112654482D01*
X152223373Y-112647963D01*
X152060931Y-112598687D01*
X152053533Y-112596443D01*
X151897011Y-112512779D01*
X151897009Y-112512778D01*
X151861271Y-112483448D01*
X151759814Y-112400186D01*
X151676552Y-112298729D01*
X151647222Y-112262991D01*
X151632302Y-112235078D01*
X151563557Y-112106467D01*
X151533757Y-112008228D01*
X151512037Y-111936627D01*
X151494641Y-111760000D01*
X151512037Y-111583373D01*
X151546384Y-111470147D01*
X151563557Y-111413533D01*
X151647221Y-111257011D01*
X151647222Y-111257009D01*
X151679631Y-111217519D01*
X151759814Y-111119814D01*
X151861271Y-111036552D01*
X151897009Y-111007222D01*
X151966689Y-110969977D01*
X152053533Y-110923557D01*
X152110147Y-110906384D01*
X152223373Y-110872037D01*
X152289558Y-110865518D01*
X152355740Y-110859000D01*
X152444260Y-110859000D01*
X152510442Y-110865518D01*
X152510442Y-110865518D01*
G37*
G36*
X127248228Y-110941703D02*
X127403100Y-111005853D01*
X127542481Y-111098985D01*
X127661015Y-111217519D01*
X127754147Y-111356900D01*
X127818297Y-111511772D01*
X127851000Y-111676184D01*
X127851000Y-111843816D01*
X127818297Y-112008228D01*
X127754147Y-112163100D01*
X127661015Y-112302481D01*
X127542481Y-112421015D01*
X127403100Y-112514147D01*
X127248228Y-112578297D01*
X127083816Y-112611000D01*
X126916184Y-112611000D01*
X126751772Y-112578297D01*
X126596900Y-112514147D01*
X126457519Y-112421015D01*
X126338985Y-112302481D01*
X126245853Y-112163100D01*
X126181703Y-112008228D01*
X126149000Y-111843816D01*
X126149000Y-111676184D01*
X126181703Y-111511772D01*
X126245853Y-111356900D01*
X126338985Y-111217519D01*
X126457519Y-111098985D01*
X126596900Y-111005853D01*
X126751772Y-110941703D01*
X126916184Y-110909000D01*
X127083816Y-110909000D01*
X127248228Y-110941703D01*
X127248228Y-110941703D01*
G37*
G36*
X129706821Y-110921313D02*
X129706824Y-110921314D01*
X129706825Y-110921314D01*
X129867239Y-110969975D01*
X129867241Y-110969976D01*
X129867244Y-110969977D01*
X130015078Y-111048995D01*
X130144659Y-111155341D01*
X130251005Y-111284922D01*
X130330023Y-111432756D01*
X130330024Y-111432759D01*
X130330025Y-111432761D01*
X130375713Y-111583375D01*
X130378687Y-111593179D01*
X130395117Y-111760000D01*
X130378687Y-111926821D01*
X130378686Y-111926824D01*
X130378686Y-111926825D01*
X130353993Y-112008228D01*
X130330023Y-112087244D01*
X130251005Y-112235078D01*
X130144659Y-112364659D01*
X130015078Y-112471005D01*
X129867244Y-112550023D01*
X129867241Y-112550024D01*
X129867239Y-112550025D01*
X129706825Y-112598686D01*
X129706824Y-112598686D01*
X129706821Y-112598687D01*
X129581804Y-112611000D01*
X129498196Y-112611000D01*
X129373179Y-112598687D01*
X129373176Y-112598686D01*
X129373175Y-112598686D01*
X129212761Y-112550025D01*
X129212759Y-112550024D01*
X129212756Y-112550023D01*
X129064922Y-112471005D01*
X128935341Y-112364659D01*
X128828995Y-112235078D01*
X128749977Y-112087244D01*
X128726008Y-112008228D01*
X128701314Y-111926825D01*
X128701314Y-111926824D01*
X128701313Y-111926821D01*
X128684883Y-111760000D01*
X128701313Y-111593179D01*
X128704287Y-111583375D01*
X128749975Y-111432761D01*
X128749976Y-111432759D01*
X128749977Y-111432756D01*
X128828995Y-111284922D01*
X128935341Y-111155341D01*
X129064922Y-111048995D01*
X129212756Y-110969977D01*
X129212759Y-110969976D01*
X129212761Y-110969975D01*
X129373175Y-110921314D01*
X129373176Y-110921314D01*
X129373179Y-110921313D01*
X129498196Y-110909000D01*
X129581804Y-110909000D01*
X129706821Y-110921313D01*
X129706821Y-110921313D01*
G37*
G36*
X160268228Y-110941703D02*
X160423100Y-111005853D01*
X160562481Y-111098985D01*
X160681015Y-111217519D01*
X160774147Y-111356900D01*
X160838297Y-111511772D01*
X160871000Y-111676184D01*
X160871000Y-111843816D01*
X160838297Y-112008228D01*
X160774147Y-112163100D01*
X160681015Y-112302481D01*
X160562481Y-112421015D01*
X160423100Y-112514147D01*
X160268228Y-112578297D01*
X160103816Y-112611000D01*
X159936184Y-112611000D01*
X159771772Y-112578297D01*
X159616900Y-112514147D01*
X159477519Y-112421015D01*
X159358985Y-112302481D01*
X159265853Y-112163100D01*
X159201703Y-112008228D01*
X159169000Y-111843816D01*
X159169000Y-111676184D01*
X159201703Y-111511772D01*
X159265853Y-111356900D01*
X159358985Y-111217519D01*
X159477519Y-111098985D01*
X159616900Y-111005853D01*
X159771772Y-110941703D01*
X159936184Y-110909000D01*
X160103816Y-110909000D01*
X160268228Y-110941703D01*
X160268228Y-110941703D01*
G37*
G36*
X139866821Y-110921313D02*
X139866824Y-110921314D01*
X139866825Y-110921314D01*
X140027239Y-110969975D01*
X140027241Y-110969976D01*
X140027244Y-110969977D01*
X140175078Y-111048995D01*
X140304659Y-111155341D01*
X140411005Y-111284922D01*
X140490023Y-111432756D01*
X140490024Y-111432759D01*
X140490025Y-111432761D01*
X140535713Y-111583375D01*
X140538687Y-111593179D01*
X140555117Y-111760000D01*
X140538687Y-111926821D01*
X140538686Y-111926824D01*
X140538686Y-111926825D01*
X140513993Y-112008228D01*
X140490023Y-112087244D01*
X140411005Y-112235078D01*
X140304659Y-112364659D01*
X140175078Y-112471005D01*
X140027244Y-112550023D01*
X140027241Y-112550024D01*
X140027239Y-112550025D01*
X139866825Y-112598686D01*
X139866824Y-112598686D01*
X139866821Y-112598687D01*
X139741804Y-112611000D01*
X139658196Y-112611000D01*
X139533179Y-112598687D01*
X139533176Y-112598686D01*
X139533175Y-112598686D01*
X139372761Y-112550025D01*
X139372759Y-112550024D01*
X139372756Y-112550023D01*
X139224922Y-112471005D01*
X139095341Y-112364659D01*
X138988995Y-112235078D01*
X138909977Y-112087244D01*
X138886008Y-112008228D01*
X138861314Y-111926825D01*
X138861314Y-111926824D01*
X138861313Y-111926821D01*
X138844883Y-111760000D01*
X138861313Y-111593179D01*
X138864287Y-111583375D01*
X138909975Y-111432761D01*
X138909976Y-111432759D01*
X138909977Y-111432756D01*
X138988995Y-111284922D01*
X139095341Y-111155341D01*
X139224922Y-111048995D01*
X139372756Y-110969977D01*
X139372759Y-110969976D01*
X139372761Y-110969975D01*
X139533175Y-110921314D01*
X139533176Y-110921314D01*
X139533179Y-110921313D01*
X139658196Y-110909000D01*
X139741804Y-110909000D01*
X139866821Y-110921313D01*
X139866821Y-110921313D01*
G37*
G36*
X132246821Y-110921313D02*
X132246824Y-110921314D01*
X132246825Y-110921314D01*
X132407239Y-110969975D01*
X132407241Y-110969976D01*
X132407244Y-110969977D01*
X132555078Y-111048995D01*
X132684659Y-111155341D01*
X132791005Y-111284922D01*
X132870023Y-111432756D01*
X132870024Y-111432759D01*
X132870025Y-111432761D01*
X132915713Y-111583375D01*
X132918687Y-111593179D01*
X132935117Y-111760000D01*
X132918687Y-111926821D01*
X132918686Y-111926824D01*
X132918686Y-111926825D01*
X132893993Y-112008228D01*
X132870023Y-112087244D01*
X132791005Y-112235078D01*
X132684659Y-112364659D01*
X132555078Y-112471005D01*
X132407244Y-112550023D01*
X132407241Y-112550024D01*
X132407239Y-112550025D01*
X132246825Y-112598686D01*
X132246824Y-112598686D01*
X132246821Y-112598687D01*
X132121804Y-112611000D01*
X132038196Y-112611000D01*
X131913179Y-112598687D01*
X131913176Y-112598686D01*
X131913175Y-112598686D01*
X131752761Y-112550025D01*
X131752759Y-112550024D01*
X131752756Y-112550023D01*
X131604922Y-112471005D01*
X131475341Y-112364659D01*
X131368995Y-112235078D01*
X131289977Y-112087244D01*
X131266008Y-112008228D01*
X131241314Y-111926825D01*
X131241314Y-111926824D01*
X131241313Y-111926821D01*
X131224883Y-111760000D01*
X131241313Y-111593179D01*
X131244287Y-111583375D01*
X131289975Y-111432761D01*
X131289976Y-111432759D01*
X131289977Y-111432756D01*
X131368995Y-111284922D01*
X131475341Y-111155341D01*
X131604922Y-111048995D01*
X131752756Y-110969977D01*
X131752759Y-110969976D01*
X131752761Y-110969975D01*
X131913175Y-110921314D01*
X131913176Y-110921314D01*
X131913179Y-110921313D01*
X132038196Y-110909000D01*
X132121804Y-110909000D01*
X132246821Y-110921313D01*
X132246821Y-110921313D01*
G37*
G36*
X162936000Y-110691000D02*
X162184000Y-110691000D01*
X162184000Y-109029000D01*
X162936000Y-109029000D01*
X162936000Y-110691000D01*
X162936000Y-110691000D01*
G37*
G36*
X164836000Y-110691000D02*
X164084000Y-110691000D01*
X164084000Y-109029000D01*
X164836000Y-109029000D01*
X164836000Y-110691000D01*
X164836000Y-110691000D01*
G37*
G36*
X160268228Y-108441703D02*
X160423100Y-108505853D01*
X160562481Y-108598985D01*
X160681015Y-108717519D01*
X160774147Y-108856900D01*
X160838297Y-109011772D01*
X160871000Y-109176184D01*
X160871000Y-109343816D01*
X160838297Y-109508228D01*
X160774147Y-109663100D01*
X160681015Y-109802481D01*
X160562481Y-109921015D01*
X160423100Y-110014147D01*
X160268228Y-110078297D01*
X160103816Y-110111000D01*
X159936184Y-110111000D01*
X159771772Y-110078297D01*
X159616900Y-110014147D01*
X159477519Y-109921015D01*
X159358985Y-109802481D01*
X159265853Y-109663100D01*
X159201703Y-109508228D01*
X159169000Y-109343816D01*
X159169000Y-109176184D01*
X159201703Y-109011772D01*
X159265853Y-108856900D01*
X159358985Y-108717519D01*
X159477519Y-108598985D01*
X159616900Y-108505853D01*
X159771772Y-108441703D01*
X159936184Y-108409000D01*
X160103816Y-108409000D01*
X160268228Y-108441703D01*
X160268228Y-108441703D01*
G37*
G36*
X132246821Y-108381313D02*
X132246824Y-108381314D01*
X132246825Y-108381314D01*
X132407239Y-108429975D01*
X132407241Y-108429976D01*
X132407244Y-108429977D01*
X132555078Y-108508995D01*
X132684659Y-108615341D01*
X132791005Y-108744922D01*
X132870023Y-108892756D01*
X132870024Y-108892759D01*
X132870025Y-108892761D01*
X132918686Y-109053175D01*
X132918687Y-109053179D01*
X132935117Y-109220000D01*
X132918687Y-109386821D01*
X132918686Y-109386824D01*
X132918686Y-109386825D01*
X132881859Y-109508228D01*
X132870023Y-109547244D01*
X132791005Y-109695078D01*
X132684659Y-109824659D01*
X132555078Y-109931005D01*
X132407244Y-110010023D01*
X132407241Y-110010024D01*
X132407239Y-110010025D01*
X132246825Y-110058686D01*
X132246824Y-110058686D01*
X132246821Y-110058687D01*
X132121804Y-110071000D01*
X132038196Y-110071000D01*
X131913179Y-110058687D01*
X131913176Y-110058686D01*
X131913175Y-110058686D01*
X131752761Y-110010025D01*
X131752759Y-110010024D01*
X131752756Y-110010023D01*
X131604922Y-109931005D01*
X131475341Y-109824659D01*
X131368995Y-109695078D01*
X131289977Y-109547244D01*
X131278142Y-109508228D01*
X131241314Y-109386825D01*
X131241314Y-109386824D01*
X131241313Y-109386821D01*
X131224883Y-109220000D01*
X131241313Y-109053179D01*
X131241314Y-109053175D01*
X131289975Y-108892761D01*
X131289976Y-108892759D01*
X131289977Y-108892756D01*
X131368995Y-108744922D01*
X131475341Y-108615341D01*
X131604922Y-108508995D01*
X131752756Y-108429977D01*
X131752759Y-108429976D01*
X131752761Y-108429975D01*
X131913175Y-108381314D01*
X131913176Y-108381314D01*
X131913179Y-108381313D01*
X132038196Y-108369000D01*
X132121804Y-108369000D01*
X132246821Y-108381313D01*
X132246821Y-108381313D01*
G37*
G36*
X139866821Y-108381313D02*
X139866824Y-108381314D01*
X139866825Y-108381314D01*
X140027239Y-108429975D01*
X140027241Y-108429976D01*
X140027244Y-108429977D01*
X140175078Y-108508995D01*
X140304659Y-108615341D01*
X140411005Y-108744922D01*
X140490023Y-108892756D01*
X140490024Y-108892759D01*
X140490025Y-108892761D01*
X140538686Y-109053175D01*
X140538687Y-109053179D01*
X140555117Y-109220000D01*
X140538687Y-109386821D01*
X140538686Y-109386824D01*
X140538686Y-109386825D01*
X140501859Y-109508228D01*
X140490023Y-109547244D01*
X140411005Y-109695078D01*
X140304659Y-109824659D01*
X140175078Y-109931005D01*
X140027244Y-110010023D01*
X140027241Y-110010024D01*
X140027239Y-110010025D01*
X139866825Y-110058686D01*
X139866824Y-110058686D01*
X139866821Y-110058687D01*
X139741804Y-110071000D01*
X139658196Y-110071000D01*
X139533179Y-110058687D01*
X139533176Y-110058686D01*
X139533175Y-110058686D01*
X139372761Y-110010025D01*
X139372759Y-110010024D01*
X139372756Y-110010023D01*
X139224922Y-109931005D01*
X139095341Y-109824659D01*
X138988995Y-109695078D01*
X138909977Y-109547244D01*
X138898142Y-109508228D01*
X138861314Y-109386825D01*
X138861314Y-109386824D01*
X138861313Y-109386821D01*
X138844883Y-109220000D01*
X138861313Y-109053179D01*
X138861314Y-109053175D01*
X138909975Y-108892761D01*
X138909976Y-108892759D01*
X138909977Y-108892756D01*
X138988995Y-108744922D01*
X139095341Y-108615341D01*
X139224922Y-108508995D01*
X139372756Y-108429977D01*
X139372759Y-108429976D01*
X139372761Y-108429975D01*
X139533175Y-108381314D01*
X139533176Y-108381314D01*
X139533179Y-108381313D01*
X139658196Y-108369000D01*
X139741804Y-108369000D01*
X139866821Y-108381313D01*
X139866821Y-108381313D01*
G37*
G36*
X139866821Y-105841313D02*
X139866824Y-105841314D01*
X139866825Y-105841314D01*
X140027239Y-105889975D01*
X140027241Y-105889976D01*
X140027244Y-105889977D01*
X140175078Y-105968995D01*
X140304659Y-106075341D01*
X140411005Y-106204922D01*
X140490023Y-106352756D01*
X140490024Y-106352759D01*
X140490025Y-106352761D01*
X140538686Y-106513175D01*
X140538687Y-106513179D01*
X140555117Y-106680000D01*
X140538687Y-106846821D01*
X140538686Y-106846824D01*
X140538686Y-106846825D01*
X140513993Y-106928228D01*
X140490023Y-107007244D01*
X140411005Y-107155078D01*
X140304659Y-107284659D01*
X140175078Y-107391005D01*
X140027244Y-107470023D01*
X140027241Y-107470024D01*
X140027239Y-107470025D01*
X139866825Y-107518686D01*
X139866824Y-107518686D01*
X139866821Y-107518687D01*
X139741804Y-107531000D01*
X139658196Y-107531000D01*
X139533179Y-107518687D01*
X139533176Y-107518686D01*
X139533175Y-107518686D01*
X139372761Y-107470025D01*
X139372759Y-107470024D01*
X139372756Y-107470023D01*
X139224922Y-107391005D01*
X139095341Y-107284659D01*
X138988995Y-107155078D01*
X138909977Y-107007244D01*
X138886008Y-106928228D01*
X138861314Y-106846825D01*
X138861314Y-106846824D01*
X138861313Y-106846821D01*
X138844883Y-106680000D01*
X138861313Y-106513179D01*
X138861314Y-106513175D01*
X138909975Y-106352761D01*
X138909976Y-106352759D01*
X138909977Y-106352756D01*
X138988995Y-106204922D01*
X139095341Y-106075341D01*
X139224922Y-105968995D01*
X139372756Y-105889977D01*
X139372759Y-105889976D01*
X139372761Y-105889975D01*
X139533175Y-105841314D01*
X139533176Y-105841314D01*
X139533179Y-105841313D01*
X139658196Y-105829000D01*
X139741804Y-105829000D01*
X139866821Y-105841313D01*
X139866821Y-105841313D01*
G37*
G36*
X167806821Y-105841313D02*
X167806824Y-105841314D01*
X167806825Y-105841314D01*
X167967239Y-105889975D01*
X167967241Y-105889976D01*
X167967244Y-105889977D01*
X168115078Y-105968995D01*
X168244659Y-106075341D01*
X168351005Y-106204922D01*
X168430023Y-106352756D01*
X168430024Y-106352759D01*
X168430025Y-106352761D01*
X168478686Y-106513175D01*
X168478687Y-106513179D01*
X168495117Y-106680000D01*
X168478687Y-106846821D01*
X168478686Y-106846824D01*
X168478686Y-106846825D01*
X168453993Y-106928228D01*
X168430023Y-107007244D01*
X168351005Y-107155078D01*
X168244659Y-107284659D01*
X168115078Y-107391005D01*
X167967244Y-107470023D01*
X167967241Y-107470024D01*
X167967239Y-107470025D01*
X167806825Y-107518686D01*
X167806824Y-107518686D01*
X167806821Y-107518687D01*
X167681804Y-107531000D01*
X167598196Y-107531000D01*
X167473179Y-107518687D01*
X167473176Y-107518686D01*
X167473175Y-107518686D01*
X167312761Y-107470025D01*
X167312759Y-107470024D01*
X167312756Y-107470023D01*
X167164922Y-107391005D01*
X167035341Y-107284659D01*
X166928995Y-107155078D01*
X166849977Y-107007244D01*
X166826008Y-106928228D01*
X166801314Y-106846825D01*
X166801314Y-106846824D01*
X166801313Y-106846821D01*
X166784883Y-106680000D01*
X166801313Y-106513179D01*
X166801314Y-106513175D01*
X166849975Y-106352761D01*
X166849976Y-106352759D01*
X166849977Y-106352756D01*
X166928995Y-106204922D01*
X167035341Y-106075341D01*
X167164922Y-105968995D01*
X167312756Y-105889977D01*
X167312759Y-105889976D01*
X167312761Y-105889975D01*
X167473175Y-105841314D01*
X167473176Y-105841314D01*
X167473179Y-105841313D01*
X167598196Y-105829000D01*
X167681804Y-105829000D01*
X167806821Y-105841313D01*
X167806821Y-105841313D01*
G37*
G36*
X132246821Y-105841313D02*
X132246824Y-105841314D01*
X132246825Y-105841314D01*
X132407239Y-105889975D01*
X132407241Y-105889976D01*
X132407244Y-105889977D01*
X132555078Y-105968995D01*
X132684659Y-106075341D01*
X132791005Y-106204922D01*
X132870023Y-106352756D01*
X132870024Y-106352759D01*
X132870025Y-106352761D01*
X132918686Y-106513175D01*
X132918687Y-106513179D01*
X132935117Y-106680000D01*
X132918687Y-106846821D01*
X132918686Y-106846824D01*
X132918686Y-106846825D01*
X132893993Y-106928228D01*
X132870023Y-107007244D01*
X132791005Y-107155078D01*
X132684659Y-107284659D01*
X132555078Y-107391005D01*
X132407244Y-107470023D01*
X132407241Y-107470024D01*
X132407239Y-107470025D01*
X132246825Y-107518686D01*
X132246824Y-107518686D01*
X132246821Y-107518687D01*
X132121804Y-107531000D01*
X132038196Y-107531000D01*
X131913179Y-107518687D01*
X131913176Y-107518686D01*
X131913175Y-107518686D01*
X131752761Y-107470025D01*
X131752759Y-107470024D01*
X131752756Y-107470023D01*
X131604922Y-107391005D01*
X131475341Y-107284659D01*
X131368995Y-107155078D01*
X131289977Y-107007244D01*
X131266008Y-106928228D01*
X131241314Y-106846825D01*
X131241314Y-106846824D01*
X131241313Y-106846821D01*
X131224883Y-106680000D01*
X131241313Y-106513179D01*
X131241314Y-106513175D01*
X131289975Y-106352761D01*
X131289976Y-106352759D01*
X131289977Y-106352756D01*
X131368995Y-106204922D01*
X131475341Y-106075341D01*
X131604922Y-105968995D01*
X131752756Y-105889977D01*
X131752759Y-105889976D01*
X131752761Y-105889975D01*
X131913175Y-105841314D01*
X131913176Y-105841314D01*
X131913179Y-105841313D01*
X132038196Y-105829000D01*
X132121804Y-105829000D01*
X132246821Y-105841313D01*
X132246821Y-105841313D01*
G37*
G36*
X157728228Y-105861703D02*
X157883100Y-105925853D01*
X158022481Y-106018985D01*
X158141015Y-106137519D01*
X158234147Y-106276900D01*
X158298297Y-106431772D01*
X158331000Y-106596184D01*
X158331000Y-106763816D01*
X158298297Y-106928228D01*
X158234147Y-107083100D01*
X158141015Y-107222481D01*
X158022481Y-107341015D01*
X157883100Y-107434147D01*
X157728228Y-107498297D01*
X157563816Y-107531000D01*
X157396184Y-107531000D01*
X157231772Y-107498297D01*
X157076900Y-107434147D01*
X156937519Y-107341015D01*
X156818985Y-107222481D01*
X156725853Y-107083100D01*
X156661703Y-106928228D01*
X156629000Y-106763816D01*
X156629000Y-106596184D01*
X156661703Y-106431772D01*
X156725853Y-106276900D01*
X156818985Y-106137519D01*
X156937519Y-106018985D01*
X157076900Y-105925853D01*
X157231772Y-105861703D01*
X157396184Y-105829000D01*
X157563816Y-105829000D01*
X157728228Y-105861703D01*
X157728228Y-105861703D01*
G37*
G36*
X132931000Y-104991000D02*
X131229000Y-104991000D01*
X131229000Y-103289000D01*
X132931000Y-103289000D01*
X132931000Y-104991000D01*
X132931000Y-104991000D01*
G37*
G36*
X167888228Y-103321703D02*
X168043100Y-103385853D01*
X168182481Y-103478985D01*
X168301015Y-103597519D01*
X168394147Y-103736900D01*
X168458297Y-103891772D01*
X168491000Y-104056184D01*
X168491000Y-104223816D01*
X168458297Y-104388228D01*
X168394147Y-104543100D01*
X168301015Y-104682481D01*
X168182481Y-104801015D01*
X168043100Y-104894147D01*
X167888228Y-104958297D01*
X167723816Y-104991000D01*
X167556184Y-104991000D01*
X167391772Y-104958297D01*
X167236900Y-104894147D01*
X167097519Y-104801015D01*
X166978985Y-104682481D01*
X166885853Y-104543100D01*
X166821703Y-104388228D01*
X166789000Y-104223816D01*
X166789000Y-104056184D01*
X166821703Y-103891772D01*
X166885853Y-103736900D01*
X166978985Y-103597519D01*
X167097519Y-103478985D01*
X167236900Y-103385853D01*
X167391772Y-103321703D01*
X167556184Y-103289000D01*
X167723816Y-103289000D01*
X167888228Y-103321703D01*
X167888228Y-103321703D01*
G37*
G36*
X130391000Y-104991000D02*
X128689000Y-104991000D01*
X128689000Y-103289000D01*
X130391000Y-103289000D01*
X130391000Y-104991000D01*
X130391000Y-104991000D01*
G37*
G36*
X139866821Y-103301313D02*
X139866824Y-103301314D01*
X139866825Y-103301314D01*
X140027239Y-103349975D01*
X140027241Y-103349976D01*
X140027244Y-103349977D01*
X140175078Y-103428995D01*
X140304659Y-103535341D01*
X140411005Y-103664922D01*
X140490023Y-103812756D01*
X140490024Y-103812759D01*
X140490025Y-103812761D01*
X140538686Y-103973175D01*
X140538687Y-103973179D01*
X140555117Y-104140000D01*
X140538687Y-104306821D01*
X140538686Y-104306824D01*
X140538686Y-104306825D01*
X140513993Y-104388228D01*
X140490023Y-104467244D01*
X140411005Y-104615078D01*
X140304659Y-104744659D01*
X140175078Y-104851005D01*
X140027244Y-104930023D01*
X140027241Y-104930024D01*
X140027239Y-104930025D01*
X139866825Y-104978686D01*
X139866824Y-104978686D01*
X139866821Y-104978687D01*
X139741804Y-104991000D01*
X139658196Y-104991000D01*
X139533179Y-104978687D01*
X139533176Y-104978686D01*
X139533175Y-104978686D01*
X139372761Y-104930025D01*
X139372759Y-104930024D01*
X139372756Y-104930023D01*
X139224922Y-104851005D01*
X139095341Y-104744659D01*
X138988995Y-104615078D01*
X138909977Y-104467244D01*
X138886008Y-104388228D01*
X138861314Y-104306825D01*
X138861314Y-104306824D01*
X138861313Y-104306821D01*
X138844883Y-104140000D01*
X138861313Y-103973179D01*
X138861314Y-103973175D01*
X138909975Y-103812761D01*
X138909976Y-103812759D01*
X138909977Y-103812756D01*
X138988995Y-103664922D01*
X139095341Y-103535341D01*
X139224922Y-103428995D01*
X139372756Y-103349977D01*
X139372759Y-103349976D01*
X139372761Y-103349975D01*
X139533175Y-103301314D01*
X139533176Y-103301314D01*
X139533179Y-103301313D01*
X139658196Y-103289000D01*
X139741804Y-103289000D01*
X139866821Y-103301313D01*
X139866821Y-103301313D01*
G37*
G36*
X157646821Y-103301313D02*
X157646824Y-103301314D01*
X157646825Y-103301314D01*
X157807239Y-103349975D01*
X157807241Y-103349976D01*
X157807244Y-103349977D01*
X157955078Y-103428995D01*
X158084659Y-103535341D01*
X158191005Y-103664922D01*
X158270023Y-103812756D01*
X158270024Y-103812759D01*
X158270025Y-103812761D01*
X158318686Y-103973175D01*
X158318687Y-103973179D01*
X158335117Y-104140000D01*
X158318687Y-104306821D01*
X158318686Y-104306824D01*
X158318686Y-104306825D01*
X158293993Y-104388228D01*
X158270023Y-104467244D01*
X158191005Y-104615078D01*
X158084659Y-104744659D01*
X157955078Y-104851005D01*
X157807244Y-104930023D01*
X157807241Y-104930024D01*
X157807239Y-104930025D01*
X157646825Y-104978686D01*
X157646824Y-104978686D01*
X157646821Y-104978687D01*
X157521804Y-104991000D01*
X157438196Y-104991000D01*
X157313179Y-104978687D01*
X157313176Y-104978686D01*
X157313175Y-104978686D01*
X157152761Y-104930025D01*
X157152759Y-104930024D01*
X157152756Y-104930023D01*
X157004922Y-104851005D01*
X156875341Y-104744659D01*
X156768995Y-104615078D01*
X156689977Y-104467244D01*
X156666008Y-104388228D01*
X156641314Y-104306825D01*
X156641314Y-104306824D01*
X156641313Y-104306821D01*
X156624883Y-104140000D01*
X156641313Y-103973179D01*
X156641314Y-103973175D01*
X156689975Y-103812761D01*
X156689976Y-103812759D01*
X156689977Y-103812756D01*
X156768995Y-103664922D01*
X156875341Y-103535341D01*
X157004922Y-103428995D01*
X157152756Y-103349977D01*
X157152759Y-103349976D01*
X157152761Y-103349975D01*
X157313175Y-103301314D01*
X157313176Y-103301314D01*
X157313179Y-103301313D01*
X157438196Y-103289000D01*
X157521804Y-103289000D01*
X157646821Y-103301313D01*
X157646821Y-103301313D01*
G37*
G36*
X153836821Y-100761313D02*
X153836824Y-100761314D01*
X153836825Y-100761314D01*
X153997239Y-100809975D01*
X153997241Y-100809976D01*
X153997244Y-100809977D01*
X154145078Y-100888995D01*
X154274659Y-100995341D01*
X154381005Y-101124922D01*
X154460023Y-101272756D01*
X154460024Y-101272759D01*
X154460025Y-101272761D01*
X154508686Y-101433175D01*
X154508687Y-101433179D01*
X154525117Y-101600000D01*
X154508687Y-101766821D01*
X154508686Y-101766824D01*
X154508686Y-101766825D01*
X154483993Y-101848228D01*
X154460023Y-101927244D01*
X154381005Y-102075078D01*
X154274659Y-102204659D01*
X154145078Y-102311005D01*
X153997244Y-102390023D01*
X153997241Y-102390024D01*
X153997239Y-102390025D01*
X153836825Y-102438686D01*
X153836824Y-102438686D01*
X153836821Y-102438687D01*
X153711804Y-102451000D01*
X153628196Y-102451000D01*
X153503179Y-102438687D01*
X153503176Y-102438686D01*
X153503175Y-102438686D01*
X153342761Y-102390025D01*
X153342759Y-102390024D01*
X153342756Y-102390023D01*
X153194922Y-102311005D01*
X153065341Y-102204659D01*
X152958995Y-102075078D01*
X152879977Y-101927244D01*
X152856008Y-101848228D01*
X152831314Y-101766825D01*
X152831314Y-101766824D01*
X152831313Y-101766821D01*
X152814883Y-101600000D01*
X152831313Y-101433179D01*
X152831314Y-101433175D01*
X152879975Y-101272761D01*
X152879976Y-101272759D01*
X152879977Y-101272756D01*
X152958995Y-101124922D01*
X153065341Y-100995341D01*
X153194922Y-100888995D01*
X153342756Y-100809977D01*
X153342759Y-100809976D01*
X153342761Y-100809975D01*
X153503175Y-100761314D01*
X153503176Y-100761314D01*
X153503179Y-100761313D01*
X153628196Y-100749000D01*
X153711804Y-100749000D01*
X153836821Y-100761313D01*
X153836821Y-100761313D01*
G37*
G36*
X143758228Y-100781703D02*
X143913100Y-100845853D01*
X144052481Y-100938985D01*
X144171015Y-101057519D01*
X144264147Y-101196900D01*
X144328297Y-101351772D01*
X144361000Y-101516184D01*
X144361000Y-101683816D01*
X144328297Y-101848228D01*
X144264147Y-102003100D01*
X144171015Y-102142481D01*
X144052481Y-102261015D01*
X143913100Y-102354147D01*
X143758228Y-102418297D01*
X143593816Y-102451000D01*
X143426184Y-102451000D01*
X143261772Y-102418297D01*
X143106900Y-102354147D01*
X142967519Y-102261015D01*
X142848985Y-102142481D01*
X142755853Y-102003100D01*
X142691703Y-101848228D01*
X142659000Y-101683816D01*
X142659000Y-101516184D01*
X142691703Y-101351772D01*
X142755853Y-101196900D01*
X142848985Y-101057519D01*
X142967519Y-100938985D01*
X143106900Y-100845853D01*
X143261772Y-100781703D01*
X143426184Y-100749000D01*
X143593816Y-100749000D01*
X143758228Y-100781703D01*
X143758228Y-100781703D01*
G37*
G36*
X139948228Y-100781703D02*
X140103100Y-100845853D01*
X140242481Y-100938985D01*
X140361015Y-101057519D01*
X140454147Y-101196900D01*
X140518297Y-101351772D01*
X140551000Y-101516184D01*
X140551000Y-101683816D01*
X140518297Y-101848228D01*
X140454147Y-102003100D01*
X140361015Y-102142481D01*
X140242481Y-102261015D01*
X140103100Y-102354147D01*
X139948228Y-102418297D01*
X139783816Y-102451000D01*
X139616184Y-102451000D01*
X139451772Y-102418297D01*
X139296900Y-102354147D01*
X139157519Y-102261015D01*
X139038985Y-102142481D01*
X138945853Y-102003100D01*
X138881703Y-101848228D01*
X138849000Y-101683816D01*
X138849000Y-101516184D01*
X138881703Y-101351772D01*
X138945853Y-101196900D01*
X139038985Y-101057519D01*
X139157519Y-100938985D01*
X139296900Y-100845853D01*
X139451772Y-100781703D01*
X139616184Y-100749000D01*
X139783816Y-100749000D01*
X139948228Y-100781703D01*
X139948228Y-100781703D01*
G37*
G36*
X137448228Y-100781703D02*
X137603100Y-100845853D01*
X137742481Y-100938985D01*
X137861015Y-101057519D01*
X137954147Y-101196900D01*
X138018297Y-101351772D01*
X138051000Y-101516184D01*
X138051000Y-101683816D01*
X138018297Y-101848228D01*
X137954147Y-102003100D01*
X137861015Y-102142481D01*
X137742481Y-102261015D01*
X137603100Y-102354147D01*
X137448228Y-102418297D01*
X137283816Y-102451000D01*
X137116184Y-102451000D01*
X136951772Y-102418297D01*
X136796900Y-102354147D01*
X136657519Y-102261015D01*
X136538985Y-102142481D01*
X136445853Y-102003100D01*
X136381703Y-101848228D01*
X136349000Y-101683816D01*
X136349000Y-101516184D01*
X136381703Y-101351772D01*
X136445853Y-101196900D01*
X136538985Y-101057519D01*
X136657519Y-100938985D01*
X136796900Y-100845853D01*
X136951772Y-100781703D01*
X137116184Y-100749000D01*
X137283816Y-100749000D01*
X137448228Y-100781703D01*
X137448228Y-100781703D01*
G37*
G36*
X132328228Y-100781703D02*
X132483100Y-100845853D01*
X132622481Y-100938985D01*
X132741015Y-101057519D01*
X132834147Y-101196900D01*
X132898297Y-101351772D01*
X132931000Y-101516184D01*
X132931000Y-101683816D01*
X132898297Y-101848228D01*
X132834147Y-102003100D01*
X132741015Y-102142481D01*
X132622481Y-102261015D01*
X132483100Y-102354147D01*
X132328228Y-102418297D01*
X132163816Y-102451000D01*
X131996184Y-102451000D01*
X131831772Y-102418297D01*
X131676900Y-102354147D01*
X131537519Y-102261015D01*
X131418985Y-102142481D01*
X131325853Y-102003100D01*
X131261703Y-101848228D01*
X131229000Y-101683816D01*
X131229000Y-101516184D01*
X131261703Y-101351772D01*
X131325853Y-101196900D01*
X131418985Y-101057519D01*
X131537519Y-100938985D01*
X131676900Y-100845853D01*
X131831772Y-100781703D01*
X131996184Y-100749000D01*
X132163816Y-100749000D01*
X132328228Y-100781703D01*
X132328228Y-100781703D01*
G37*
G36*
X127166821Y-100761313D02*
X127166824Y-100761314D01*
X127166825Y-100761314D01*
X127327239Y-100809975D01*
X127327241Y-100809976D01*
X127327244Y-100809977D01*
X127475078Y-100888995D01*
X127604659Y-100995341D01*
X127711005Y-101124922D01*
X127790023Y-101272756D01*
X127790024Y-101272759D01*
X127790025Y-101272761D01*
X127838686Y-101433175D01*
X127838687Y-101433179D01*
X127855117Y-101600000D01*
X127838687Y-101766821D01*
X127838686Y-101766824D01*
X127838686Y-101766825D01*
X127813993Y-101848228D01*
X127790023Y-101927244D01*
X127711005Y-102075078D01*
X127604659Y-102204659D01*
X127475078Y-102311005D01*
X127327244Y-102390023D01*
X127327241Y-102390024D01*
X127327239Y-102390025D01*
X127166825Y-102438686D01*
X127166824Y-102438686D01*
X127166821Y-102438687D01*
X127041804Y-102451000D01*
X126958196Y-102451000D01*
X126833179Y-102438687D01*
X126833176Y-102438686D01*
X126833175Y-102438686D01*
X126672761Y-102390025D01*
X126672759Y-102390024D01*
X126672756Y-102390023D01*
X126524922Y-102311005D01*
X126395341Y-102204659D01*
X126288995Y-102075078D01*
X126209977Y-101927244D01*
X126186008Y-101848228D01*
X126161314Y-101766825D01*
X126161314Y-101766824D01*
X126161313Y-101766821D01*
X126144883Y-101600000D01*
X126161313Y-101433179D01*
X126161314Y-101433175D01*
X126209975Y-101272761D01*
X126209976Y-101272759D01*
X126209977Y-101272756D01*
X126288995Y-101124922D01*
X126395341Y-100995341D01*
X126524922Y-100888995D01*
X126672756Y-100809977D01*
X126672759Y-100809976D01*
X126672761Y-100809975D01*
X126833175Y-100761314D01*
X126833176Y-100761314D01*
X126833179Y-100761313D01*
X126958196Y-100749000D01*
X127041804Y-100749000D01*
X127166821Y-100761313D01*
X127166821Y-100761313D01*
G37*
G36*
X134828228Y-100781703D02*
X134983100Y-100845853D01*
X135122481Y-100938985D01*
X135241015Y-101057519D01*
X135334147Y-101196900D01*
X135398297Y-101351772D01*
X135431000Y-101516184D01*
X135431000Y-101683816D01*
X135398297Y-101848228D01*
X135334147Y-102003100D01*
X135241015Y-102142481D01*
X135122481Y-102261015D01*
X134983100Y-102354147D01*
X134828228Y-102418297D01*
X134663816Y-102451000D01*
X134496184Y-102451000D01*
X134331772Y-102418297D01*
X134176900Y-102354147D01*
X134037519Y-102261015D01*
X133918985Y-102142481D01*
X133825853Y-102003100D01*
X133761703Y-101848228D01*
X133729000Y-101683816D01*
X133729000Y-101516184D01*
X133761703Y-101351772D01*
X133825853Y-101196900D01*
X133918985Y-101057519D01*
X134037519Y-100938985D01*
X134176900Y-100845853D01*
X134331772Y-100781703D01*
X134496184Y-100749000D01*
X134663816Y-100749000D01*
X134828228Y-100781703D01*
X134828228Y-100781703D01*
G37*
G36*
X143849272Y-98033428D02*
X144035992Y-98110770D01*
X144204040Y-98223056D01*
X144346944Y-98365960D01*
X144459230Y-98534008D01*
X144536572Y-98720728D01*
X144576000Y-98918946D01*
X144576000Y-99121054D01*
X144536572Y-99319272D01*
X144459230Y-99505992D01*
X144346944Y-99674040D01*
X144204040Y-99816944D01*
X144035992Y-99929230D01*
X143849272Y-100006572D01*
X143651054Y-100046000D01*
X143448946Y-100046000D01*
X143250728Y-100006572D01*
X143064008Y-99929230D01*
X142895960Y-99816944D01*
X142753056Y-99674040D01*
X142640770Y-99505992D01*
X142563428Y-99319272D01*
X142524000Y-99121054D01*
X142524000Y-98918946D01*
X142563428Y-98720728D01*
X142640770Y-98534008D01*
X142753056Y-98365960D01*
X142895960Y-98223056D01*
X143064008Y-98110770D01*
X143250728Y-98033428D01*
X143448946Y-97994000D01*
X143651054Y-97994000D01*
X143849272Y-98033428D01*
X143849272Y-98033428D01*
G37*
G36*
X133849272Y-98033428D02*
X134035992Y-98110770D01*
X134204040Y-98223056D01*
X134346944Y-98365960D01*
X134459230Y-98534008D01*
X134536572Y-98720728D01*
X134576000Y-98918946D01*
X134576000Y-99121054D01*
X134536572Y-99319272D01*
X134459230Y-99505992D01*
X134346944Y-99674040D01*
X134204040Y-99816944D01*
X134035992Y-99929230D01*
X133849272Y-100006572D01*
X133651054Y-100046000D01*
X133448946Y-100046000D01*
X133250728Y-100006572D01*
X133064008Y-99929230D01*
X132895960Y-99816944D01*
X132753056Y-99674040D01*
X132640770Y-99505992D01*
X132563428Y-99319272D01*
X132524000Y-99121054D01*
X132524000Y-98918946D01*
X132563428Y-98720728D01*
X132640770Y-98534008D01*
X132753056Y-98365960D01*
X132895960Y-98223056D01*
X133064008Y-98110770D01*
X133250728Y-98033428D01*
X133448946Y-97994000D01*
X133651054Y-97994000D01*
X133849272Y-98033428D01*
X133849272Y-98033428D01*
G37*
G36*
X163929272Y-98033428D02*
X164115992Y-98110770D01*
X164284040Y-98223056D01*
X164426944Y-98365960D01*
X164539230Y-98534008D01*
X164616572Y-98720728D01*
X164656000Y-98918946D01*
X164656000Y-99121054D01*
X164616572Y-99319272D01*
X164539230Y-99505992D01*
X164426944Y-99674040D01*
X164284040Y-99816944D01*
X164115992Y-99929230D01*
X163929272Y-100006572D01*
X163731054Y-100046000D01*
X163528946Y-100046000D01*
X163330728Y-100006572D01*
X163144008Y-99929230D01*
X162975960Y-99816944D01*
X162833056Y-99674040D01*
X162720770Y-99505992D01*
X162643428Y-99319272D01*
X162604000Y-99121054D01*
X162604000Y-98918946D01*
X162643428Y-98720728D01*
X162720770Y-98534008D01*
X162833056Y-98365960D01*
X162975960Y-98223056D01*
X163144008Y-98110770D01*
X163330728Y-98033428D01*
X163528946Y-97994000D01*
X163731054Y-97994000D01*
X163929272Y-98033428D01*
X163929272Y-98033428D01*
G37*
G36*
X153929272Y-98033428D02*
X154115992Y-98110770D01*
X154284040Y-98223056D01*
X154426944Y-98365960D01*
X154539230Y-98534008D01*
X154616572Y-98720728D01*
X154656000Y-98918946D01*
X154656000Y-99121054D01*
X154616572Y-99319272D01*
X154539230Y-99505992D01*
X154426944Y-99674040D01*
X154284040Y-99816944D01*
X154115992Y-99929230D01*
X153929272Y-100006572D01*
X153731054Y-100046000D01*
X153528946Y-100046000D01*
X153330728Y-100006572D01*
X153144008Y-99929230D01*
X152975960Y-99816944D01*
X152833056Y-99674040D01*
X152720770Y-99505992D01*
X152643428Y-99319272D01*
X152604000Y-99121054D01*
X152604000Y-98918946D01*
X152643428Y-98720728D01*
X152720770Y-98534008D01*
X152833056Y-98365960D01*
X152975960Y-98223056D01*
X153144008Y-98110770D01*
X153330728Y-98033428D01*
X153528946Y-97994000D01*
X153731054Y-97994000D01*
X153929272Y-98033428D01*
X153929272Y-98033428D01*
G37*
G36*
X127110443Y-98165519D02*
X127176627Y-98172037D01*
X127289853Y-98206384D01*
X127346467Y-98223557D01*
X127485087Y-98297652D01*
X127502991Y-98307222D01*
X127538729Y-98336552D01*
X127640186Y-98419814D01*
X127723448Y-98521271D01*
X127752778Y-98557009D01*
X127752779Y-98557011D01*
X127836443Y-98713533D01*
X127853616Y-98770147D01*
X127887963Y-98883373D01*
X127905359Y-99060000D01*
X127887963Y-99236627D01*
X127853616Y-99349853D01*
X127836443Y-99406467D01*
X127783245Y-99505992D01*
X127752778Y-99562991D01*
X127723448Y-99598729D01*
X127640186Y-99700186D01*
X127538729Y-99783448D01*
X127502991Y-99812778D01*
X127502989Y-99812779D01*
X127346467Y-99896443D01*
X127289853Y-99913616D01*
X127176627Y-99947963D01*
X127110443Y-99954481D01*
X127044260Y-99961000D01*
X126955740Y-99961000D01*
X126889557Y-99954481D01*
X126823373Y-99947963D01*
X126710147Y-99913616D01*
X126653533Y-99896443D01*
X126497011Y-99812779D01*
X126497009Y-99812778D01*
X126461271Y-99783448D01*
X126359814Y-99700186D01*
X126276552Y-99598729D01*
X126247222Y-99562991D01*
X126216755Y-99505992D01*
X126163557Y-99406467D01*
X126146384Y-99349853D01*
X126112037Y-99236627D01*
X126094641Y-99060000D01*
X126112037Y-98883373D01*
X126146384Y-98770147D01*
X126163557Y-98713533D01*
X126247221Y-98557011D01*
X126247222Y-98557009D01*
X126276552Y-98521271D01*
X126359814Y-98419814D01*
X126461271Y-98336552D01*
X126497009Y-98307222D01*
X126514913Y-98297652D01*
X126653533Y-98223557D01*
X126710147Y-98206384D01*
X126823373Y-98172037D01*
X126889557Y-98165519D01*
X126955740Y-98159000D01*
X127044260Y-98159000D01*
X127110443Y-98165519D01*
X127110443Y-98165519D01*
G37*
G36*
X170290443Y-98165519D02*
X170356627Y-98172037D01*
X170469853Y-98206384D01*
X170526467Y-98223557D01*
X170665087Y-98297652D01*
X170682991Y-98307222D01*
X170718729Y-98336552D01*
X170820186Y-98419814D01*
X170903448Y-98521271D01*
X170932778Y-98557009D01*
X170932779Y-98557011D01*
X171016443Y-98713533D01*
X171033616Y-98770147D01*
X171067963Y-98883373D01*
X171085359Y-99060000D01*
X171067963Y-99236627D01*
X171033616Y-99349853D01*
X171016443Y-99406467D01*
X170963245Y-99505992D01*
X170932778Y-99562991D01*
X170903448Y-99598729D01*
X170820186Y-99700186D01*
X170718729Y-99783448D01*
X170682991Y-99812778D01*
X170682989Y-99812779D01*
X170526467Y-99896443D01*
X170469853Y-99913616D01*
X170356627Y-99947963D01*
X170290443Y-99954481D01*
X170224260Y-99961000D01*
X170135740Y-99961000D01*
X170069557Y-99954481D01*
X170003373Y-99947963D01*
X169890147Y-99913616D01*
X169833533Y-99896443D01*
X169677011Y-99812779D01*
X169677009Y-99812778D01*
X169641271Y-99783448D01*
X169539814Y-99700186D01*
X169456552Y-99598729D01*
X169427222Y-99562991D01*
X169396755Y-99505992D01*
X169343557Y-99406467D01*
X169326384Y-99349853D01*
X169292037Y-99236627D01*
X169274641Y-99060000D01*
X169292037Y-98883373D01*
X169326384Y-98770147D01*
X169343557Y-98713533D01*
X169427221Y-98557011D01*
X169427222Y-98557009D01*
X169456552Y-98521271D01*
X169539814Y-98419814D01*
X169641271Y-98336552D01*
X169677009Y-98307222D01*
X169694913Y-98297652D01*
X169833533Y-98223557D01*
X169890147Y-98206384D01*
X170003373Y-98172037D01*
X170069557Y-98165519D01*
X170135740Y-98159000D01*
X170224260Y-98159000D01*
X170290443Y-98165519D01*
X170290443Y-98165519D01*
G37*
G36*
X158929272Y-95533428D02*
X159115992Y-95610770D01*
X159284040Y-95723056D01*
X159426944Y-95865960D01*
X159539230Y-96034008D01*
X159616572Y-96220728D01*
X159656000Y-96418946D01*
X159656000Y-96621054D01*
X159616572Y-96819272D01*
X159539230Y-97005992D01*
X159426944Y-97174040D01*
X159284040Y-97316944D01*
X159115992Y-97429230D01*
X158929272Y-97506572D01*
X158731054Y-97546000D01*
X158528946Y-97546000D01*
X158330728Y-97506572D01*
X158144008Y-97429230D01*
X157975960Y-97316944D01*
X157833056Y-97174040D01*
X157720770Y-97005992D01*
X157643428Y-96819272D01*
X157604000Y-96621054D01*
X157604000Y-96418946D01*
X157643428Y-96220728D01*
X157720770Y-96034008D01*
X157833056Y-95865960D01*
X157975960Y-95723056D01*
X158144008Y-95610770D01*
X158330728Y-95533428D01*
X158528946Y-95494000D01*
X158731054Y-95494000D01*
X158929272Y-95533428D01*
X158929272Y-95533428D01*
G37*
G36*
X166429272Y-95533428D02*
X166615992Y-95610770D01*
X166784040Y-95723056D01*
X166926944Y-95865960D01*
X167039230Y-96034008D01*
X167116572Y-96220728D01*
X167156000Y-96418946D01*
X167156000Y-96621054D01*
X167116572Y-96819272D01*
X167039230Y-97005992D01*
X166926944Y-97174040D01*
X166784040Y-97316944D01*
X166615992Y-97429230D01*
X166429272Y-97506572D01*
X166231054Y-97546000D01*
X166028946Y-97546000D01*
X165830728Y-97506572D01*
X165644008Y-97429230D01*
X165475960Y-97316944D01*
X165333056Y-97174040D01*
X165220770Y-97005992D01*
X165143428Y-96819272D01*
X165104000Y-96621054D01*
X165104000Y-96418946D01*
X165143428Y-96220728D01*
X165220770Y-96034008D01*
X165333056Y-95865960D01*
X165475960Y-95723056D01*
X165644008Y-95610770D01*
X165830728Y-95533428D01*
X166028946Y-95494000D01*
X166231054Y-95494000D01*
X166429272Y-95533428D01*
X166429272Y-95533428D01*
G37*
G36*
X151429272Y-95533428D02*
X151615992Y-95610770D01*
X151784040Y-95723056D01*
X151926944Y-95865960D01*
X152039230Y-96034008D01*
X152116572Y-96220728D01*
X152156000Y-96418946D01*
X152156000Y-96621054D01*
X152116572Y-96819272D01*
X152039230Y-97005992D01*
X151926944Y-97174040D01*
X151784040Y-97316944D01*
X151615992Y-97429230D01*
X151429272Y-97506572D01*
X151231054Y-97546000D01*
X151028946Y-97546000D01*
X150830728Y-97506572D01*
X150644008Y-97429230D01*
X150475960Y-97316944D01*
X150333056Y-97174040D01*
X150220770Y-97005992D01*
X150143428Y-96819272D01*
X150104000Y-96621054D01*
X150104000Y-96418946D01*
X150143428Y-96220728D01*
X150220770Y-96034008D01*
X150333056Y-95865960D01*
X150475960Y-95723056D01*
X150644008Y-95610770D01*
X150830728Y-95533428D01*
X151028946Y-95494000D01*
X151231054Y-95494000D01*
X151429272Y-95533428D01*
X151429272Y-95533428D01*
G37*
G36*
X146349272Y-95533428D02*
X146535992Y-95610770D01*
X146704040Y-95723056D01*
X146846944Y-95865960D01*
X146959230Y-96034008D01*
X147036572Y-96220728D01*
X147076000Y-96418946D01*
X147076000Y-96621054D01*
X147036572Y-96819272D01*
X146959230Y-97005992D01*
X146846944Y-97174040D01*
X146704040Y-97316944D01*
X146535992Y-97429230D01*
X146349272Y-97506572D01*
X146151054Y-97546000D01*
X145948946Y-97546000D01*
X145750728Y-97506572D01*
X145564008Y-97429230D01*
X145395960Y-97316944D01*
X145253056Y-97174040D01*
X145140770Y-97005992D01*
X145063428Y-96819272D01*
X145024000Y-96621054D01*
X145024000Y-96418946D01*
X145063428Y-96220728D01*
X145140770Y-96034008D01*
X145253056Y-95865960D01*
X145395960Y-95723056D01*
X145564008Y-95610770D01*
X145750728Y-95533428D01*
X145948946Y-95494000D01*
X146151054Y-95494000D01*
X146349272Y-95533428D01*
X146349272Y-95533428D01*
G37*
G36*
X131349272Y-95533428D02*
X131535992Y-95610770D01*
X131704040Y-95723056D01*
X131846944Y-95865960D01*
X131959230Y-96034008D01*
X132036572Y-96220728D01*
X132076000Y-96418946D01*
X132076000Y-96621054D01*
X132036572Y-96819272D01*
X131959230Y-97005992D01*
X131846944Y-97174040D01*
X131704040Y-97316944D01*
X131535992Y-97429230D01*
X131349272Y-97506572D01*
X131151054Y-97546000D01*
X130948946Y-97546000D01*
X130750728Y-97506572D01*
X130564008Y-97429230D01*
X130395960Y-97316944D01*
X130253056Y-97174040D01*
X130140770Y-97005992D01*
X130063428Y-96819272D01*
X130024000Y-96621054D01*
X130024000Y-96418946D01*
X130063428Y-96220728D01*
X130140770Y-96034008D01*
X130253056Y-95865960D01*
X130395960Y-95723056D01*
X130564008Y-95610770D01*
X130750728Y-95533428D01*
X130948946Y-95494000D01*
X131151054Y-95494000D01*
X131349272Y-95533428D01*
X131349272Y-95533428D01*
G37*
G36*
X138849272Y-95533428D02*
X139035992Y-95610770D01*
X139204040Y-95723056D01*
X139346944Y-95865960D01*
X139459230Y-96034008D01*
X139536572Y-96220728D01*
X139576000Y-96418946D01*
X139576000Y-96621054D01*
X139536572Y-96819272D01*
X139459230Y-97005992D01*
X139346944Y-97174040D01*
X139204040Y-97316944D01*
X139035992Y-97429230D01*
X138849272Y-97506572D01*
X138651054Y-97546000D01*
X138448946Y-97546000D01*
X138250728Y-97506572D01*
X138064008Y-97429230D01*
X137895960Y-97316944D01*
X137753056Y-97174040D01*
X137640770Y-97005992D01*
X137563428Y-96819272D01*
X137524000Y-96621054D01*
X137524000Y-96418946D01*
X137563428Y-96220728D01*
X137640770Y-96034008D01*
X137753056Y-95865960D01*
X137895960Y-95723056D01*
X138064008Y-95610770D01*
X138250728Y-95533428D01*
X138448946Y-95494000D01*
X138651054Y-95494000D01*
X138849272Y-95533428D01*
X138849272Y-95533428D01*
G37*
G36*
X127901000Y-97421000D02*
X126099000Y-97421000D01*
X126099000Y-95619000D01*
X127901000Y-95619000D01*
X127901000Y-97421000D01*
X127901000Y-97421000D01*
G37*
G36*
X171081000Y-97421000D02*
X169279000Y-97421000D01*
X169279000Y-95619000D01*
X171081000Y-95619000D01*
X171081000Y-97421000D01*
X171081000Y-97421000D01*
G37*
G36*
X151313635Y-90281019D02*
X151494903Y-90317075D01*
X151722571Y-90411378D01*
X151926542Y-90547668D01*
X151927469Y-90548287D01*
X152101713Y-90722531D01*
X152101715Y-90722534D01*
X152238622Y-90927429D01*
X152332925Y-91155097D01*
X152381000Y-91396787D01*
X152381000Y-91643213D01*
X152332925Y-91884903D01*
X152238622Y-92112571D01*
X152102332Y-92316542D01*
X152101713Y-92317469D01*
X151927469Y-92491713D01*
X151927466Y-92491715D01*
X151722571Y-92628622D01*
X151494903Y-92722925D01*
X151313635Y-92758981D01*
X151253214Y-92771000D01*
X151006786Y-92771000D01*
X150946364Y-92758981D01*
X150765097Y-92722925D01*
X150537429Y-92628622D01*
X150332534Y-92491715D01*
X150332531Y-92491713D01*
X150158287Y-92317469D01*
X150157668Y-92316542D01*
X150021378Y-92112571D01*
X149927075Y-91884903D01*
X149879000Y-91643213D01*
X149879000Y-91396787D01*
X149927075Y-91155097D01*
X150021378Y-90927429D01*
X150158285Y-90722534D01*
X150158287Y-90722531D01*
X150332531Y-90548287D01*
X150333458Y-90547668D01*
X150537429Y-90411378D01*
X150765097Y-90317075D01*
X150946365Y-90281019D01*
X151006786Y-90269000D01*
X151253214Y-90269000D01*
X151313635Y-90281019D01*
X151313635Y-90281019D01*
G37*
G36*
X131233635Y-90281019D02*
X131414903Y-90317075D01*
X131642571Y-90411378D01*
X131846542Y-90547668D01*
X131847469Y-90548287D01*
X132021713Y-90722531D01*
X132021715Y-90722534D01*
X132158622Y-90927429D01*
X132252925Y-91155097D01*
X132301000Y-91396787D01*
X132301000Y-91643213D01*
X132252925Y-91884903D01*
X132158622Y-92112571D01*
X132022332Y-92316542D01*
X132021713Y-92317469D01*
X131847469Y-92491713D01*
X131847466Y-92491715D01*
X131642571Y-92628622D01*
X131414903Y-92722925D01*
X131233635Y-92758981D01*
X131173214Y-92771000D01*
X130926786Y-92771000D01*
X130866364Y-92758981D01*
X130685097Y-92722925D01*
X130457429Y-92628622D01*
X130252534Y-92491715D01*
X130252531Y-92491713D01*
X130078287Y-92317469D01*
X130077668Y-92316542D01*
X129941378Y-92112571D01*
X129847075Y-91884903D01*
X129799000Y-91643213D01*
X129799000Y-91396787D01*
X129847075Y-91155097D01*
X129941378Y-90927429D01*
X130078285Y-90722534D01*
X130078287Y-90722531D01*
X130252531Y-90548287D01*
X130253458Y-90547668D01*
X130457429Y-90411378D01*
X130685097Y-90317075D01*
X130866365Y-90281019D01*
X130926786Y-90269000D01*
X131173214Y-90269000D01*
X131233635Y-90281019D01*
X131233635Y-90281019D01*
G37*
G36*
X146233635Y-90281019D02*
X146414903Y-90317075D01*
X146642571Y-90411378D01*
X146846542Y-90547668D01*
X146847469Y-90548287D01*
X147021713Y-90722531D01*
X147021715Y-90722534D01*
X147158622Y-90927429D01*
X147252925Y-91155097D01*
X147301000Y-91396787D01*
X147301000Y-91643213D01*
X147252925Y-91884903D01*
X147158622Y-92112571D01*
X147022332Y-92316542D01*
X147021713Y-92317469D01*
X146847469Y-92491713D01*
X146847466Y-92491715D01*
X146642571Y-92628622D01*
X146414903Y-92722925D01*
X146233635Y-92758981D01*
X146173214Y-92771000D01*
X145926786Y-92771000D01*
X145866364Y-92758981D01*
X145685097Y-92722925D01*
X145457429Y-92628622D01*
X145252534Y-92491715D01*
X145252531Y-92491713D01*
X145078287Y-92317469D01*
X145077668Y-92316542D01*
X144941378Y-92112571D01*
X144847075Y-91884903D01*
X144799000Y-91643213D01*
X144799000Y-91396787D01*
X144847075Y-91155097D01*
X144941378Y-90927429D01*
X145078285Y-90722534D01*
X145078287Y-90722531D01*
X145252531Y-90548287D01*
X145253458Y-90547668D01*
X145457429Y-90411378D01*
X145685097Y-90317075D01*
X145866365Y-90281019D01*
X145926786Y-90269000D01*
X146173214Y-90269000D01*
X146233635Y-90281019D01*
X146233635Y-90281019D01*
G37*
G36*
X166313635Y-90281019D02*
X166494903Y-90317075D01*
X166722571Y-90411378D01*
X166926542Y-90547668D01*
X166927469Y-90548287D01*
X167101713Y-90722531D01*
X167101715Y-90722534D01*
X167238622Y-90927429D01*
X167332925Y-91155097D01*
X167381000Y-91396787D01*
X167381000Y-91643213D01*
X167332925Y-91884903D01*
X167238622Y-92112571D01*
X167102332Y-92316542D01*
X167101713Y-92317469D01*
X166927469Y-92491713D01*
X166927466Y-92491715D01*
X166722571Y-92628622D01*
X166494903Y-92722925D01*
X166313635Y-92758981D01*
X166253214Y-92771000D01*
X166006786Y-92771000D01*
X165946364Y-92758981D01*
X165765097Y-92722925D01*
X165537429Y-92628622D01*
X165332534Y-92491715D01*
X165332531Y-92491713D01*
X165158287Y-92317469D01*
X165157668Y-92316542D01*
X165021378Y-92112571D01*
X164927075Y-91884903D01*
X164879000Y-91643213D01*
X164879000Y-91396787D01*
X164927075Y-91155097D01*
X165021378Y-90927429D01*
X165158285Y-90722534D01*
X165158287Y-90722531D01*
X165332531Y-90548287D01*
X165333458Y-90547668D01*
X165537429Y-90411378D01*
X165765097Y-90317075D01*
X165946365Y-90281019D01*
X166006786Y-90269000D01*
X166253214Y-90269000D01*
X166313635Y-90281019D01*
X166313635Y-90281019D01*
G37*
G36*
X141349272Y-85533428D02*
X141535992Y-85610770D01*
X141704040Y-85723056D01*
X141846944Y-85865960D01*
X141959230Y-86034008D01*
X142036572Y-86220728D01*
X142076000Y-86418946D01*
X142076000Y-86621054D01*
X142036572Y-86819272D01*
X141959230Y-87005992D01*
X141846944Y-87174040D01*
X141704040Y-87316944D01*
X141535992Y-87429230D01*
X141349272Y-87506572D01*
X141151054Y-87546000D01*
X140948946Y-87546000D01*
X140750728Y-87506572D01*
X140564008Y-87429230D01*
X140395960Y-87316944D01*
X140253056Y-87174040D01*
X140140770Y-87005992D01*
X140063428Y-86819272D01*
X140024000Y-86621054D01*
X140024000Y-86418946D01*
X140063428Y-86220728D01*
X140140770Y-86034008D01*
X140253056Y-85865960D01*
X140395960Y-85723056D01*
X140564008Y-85610770D01*
X140750728Y-85533428D01*
X140948946Y-85494000D01*
X141151054Y-85494000D01*
X141349272Y-85533428D01*
X141349272Y-85533428D01*
G37*
G36*
X136349272Y-85533428D02*
X136535992Y-85610770D01*
X136704040Y-85723056D01*
X136846944Y-85865960D01*
X136959230Y-86034008D01*
X137036572Y-86220728D01*
X137076000Y-86418946D01*
X137076000Y-86621054D01*
X137036572Y-86819272D01*
X136959230Y-87005992D01*
X136846944Y-87174040D01*
X136704040Y-87316944D01*
X136535992Y-87429230D01*
X136349272Y-87506572D01*
X136151054Y-87546000D01*
X135948946Y-87546000D01*
X135750728Y-87506572D01*
X135564008Y-87429230D01*
X135395960Y-87316944D01*
X135253056Y-87174040D01*
X135140770Y-87005992D01*
X135063428Y-86819272D01*
X135024000Y-86621054D01*
X135024000Y-86418946D01*
X135063428Y-86220728D01*
X135140770Y-86034008D01*
X135253056Y-85865960D01*
X135395960Y-85723056D01*
X135564008Y-85610770D01*
X135750728Y-85533428D01*
X135948946Y-85494000D01*
X136151054Y-85494000D01*
X136349272Y-85533428D01*
X136349272Y-85533428D01*
G37*
G36*
X161429272Y-85533428D02*
X161615992Y-85610770D01*
X161784040Y-85723056D01*
X161926944Y-85865960D01*
X162039230Y-86034008D01*
X162116572Y-86220728D01*
X162156000Y-86418946D01*
X162156000Y-86621054D01*
X162116572Y-86819272D01*
X162039230Y-87005992D01*
X161926944Y-87174040D01*
X161784040Y-87316944D01*
X161615992Y-87429230D01*
X161429272Y-87506572D01*
X161231054Y-87546000D01*
X161028946Y-87546000D01*
X160830728Y-87506572D01*
X160644008Y-87429230D01*
X160475960Y-87316944D01*
X160333056Y-87174040D01*
X160220770Y-87005992D01*
X160143428Y-86819272D01*
X160104000Y-86621054D01*
X160104000Y-86418946D01*
X160143428Y-86220728D01*
X160220770Y-86034008D01*
X160333056Y-85865960D01*
X160475960Y-85723056D01*
X160644008Y-85610770D01*
X160830728Y-85533428D01*
X161028946Y-85494000D01*
X161231054Y-85494000D01*
X161429272Y-85533428D01*
X161429272Y-85533428D01*
G37*
G36*
X156429272Y-85533428D02*
X156615992Y-85610770D01*
X156784040Y-85723056D01*
X156926944Y-85865960D01*
X157039230Y-86034008D01*
X157116572Y-86220728D01*
X157156000Y-86418946D01*
X157156000Y-86621054D01*
X157116572Y-86819272D01*
X157039230Y-87005992D01*
X156926944Y-87174040D01*
X156784040Y-87316944D01*
X156615992Y-87429230D01*
X156429272Y-87506572D01*
X156231054Y-87546000D01*
X156028946Y-87546000D01*
X155830728Y-87506572D01*
X155644008Y-87429230D01*
X155475960Y-87316944D01*
X155333056Y-87174040D01*
X155220770Y-87005992D01*
X155143428Y-86819272D01*
X155104000Y-86621054D01*
X155104000Y-86418946D01*
X155143428Y-86220728D01*
X155220770Y-86034008D01*
X155333056Y-85865960D01*
X155475960Y-85723056D01*
X155644008Y-85610770D01*
X155830728Y-85533428D01*
X156028946Y-85494000D01*
X156231054Y-85494000D01*
X156429272Y-85533428D01*
X156429272Y-85533428D01*
G37*
M02*
