G04 #@! TF.GenerationSoftware,KiCad,Pcbnew,(5.1.4)-1*
G04 #@! TF.CreationDate,2020-12-21T11:36:29-05:00*
G04 #@! TF.ProjectId,breadboard_midi,62726561-6462-46f6-9172-645f6d696469,rev?*
G04 #@! TF.SameCoordinates,Original*
G04 #@! TF.FileFunction,Copper,L2,Bot*
G04 #@! TF.FilePolarity,Positive*
%FSLAX46Y46*%
G04 Gerber Fmt 4.6, Leading zero omitted, Abs format (unit mm)*
G04 Created by KiCad (PCBNEW (5.1.4)-1) date 2020-12-21 11:36:29*
%MOMM*%
%LPD*%
G04 APERTURE LIST*
%ADD10O,1.700000X1.700000*%
%ADD11R,1.700000X1.700000*%
%ADD12O,1.600000X1.600000*%
%ADD13R,1.600000X1.600000*%
%ADD14C,1.950000*%
%ADD15C,1.600000*%
%ADD16C,0.500000*%
%ADD17C,0.254000*%
G04 APERTURE END LIST*
D10*
X152400000Y-111760000D03*
X149860000Y-111760000D03*
X147320000Y-111760000D03*
D11*
X144780000Y-111760000D03*
D12*
X129540000Y-111760000D03*
D13*
X129540000Y-104140000D03*
D12*
X139700000Y-104140000D03*
X132080000Y-111760000D03*
X139700000Y-106680000D03*
X132080000Y-109220000D03*
X139700000Y-109220000D03*
X132080000Y-106680000D03*
X139700000Y-111760000D03*
D13*
X132080000Y-104140000D03*
D10*
X129540000Y-114300000D03*
D11*
X127000000Y-114300000D03*
X127000000Y-96520000D03*
D10*
X127000000Y-99060000D03*
D14*
X156130000Y-86520000D03*
X161130000Y-86520000D03*
X166130000Y-96520000D03*
X163630000Y-99020000D03*
X151130000Y-96520000D03*
X153630000Y-99020000D03*
X158630000Y-96520000D03*
D11*
X170180000Y-114300000D03*
D10*
X167640000Y-114300000D03*
X170180000Y-99060000D03*
D11*
X170180000Y-96520000D03*
D12*
X167640000Y-106680000D03*
D15*
X157480000Y-106680000D03*
D12*
X157480000Y-104140000D03*
D15*
X167640000Y-104140000D03*
D12*
X127000000Y-101600000D03*
D15*
X127000000Y-111760000D03*
D12*
X153670000Y-101600000D03*
D15*
X143510000Y-101600000D03*
D10*
X152400000Y-114300000D03*
X149860000Y-114300000D03*
X147320000Y-114300000D03*
D11*
X144780000Y-114300000D03*
D14*
X136050000Y-86520000D03*
X141050000Y-86520000D03*
X146050000Y-96520000D03*
X143550000Y-99020000D03*
X131050000Y-96520000D03*
X133550000Y-99020000D03*
X138550000Y-96520000D03*
D15*
X160020000Y-109260000D03*
X160020000Y-111760000D03*
X137200000Y-101600000D03*
X139700000Y-101600000D03*
X132080000Y-101600000D03*
X134580000Y-101600000D03*
D16*
X144780000Y-109220000D02*
X139700000Y-104140000D01*
X144780000Y-111760000D02*
X144780000Y-109220000D01*
X148590000Y-106680000D02*
X143510000Y-101600000D01*
X157480000Y-106680000D02*
X148590000Y-106680000D01*
D17*
G36*
X170765000Y-95031928D02*
G01*
X169330000Y-95031928D01*
X169205518Y-95044188D01*
X169085820Y-95080498D01*
X168975506Y-95139463D01*
X168878815Y-95218815D01*
X168799463Y-95315506D01*
X168740498Y-95425820D01*
X168704188Y-95545518D01*
X168691928Y-95670000D01*
X168691928Y-97370000D01*
X168704188Y-97494482D01*
X168740498Y-97614180D01*
X168799463Y-97724494D01*
X168878815Y-97821185D01*
X168975506Y-97900537D01*
X169085820Y-97959502D01*
X169154687Y-97980393D01*
X169124866Y-98004866D01*
X168939294Y-98230986D01*
X168801401Y-98488966D01*
X168716487Y-98768889D01*
X168687815Y-99060000D01*
X168716487Y-99351111D01*
X168801401Y-99631034D01*
X168939294Y-99889014D01*
X169124866Y-100115134D01*
X169350986Y-100300706D01*
X169608966Y-100438599D01*
X169888889Y-100523513D01*
X170107050Y-100545000D01*
X170252950Y-100545000D01*
X170471111Y-100523513D01*
X170751034Y-100438599D01*
X170765001Y-100431134D01*
X170765001Y-112811928D01*
X169330000Y-112811928D01*
X169205518Y-112824188D01*
X169085820Y-112860498D01*
X168975506Y-112919463D01*
X168878815Y-112998815D01*
X168799463Y-113095506D01*
X168740498Y-113205820D01*
X168719607Y-113274687D01*
X168695134Y-113244866D01*
X168469014Y-113059294D01*
X168211034Y-112921401D01*
X167931111Y-112836487D01*
X167712950Y-112815000D01*
X167567050Y-112815000D01*
X167348889Y-112836487D01*
X167068966Y-112921401D01*
X166810986Y-113059294D01*
X166584866Y-113244866D01*
X166399294Y-113470986D01*
X166261401Y-113728966D01*
X166176487Y-114008889D01*
X166147815Y-114300000D01*
X166176487Y-114591111D01*
X166261401Y-114871034D01*
X166268866Y-114885000D01*
X153771134Y-114885000D01*
X153778599Y-114871034D01*
X153863513Y-114591111D01*
X153892185Y-114300000D01*
X153863513Y-114008889D01*
X153778599Y-113728966D01*
X153640706Y-113470986D01*
X153455134Y-113244866D01*
X153229014Y-113059294D01*
X153174209Y-113030000D01*
X153229014Y-113000706D01*
X153455134Y-112815134D01*
X153506370Y-112752702D01*
X159206903Y-112752702D01*
X159278486Y-112996671D01*
X159533996Y-113117571D01*
X159808184Y-113186300D01*
X160090512Y-113200217D01*
X160370130Y-113158787D01*
X160636292Y-113063603D01*
X160761514Y-112996671D01*
X160833097Y-112752702D01*
X160020000Y-111939605D01*
X159206903Y-112752702D01*
X153506370Y-112752702D01*
X153640706Y-112589014D01*
X153778599Y-112331034D01*
X153863513Y-112051111D01*
X153885240Y-111830512D01*
X158579783Y-111830512D01*
X158621213Y-112110130D01*
X158716397Y-112376292D01*
X158783329Y-112501514D01*
X159027298Y-112573097D01*
X159840395Y-111760000D01*
X160199605Y-111760000D01*
X161012702Y-112573097D01*
X161256671Y-112501514D01*
X161377571Y-112246004D01*
X161446300Y-111971816D01*
X161460217Y-111689488D01*
X161418787Y-111409870D01*
X161323603Y-111143708D01*
X161256671Y-111018486D01*
X161012702Y-110946903D01*
X160199605Y-111760000D01*
X159840395Y-111760000D01*
X159027298Y-110946903D01*
X158783329Y-111018486D01*
X158662429Y-111273996D01*
X158593700Y-111548184D01*
X158579783Y-111830512D01*
X153885240Y-111830512D01*
X153892185Y-111760000D01*
X153863513Y-111468889D01*
X153778599Y-111188966D01*
X153640706Y-110930986D01*
X153455134Y-110704866D01*
X153229014Y-110519294D01*
X152971034Y-110381401D01*
X152691111Y-110296487D01*
X152472950Y-110275000D01*
X152327050Y-110275000D01*
X152108889Y-110296487D01*
X151828966Y-110381401D01*
X151570986Y-110519294D01*
X151344866Y-110704866D01*
X151159294Y-110930986D01*
X151130000Y-110985791D01*
X151100706Y-110930986D01*
X150915134Y-110704866D01*
X150689014Y-110519294D01*
X150431034Y-110381401D01*
X150151111Y-110296487D01*
X149932950Y-110275000D01*
X149787050Y-110275000D01*
X149568889Y-110296487D01*
X149288966Y-110381401D01*
X149030986Y-110519294D01*
X148804866Y-110704866D01*
X148619294Y-110930986D01*
X148584799Y-110995523D01*
X148515178Y-110878645D01*
X148320269Y-110662412D01*
X148086920Y-110488359D01*
X147824099Y-110363175D01*
X147676890Y-110318524D01*
X147447000Y-110439845D01*
X147447000Y-111633000D01*
X147467000Y-111633000D01*
X147467000Y-111887000D01*
X147447000Y-111887000D01*
X147447000Y-114173000D01*
X147467000Y-114173000D01*
X147467000Y-114427000D01*
X147447000Y-114427000D01*
X147447000Y-114447000D01*
X147193000Y-114447000D01*
X147193000Y-114427000D01*
X147173000Y-114427000D01*
X147173000Y-114173000D01*
X147193000Y-114173000D01*
X147193000Y-111887000D01*
X147173000Y-111887000D01*
X147173000Y-111633000D01*
X147193000Y-111633000D01*
X147193000Y-110439845D01*
X146963110Y-110318524D01*
X146815901Y-110363175D01*
X146553080Y-110488359D01*
X146319731Y-110662412D01*
X146243966Y-110746466D01*
X146219502Y-110665820D01*
X146160537Y-110555506D01*
X146081185Y-110458815D01*
X145984494Y-110379463D01*
X145874180Y-110320498D01*
X145754482Y-110284188D01*
X145665000Y-110275375D01*
X145665000Y-109263469D01*
X145669281Y-109220000D01*
X145665000Y-109176531D01*
X145665000Y-109176523D01*
X145659302Y-109118665D01*
X158585000Y-109118665D01*
X158585000Y-109401335D01*
X158640147Y-109678574D01*
X158748320Y-109939727D01*
X158905363Y-110174759D01*
X159105241Y-110374637D01*
X159305869Y-110508692D01*
X159278486Y-110523329D01*
X159206903Y-110767298D01*
X160020000Y-111580395D01*
X160833097Y-110767298D01*
X160761514Y-110523329D01*
X160732659Y-110509676D01*
X160934759Y-110374637D01*
X161134637Y-110174759D01*
X161291680Y-109939727D01*
X161399853Y-109678574D01*
X161455000Y-109401335D01*
X161455000Y-109118665D01*
X161399853Y-108841426D01*
X161291680Y-108580273D01*
X161134637Y-108345241D01*
X160934759Y-108145363D01*
X160699727Y-107988320D01*
X160438574Y-107880147D01*
X160161335Y-107825000D01*
X159878665Y-107825000D01*
X159601426Y-107880147D01*
X159340273Y-107988320D01*
X159105241Y-108145363D01*
X158905363Y-108345241D01*
X158748320Y-108580273D01*
X158640147Y-108841426D01*
X158585000Y-109118665D01*
X145659302Y-109118665D01*
X145652195Y-109046510D01*
X145601589Y-108879687D01*
X145519411Y-108725941D01*
X145408817Y-108591183D01*
X145375049Y-108563470D01*
X141124875Y-104313296D01*
X141141943Y-104140000D01*
X141114236Y-103858691D01*
X141032182Y-103588192D01*
X140898932Y-103338899D01*
X140719608Y-103120392D01*
X140501101Y-102941068D01*
X140374971Y-102873650D01*
X140379727Y-102871680D01*
X140614759Y-102714637D01*
X140814637Y-102514759D01*
X140971680Y-102279727D01*
X141079853Y-102018574D01*
X141135000Y-101741335D01*
X141135000Y-101458665D01*
X141079853Y-101181426D01*
X140971680Y-100920273D01*
X140814637Y-100685241D01*
X140614759Y-100485363D01*
X140379727Y-100328320D01*
X140118574Y-100220147D01*
X139841335Y-100165000D01*
X139558665Y-100165000D01*
X139281426Y-100220147D01*
X139020273Y-100328320D01*
X138785241Y-100485363D01*
X138585363Y-100685241D01*
X138451308Y-100885869D01*
X138436671Y-100858486D01*
X138192702Y-100786903D01*
X137379605Y-101600000D01*
X138192702Y-102413097D01*
X138436671Y-102341514D01*
X138450324Y-102312659D01*
X138585363Y-102514759D01*
X138785241Y-102714637D01*
X139020273Y-102871680D01*
X139025029Y-102873650D01*
X138898899Y-102941068D01*
X138680392Y-103120392D01*
X138501068Y-103338899D01*
X138367818Y-103588192D01*
X138285764Y-103858691D01*
X138258057Y-104140000D01*
X138285764Y-104421309D01*
X138367818Y-104691808D01*
X138501068Y-104941101D01*
X138680392Y-105159608D01*
X138898899Y-105338932D01*
X139031858Y-105410000D01*
X138898899Y-105481068D01*
X138680392Y-105660392D01*
X138501068Y-105878899D01*
X138367818Y-106128192D01*
X138285764Y-106398691D01*
X138258057Y-106680000D01*
X138285764Y-106961309D01*
X138367818Y-107231808D01*
X138501068Y-107481101D01*
X138680392Y-107699608D01*
X138898899Y-107878932D01*
X139031858Y-107950000D01*
X138898899Y-108021068D01*
X138680392Y-108200392D01*
X138501068Y-108418899D01*
X138367818Y-108668192D01*
X138285764Y-108938691D01*
X138258057Y-109220000D01*
X138285764Y-109501309D01*
X138367818Y-109771808D01*
X138501068Y-110021101D01*
X138680392Y-110239608D01*
X138898899Y-110418932D01*
X139036682Y-110492579D01*
X138844869Y-110607615D01*
X138636481Y-110796586D01*
X138468963Y-111022580D01*
X138348754Y-111276913D01*
X138308096Y-111410961D01*
X138430085Y-111633000D01*
X139573000Y-111633000D01*
X139573000Y-111613000D01*
X139827000Y-111613000D01*
X139827000Y-111633000D01*
X140969915Y-111633000D01*
X141091904Y-111410961D01*
X141051246Y-111276913D01*
X140931037Y-111022580D01*
X140763519Y-110796586D01*
X140555131Y-110607615D01*
X140363318Y-110492579D01*
X140501101Y-110418932D01*
X140719608Y-110239608D01*
X140898932Y-110021101D01*
X141032182Y-109771808D01*
X141114236Y-109501309D01*
X141141943Y-109220000D01*
X141114236Y-108938691D01*
X141032182Y-108668192D01*
X140898932Y-108418899D01*
X140719608Y-108200392D01*
X140501101Y-108021068D01*
X140368142Y-107950000D01*
X140501101Y-107878932D01*
X140719608Y-107699608D01*
X140898932Y-107481101D01*
X141032182Y-107231808D01*
X141114236Y-106961309D01*
X141128178Y-106819756D01*
X143895001Y-109586580D01*
X143895001Y-110275375D01*
X143805518Y-110284188D01*
X143685820Y-110320498D01*
X143575506Y-110379463D01*
X143478815Y-110458815D01*
X143399463Y-110555506D01*
X143340498Y-110665820D01*
X143304188Y-110785518D01*
X143291928Y-110910000D01*
X143291928Y-112610000D01*
X143304188Y-112734482D01*
X143340498Y-112854180D01*
X143399463Y-112964494D01*
X143453222Y-113030000D01*
X143399463Y-113095506D01*
X143340498Y-113205820D01*
X143304188Y-113325518D01*
X143291928Y-113450000D01*
X143291928Y-114885000D01*
X130911134Y-114885000D01*
X130918599Y-114871034D01*
X131003513Y-114591111D01*
X131032185Y-114300000D01*
X131003513Y-114008889D01*
X130918599Y-113728966D01*
X130780706Y-113470986D01*
X130595134Y-113244866D01*
X130369014Y-113059294D01*
X130261175Y-113001653D01*
X130341101Y-112958932D01*
X130559608Y-112779608D01*
X130738932Y-112561101D01*
X130810000Y-112428142D01*
X130881068Y-112561101D01*
X131060392Y-112779608D01*
X131278899Y-112958932D01*
X131528192Y-113092182D01*
X131798691Y-113174236D01*
X132009508Y-113195000D01*
X132150492Y-113195000D01*
X132361309Y-113174236D01*
X132631808Y-113092182D01*
X132881101Y-112958932D01*
X133099608Y-112779608D01*
X133278932Y-112561101D01*
X133412182Y-112311808D01*
X133473690Y-112109039D01*
X138308096Y-112109039D01*
X138348754Y-112243087D01*
X138468963Y-112497420D01*
X138636481Y-112723414D01*
X138844869Y-112912385D01*
X139086119Y-113057070D01*
X139350960Y-113151909D01*
X139573000Y-113030624D01*
X139573000Y-111887000D01*
X139827000Y-111887000D01*
X139827000Y-113030624D01*
X140049040Y-113151909D01*
X140313881Y-113057070D01*
X140555131Y-112912385D01*
X140763519Y-112723414D01*
X140931037Y-112497420D01*
X141051246Y-112243087D01*
X141091904Y-112109039D01*
X140969915Y-111887000D01*
X139827000Y-111887000D01*
X139573000Y-111887000D01*
X138430085Y-111887000D01*
X138308096Y-112109039D01*
X133473690Y-112109039D01*
X133494236Y-112041309D01*
X133521943Y-111760000D01*
X133494236Y-111478691D01*
X133412182Y-111208192D01*
X133278932Y-110958899D01*
X133099608Y-110740392D01*
X132881101Y-110561068D01*
X132748142Y-110490000D01*
X132881101Y-110418932D01*
X133099608Y-110239608D01*
X133278932Y-110021101D01*
X133412182Y-109771808D01*
X133494236Y-109501309D01*
X133521943Y-109220000D01*
X133494236Y-108938691D01*
X133412182Y-108668192D01*
X133278932Y-108418899D01*
X133099608Y-108200392D01*
X132881101Y-108021068D01*
X132748142Y-107950000D01*
X132881101Y-107878932D01*
X133099608Y-107699608D01*
X133278932Y-107481101D01*
X133412182Y-107231808D01*
X133494236Y-106961309D01*
X133521943Y-106680000D01*
X133494236Y-106398691D01*
X133412182Y-106128192D01*
X133278932Y-105878899D01*
X133099608Y-105660392D01*
X132986518Y-105567581D01*
X133004482Y-105565812D01*
X133124180Y-105529502D01*
X133234494Y-105470537D01*
X133331185Y-105391185D01*
X133410537Y-105294494D01*
X133469502Y-105184180D01*
X133505812Y-105064482D01*
X133518072Y-104940000D01*
X133518072Y-103340000D01*
X133505812Y-103215518D01*
X133469502Y-103095820D01*
X133410537Y-102985506D01*
X133331185Y-102888815D01*
X133234494Y-102809463D01*
X133124180Y-102750498D01*
X133004482Y-102714188D01*
X132880000Y-102701928D01*
X132861049Y-102701928D01*
X132893097Y-102592702D01*
X132080000Y-101779605D01*
X131266903Y-102592702D01*
X131298951Y-102701928D01*
X131280000Y-102701928D01*
X131155518Y-102714188D01*
X131035820Y-102750498D01*
X130925506Y-102809463D01*
X130828815Y-102888815D01*
X130810000Y-102911741D01*
X130791185Y-102888815D01*
X130694494Y-102809463D01*
X130584180Y-102750498D01*
X130464482Y-102714188D01*
X130340000Y-102701928D01*
X128740000Y-102701928D01*
X128615518Y-102714188D01*
X128495820Y-102750498D01*
X128385506Y-102809463D01*
X128288815Y-102888815D01*
X128209463Y-102985506D01*
X128150498Y-103095820D01*
X128114188Y-103215518D01*
X128101928Y-103340000D01*
X128101928Y-104940000D01*
X128114188Y-105064482D01*
X128150498Y-105184180D01*
X128209463Y-105294494D01*
X128288815Y-105391185D01*
X128385506Y-105470537D01*
X128495820Y-105529502D01*
X128615518Y-105565812D01*
X128740000Y-105578072D01*
X130340000Y-105578072D01*
X130464482Y-105565812D01*
X130584180Y-105529502D01*
X130694494Y-105470537D01*
X130791185Y-105391185D01*
X130810000Y-105368259D01*
X130828815Y-105391185D01*
X130925506Y-105470537D01*
X131035820Y-105529502D01*
X131155518Y-105565812D01*
X131173482Y-105567581D01*
X131060392Y-105660392D01*
X130881068Y-105878899D01*
X130747818Y-106128192D01*
X130665764Y-106398691D01*
X130638057Y-106680000D01*
X130665764Y-106961309D01*
X130747818Y-107231808D01*
X130881068Y-107481101D01*
X131060392Y-107699608D01*
X131278899Y-107878932D01*
X131411858Y-107950000D01*
X131278899Y-108021068D01*
X131060392Y-108200392D01*
X130881068Y-108418899D01*
X130747818Y-108668192D01*
X130665764Y-108938691D01*
X130638057Y-109220000D01*
X130665764Y-109501309D01*
X130747818Y-109771808D01*
X130881068Y-110021101D01*
X131060392Y-110239608D01*
X131278899Y-110418932D01*
X131411858Y-110490000D01*
X131278899Y-110561068D01*
X131060392Y-110740392D01*
X130881068Y-110958899D01*
X130810000Y-111091858D01*
X130738932Y-110958899D01*
X130559608Y-110740392D01*
X130341101Y-110561068D01*
X130091808Y-110427818D01*
X129821309Y-110345764D01*
X129610492Y-110325000D01*
X129469508Y-110325000D01*
X129258691Y-110345764D01*
X128988192Y-110427818D01*
X128738899Y-110561068D01*
X128520392Y-110740392D01*
X128341068Y-110958899D01*
X128273650Y-111085029D01*
X128271680Y-111080273D01*
X128114637Y-110845241D01*
X127914759Y-110645363D01*
X127679727Y-110488320D01*
X127418574Y-110380147D01*
X127141335Y-110325000D01*
X126858665Y-110325000D01*
X126581426Y-110380147D01*
X126415000Y-110449083D01*
X126415000Y-102914440D01*
X126448192Y-102932182D01*
X126718691Y-103014236D01*
X126929508Y-103035000D01*
X127070492Y-103035000D01*
X127281309Y-103014236D01*
X127551808Y-102932182D01*
X127801101Y-102798932D01*
X128019608Y-102619608D01*
X128198932Y-102401101D01*
X128332182Y-102151808D01*
X128414236Y-101881309D01*
X128434998Y-101670512D01*
X130639783Y-101670512D01*
X130681213Y-101950130D01*
X130776397Y-102216292D01*
X130843329Y-102341514D01*
X131087298Y-102413097D01*
X131900395Y-101600000D01*
X131087298Y-100786903D01*
X130843329Y-100858486D01*
X130722429Y-101113996D01*
X130653700Y-101388184D01*
X130639783Y-101670512D01*
X128434998Y-101670512D01*
X128441943Y-101600000D01*
X128414236Y-101318691D01*
X128332182Y-101048192D01*
X128198932Y-100798899D01*
X128041690Y-100607298D01*
X131266903Y-100607298D01*
X132080000Y-101420395D01*
X132893097Y-100607298D01*
X132854104Y-100474402D01*
X133080380Y-100568129D01*
X133391429Y-100630000D01*
X133520604Y-100630000D01*
X133465363Y-100685241D01*
X133331308Y-100885869D01*
X133316671Y-100858486D01*
X133072702Y-100786903D01*
X132259605Y-101600000D01*
X133072702Y-102413097D01*
X133316671Y-102341514D01*
X133330324Y-102312659D01*
X133465363Y-102514759D01*
X133665241Y-102714637D01*
X133900273Y-102871680D01*
X134161426Y-102979853D01*
X134438665Y-103035000D01*
X134721335Y-103035000D01*
X134998574Y-102979853D01*
X135259727Y-102871680D01*
X135494759Y-102714637D01*
X135616694Y-102592702D01*
X136386903Y-102592702D01*
X136458486Y-102836671D01*
X136713996Y-102957571D01*
X136988184Y-103026300D01*
X137270512Y-103040217D01*
X137550130Y-102998787D01*
X137816292Y-102903603D01*
X137941514Y-102836671D01*
X138013097Y-102592702D01*
X137200000Y-101779605D01*
X136386903Y-102592702D01*
X135616694Y-102592702D01*
X135694637Y-102514759D01*
X135851680Y-102279727D01*
X135887852Y-102192399D01*
X135896397Y-102216292D01*
X135963329Y-102341514D01*
X136207298Y-102413097D01*
X137020395Y-101600000D01*
X136207298Y-100786903D01*
X135963329Y-100858486D01*
X135890149Y-101013145D01*
X135851680Y-100920273D01*
X135694637Y-100685241D01*
X135616694Y-100607298D01*
X136386903Y-100607298D01*
X137200000Y-101420395D01*
X138013097Y-100607298D01*
X137941514Y-100363329D01*
X137686004Y-100242429D01*
X137411816Y-100173700D01*
X137129488Y-100159783D01*
X136849870Y-100201213D01*
X136583708Y-100296397D01*
X136458486Y-100363329D01*
X136386903Y-100607298D01*
X135616694Y-100607298D01*
X135494759Y-100485363D01*
X135259727Y-100328320D01*
X134998574Y-100220147D01*
X134721335Y-100165000D01*
X134681884Y-100165000D01*
X134800569Y-100046315D01*
X134976763Y-99782621D01*
X135098129Y-99489620D01*
X135160000Y-99178571D01*
X135160000Y-98861429D01*
X141940000Y-98861429D01*
X141940000Y-99178571D01*
X142001871Y-99489620D01*
X142123237Y-99782621D01*
X142299431Y-100046315D01*
X142523685Y-100270569D01*
X142720195Y-100401872D01*
X142595241Y-100485363D01*
X142395363Y-100685241D01*
X142238320Y-100920273D01*
X142130147Y-101181426D01*
X142075000Y-101458665D01*
X142075000Y-101741335D01*
X142130147Y-102018574D01*
X142238320Y-102279727D01*
X142395363Y-102514759D01*
X142595241Y-102714637D01*
X142830273Y-102871680D01*
X143091426Y-102979853D01*
X143368665Y-103035000D01*
X143651335Y-103035000D01*
X143686439Y-103028017D01*
X147933470Y-107275049D01*
X147961183Y-107308817D01*
X147994951Y-107336530D01*
X147994953Y-107336532D01*
X148023216Y-107359727D01*
X148095941Y-107419411D01*
X148249687Y-107501589D01*
X148416510Y-107552195D01*
X148546523Y-107565000D01*
X148546531Y-107565000D01*
X148590000Y-107569281D01*
X148633469Y-107565000D01*
X156345479Y-107565000D01*
X156365363Y-107594759D01*
X156565241Y-107794637D01*
X156800273Y-107951680D01*
X157061426Y-108059853D01*
X157338665Y-108115000D01*
X157621335Y-108115000D01*
X157898574Y-108059853D01*
X158159727Y-107951680D01*
X158394759Y-107794637D01*
X158594637Y-107594759D01*
X158751680Y-107359727D01*
X158859853Y-107098574D01*
X158915000Y-106821335D01*
X158915000Y-106680000D01*
X166198057Y-106680000D01*
X166225764Y-106961309D01*
X166307818Y-107231808D01*
X166441068Y-107481101D01*
X166620392Y-107699608D01*
X166838899Y-107878932D01*
X167088192Y-108012182D01*
X167358691Y-108094236D01*
X167569508Y-108115000D01*
X167710492Y-108115000D01*
X167921309Y-108094236D01*
X168191808Y-108012182D01*
X168441101Y-107878932D01*
X168659608Y-107699608D01*
X168838932Y-107481101D01*
X168972182Y-107231808D01*
X169054236Y-106961309D01*
X169081943Y-106680000D01*
X169054236Y-106398691D01*
X168972182Y-106128192D01*
X168838932Y-105878899D01*
X168659608Y-105660392D01*
X168441101Y-105481068D01*
X168314971Y-105413650D01*
X168319727Y-105411680D01*
X168554759Y-105254637D01*
X168754637Y-105054759D01*
X168911680Y-104819727D01*
X169019853Y-104558574D01*
X169075000Y-104281335D01*
X169075000Y-103998665D01*
X169019853Y-103721426D01*
X168911680Y-103460273D01*
X168754637Y-103225241D01*
X168554759Y-103025363D01*
X168319727Y-102868320D01*
X168058574Y-102760147D01*
X167781335Y-102705000D01*
X167498665Y-102705000D01*
X167221426Y-102760147D01*
X166960273Y-102868320D01*
X166725241Y-103025363D01*
X166525363Y-103225241D01*
X166368320Y-103460273D01*
X166260147Y-103721426D01*
X166205000Y-103998665D01*
X166205000Y-104281335D01*
X166260147Y-104558574D01*
X166368320Y-104819727D01*
X166525363Y-105054759D01*
X166725241Y-105254637D01*
X166960273Y-105411680D01*
X166965029Y-105413650D01*
X166838899Y-105481068D01*
X166620392Y-105660392D01*
X166441068Y-105878899D01*
X166307818Y-106128192D01*
X166225764Y-106398691D01*
X166198057Y-106680000D01*
X158915000Y-106680000D01*
X158915000Y-106538665D01*
X158859853Y-106261426D01*
X158751680Y-106000273D01*
X158594637Y-105765241D01*
X158394759Y-105565363D01*
X158159727Y-105408320D01*
X158154971Y-105406350D01*
X158281101Y-105338932D01*
X158499608Y-105159608D01*
X158678932Y-104941101D01*
X158812182Y-104691808D01*
X158894236Y-104421309D01*
X158921943Y-104140000D01*
X158894236Y-103858691D01*
X158812182Y-103588192D01*
X158678932Y-103338899D01*
X158499608Y-103120392D01*
X158281101Y-102941068D01*
X158031808Y-102807818D01*
X157761309Y-102725764D01*
X157550492Y-102705000D01*
X157409508Y-102705000D01*
X157198691Y-102725764D01*
X156928192Y-102807818D01*
X156678899Y-102941068D01*
X156460392Y-103120392D01*
X156281068Y-103338899D01*
X156147818Y-103588192D01*
X156065764Y-103858691D01*
X156038057Y-104140000D01*
X156065764Y-104421309D01*
X156147818Y-104691808D01*
X156281068Y-104941101D01*
X156460392Y-105159608D01*
X156678899Y-105338932D01*
X156805029Y-105406350D01*
X156800273Y-105408320D01*
X156565241Y-105565363D01*
X156365363Y-105765241D01*
X156345479Y-105795000D01*
X148956579Y-105795000D01*
X144938017Y-101776439D01*
X144945000Y-101741335D01*
X144945000Y-101458665D01*
X144889853Y-101181426D01*
X144781680Y-100920273D01*
X144624637Y-100685241D01*
X144424759Y-100485363D01*
X144339805Y-100428599D01*
X144576315Y-100270569D01*
X144800569Y-100046315D01*
X144976763Y-99782621D01*
X145098129Y-99489620D01*
X145160000Y-99178571D01*
X145160000Y-98861429D01*
X152020000Y-98861429D01*
X152020000Y-99178571D01*
X152081871Y-99489620D01*
X152203237Y-99782621D01*
X152379431Y-100046315D01*
X152603685Y-100270569D01*
X152837525Y-100426816D01*
X152650392Y-100580392D01*
X152471068Y-100798899D01*
X152337818Y-101048192D01*
X152255764Y-101318691D01*
X152228057Y-101600000D01*
X152255764Y-101881309D01*
X152337818Y-102151808D01*
X152471068Y-102401101D01*
X152650392Y-102619608D01*
X152868899Y-102798932D01*
X153118192Y-102932182D01*
X153388691Y-103014236D01*
X153599508Y-103035000D01*
X153740492Y-103035000D01*
X153951309Y-103014236D01*
X154221808Y-102932182D01*
X154471101Y-102798932D01*
X154689608Y-102619608D01*
X154868932Y-102401101D01*
X155002182Y-102151808D01*
X155084236Y-101881309D01*
X155111943Y-101600000D01*
X155084236Y-101318691D01*
X155002182Y-101048192D01*
X154868932Y-100798899D01*
X154689608Y-100580392D01*
X154471101Y-100401068D01*
X154465494Y-100398071D01*
X154656315Y-100270569D01*
X154880569Y-100046315D01*
X155056763Y-99782621D01*
X155178129Y-99489620D01*
X155240000Y-99178571D01*
X155240000Y-98861429D01*
X162020000Y-98861429D01*
X162020000Y-99178571D01*
X162081871Y-99489620D01*
X162203237Y-99782621D01*
X162379431Y-100046315D01*
X162603685Y-100270569D01*
X162867379Y-100446763D01*
X163160380Y-100568129D01*
X163471429Y-100630000D01*
X163788571Y-100630000D01*
X164099620Y-100568129D01*
X164392621Y-100446763D01*
X164656315Y-100270569D01*
X164880569Y-100046315D01*
X165056763Y-99782621D01*
X165178129Y-99489620D01*
X165240000Y-99178571D01*
X165240000Y-98861429D01*
X165178129Y-98550380D01*
X165056763Y-98257379D01*
X164880569Y-97993685D01*
X164656315Y-97769431D01*
X164392621Y-97593237D01*
X164099620Y-97471871D01*
X163788571Y-97410000D01*
X163471429Y-97410000D01*
X163160380Y-97471871D01*
X162867379Y-97593237D01*
X162603685Y-97769431D01*
X162379431Y-97993685D01*
X162203237Y-98257379D01*
X162081871Y-98550380D01*
X162020000Y-98861429D01*
X155240000Y-98861429D01*
X155178129Y-98550380D01*
X155056763Y-98257379D01*
X154880569Y-97993685D01*
X154656315Y-97769431D01*
X154458992Y-97637584D01*
X157692021Y-97637584D01*
X157784766Y-97899429D01*
X158070120Y-98037820D01*
X158376990Y-98117883D01*
X158693584Y-98136540D01*
X159007733Y-98093074D01*
X159307367Y-97989156D01*
X159475234Y-97899429D01*
X159567979Y-97637584D01*
X158630000Y-96699605D01*
X157692021Y-97637584D01*
X154458992Y-97637584D01*
X154392621Y-97593237D01*
X154099620Y-97471871D01*
X153788571Y-97410000D01*
X153471429Y-97410000D01*
X153160380Y-97471871D01*
X152867379Y-97593237D01*
X152603685Y-97769431D01*
X152379431Y-97993685D01*
X152203237Y-98257379D01*
X152081871Y-98550380D01*
X152020000Y-98861429D01*
X145160000Y-98861429D01*
X145098129Y-98550380D01*
X144976763Y-98257379D01*
X144800569Y-97993685D01*
X144576315Y-97769431D01*
X144312621Y-97593237D01*
X144019620Y-97471871D01*
X143708571Y-97410000D01*
X143391429Y-97410000D01*
X143080380Y-97471871D01*
X142787379Y-97593237D01*
X142523685Y-97769431D01*
X142299431Y-97993685D01*
X142123237Y-98257379D01*
X142001871Y-98550380D01*
X141940000Y-98861429D01*
X135160000Y-98861429D01*
X135098129Y-98550380D01*
X134976763Y-98257379D01*
X134800569Y-97993685D01*
X134576315Y-97769431D01*
X134312621Y-97593237D01*
X134019620Y-97471871D01*
X133708571Y-97410000D01*
X133391429Y-97410000D01*
X133080380Y-97471871D01*
X132787379Y-97593237D01*
X132523685Y-97769431D01*
X132299431Y-97993685D01*
X132123237Y-98257379D01*
X132001871Y-98550380D01*
X131940000Y-98861429D01*
X131940000Y-99178571D01*
X132001871Y-99489620D01*
X132123237Y-99782621D01*
X132299431Y-100046315D01*
X132471975Y-100218859D01*
X132291816Y-100173700D01*
X132009488Y-100159783D01*
X131729870Y-100201213D01*
X131463708Y-100296397D01*
X131338486Y-100363329D01*
X131266903Y-100607298D01*
X128041690Y-100607298D01*
X128019608Y-100580392D01*
X127801101Y-100401068D01*
X127721175Y-100358347D01*
X127829014Y-100300706D01*
X128055134Y-100115134D01*
X128240706Y-99889014D01*
X128378599Y-99631034D01*
X128463513Y-99351111D01*
X128492185Y-99060000D01*
X128463513Y-98768889D01*
X128378599Y-98488966D01*
X128240706Y-98230986D01*
X128055134Y-98004866D01*
X128025313Y-97980393D01*
X128094180Y-97959502D01*
X128204494Y-97900537D01*
X128301185Y-97821185D01*
X128380537Y-97724494D01*
X128439502Y-97614180D01*
X128475812Y-97494482D01*
X128488072Y-97370000D01*
X128488072Y-96361429D01*
X129440000Y-96361429D01*
X129440000Y-96678571D01*
X129501871Y-96989620D01*
X129623237Y-97282621D01*
X129799431Y-97546315D01*
X130023685Y-97770569D01*
X130287379Y-97946763D01*
X130580380Y-98068129D01*
X130891429Y-98130000D01*
X131208571Y-98130000D01*
X131519620Y-98068129D01*
X131812621Y-97946763D01*
X132076315Y-97770569D01*
X132300569Y-97546315D01*
X132476763Y-97282621D01*
X132598129Y-96989620D01*
X132660000Y-96678571D01*
X132660000Y-96361429D01*
X136940000Y-96361429D01*
X136940000Y-96678571D01*
X137001871Y-96989620D01*
X137123237Y-97282621D01*
X137299431Y-97546315D01*
X137523685Y-97770569D01*
X137787379Y-97946763D01*
X138080380Y-98068129D01*
X138391429Y-98130000D01*
X138708571Y-98130000D01*
X139019620Y-98068129D01*
X139312621Y-97946763D01*
X139576315Y-97770569D01*
X139800569Y-97546315D01*
X139976763Y-97282621D01*
X140098129Y-96989620D01*
X140160000Y-96678571D01*
X140160000Y-96361429D01*
X144440000Y-96361429D01*
X144440000Y-96678571D01*
X144501871Y-96989620D01*
X144623237Y-97282621D01*
X144799431Y-97546315D01*
X145023685Y-97770569D01*
X145287379Y-97946763D01*
X145580380Y-98068129D01*
X145891429Y-98130000D01*
X146208571Y-98130000D01*
X146519620Y-98068129D01*
X146812621Y-97946763D01*
X147076315Y-97770569D01*
X147300569Y-97546315D01*
X147476763Y-97282621D01*
X147598129Y-96989620D01*
X147660000Y-96678571D01*
X147660000Y-96361429D01*
X149520000Y-96361429D01*
X149520000Y-96678571D01*
X149581871Y-96989620D01*
X149703237Y-97282621D01*
X149879431Y-97546315D01*
X150103685Y-97770569D01*
X150367379Y-97946763D01*
X150660380Y-98068129D01*
X150971429Y-98130000D01*
X151288571Y-98130000D01*
X151599620Y-98068129D01*
X151892621Y-97946763D01*
X152156315Y-97770569D01*
X152380569Y-97546315D01*
X152556763Y-97282621D01*
X152678129Y-96989620D01*
X152740000Y-96678571D01*
X152740000Y-96583584D01*
X157013460Y-96583584D01*
X157056926Y-96897733D01*
X157160844Y-97197367D01*
X157250571Y-97365234D01*
X157512416Y-97457979D01*
X158450395Y-96520000D01*
X158809605Y-96520000D01*
X159747584Y-97457979D01*
X160009429Y-97365234D01*
X160147820Y-97079880D01*
X160227883Y-96773010D01*
X160246540Y-96456416D01*
X160233398Y-96361429D01*
X164520000Y-96361429D01*
X164520000Y-96678571D01*
X164581871Y-96989620D01*
X164703237Y-97282621D01*
X164879431Y-97546315D01*
X165103685Y-97770569D01*
X165367379Y-97946763D01*
X165660380Y-98068129D01*
X165971429Y-98130000D01*
X166288571Y-98130000D01*
X166599620Y-98068129D01*
X166892621Y-97946763D01*
X167156315Y-97770569D01*
X167380569Y-97546315D01*
X167556763Y-97282621D01*
X167678129Y-96989620D01*
X167740000Y-96678571D01*
X167740000Y-96361429D01*
X167678129Y-96050380D01*
X167556763Y-95757379D01*
X167380569Y-95493685D01*
X167156315Y-95269431D01*
X166892621Y-95093237D01*
X166599620Y-94971871D01*
X166288571Y-94910000D01*
X165971429Y-94910000D01*
X165660380Y-94971871D01*
X165367379Y-95093237D01*
X165103685Y-95269431D01*
X164879431Y-95493685D01*
X164703237Y-95757379D01*
X164581871Y-96050380D01*
X164520000Y-96361429D01*
X160233398Y-96361429D01*
X160203074Y-96142267D01*
X160099156Y-95842633D01*
X160009429Y-95674766D01*
X159747584Y-95582021D01*
X158809605Y-96520000D01*
X158450395Y-96520000D01*
X157512416Y-95582021D01*
X157250571Y-95674766D01*
X157112180Y-95960120D01*
X157032117Y-96266990D01*
X157013460Y-96583584D01*
X152740000Y-96583584D01*
X152740000Y-96361429D01*
X152678129Y-96050380D01*
X152556763Y-95757379D01*
X152380569Y-95493685D01*
X152289300Y-95402416D01*
X157692021Y-95402416D01*
X158630000Y-96340395D01*
X159567979Y-95402416D01*
X159475234Y-95140571D01*
X159189880Y-95002180D01*
X158883010Y-94922117D01*
X158566416Y-94903460D01*
X158252267Y-94946926D01*
X157952633Y-95050844D01*
X157784766Y-95140571D01*
X157692021Y-95402416D01*
X152289300Y-95402416D01*
X152156315Y-95269431D01*
X151892621Y-95093237D01*
X151599620Y-94971871D01*
X151288571Y-94910000D01*
X150971429Y-94910000D01*
X150660380Y-94971871D01*
X150367379Y-95093237D01*
X150103685Y-95269431D01*
X149879431Y-95493685D01*
X149703237Y-95757379D01*
X149581871Y-96050380D01*
X149520000Y-96361429D01*
X147660000Y-96361429D01*
X147598129Y-96050380D01*
X147476763Y-95757379D01*
X147300569Y-95493685D01*
X147076315Y-95269431D01*
X146812621Y-95093237D01*
X146519620Y-94971871D01*
X146208571Y-94910000D01*
X145891429Y-94910000D01*
X145580380Y-94971871D01*
X145287379Y-95093237D01*
X145023685Y-95269431D01*
X144799431Y-95493685D01*
X144623237Y-95757379D01*
X144501871Y-96050380D01*
X144440000Y-96361429D01*
X140160000Y-96361429D01*
X140098129Y-96050380D01*
X139976763Y-95757379D01*
X139800569Y-95493685D01*
X139576315Y-95269431D01*
X139312621Y-95093237D01*
X139019620Y-94971871D01*
X138708571Y-94910000D01*
X138391429Y-94910000D01*
X138080380Y-94971871D01*
X137787379Y-95093237D01*
X137523685Y-95269431D01*
X137299431Y-95493685D01*
X137123237Y-95757379D01*
X137001871Y-96050380D01*
X136940000Y-96361429D01*
X132660000Y-96361429D01*
X132598129Y-96050380D01*
X132476763Y-95757379D01*
X132300569Y-95493685D01*
X132076315Y-95269431D01*
X131812621Y-95093237D01*
X131519620Y-94971871D01*
X131208571Y-94910000D01*
X130891429Y-94910000D01*
X130580380Y-94971871D01*
X130287379Y-95093237D01*
X130023685Y-95269431D01*
X129799431Y-95493685D01*
X129623237Y-95757379D01*
X129501871Y-96050380D01*
X129440000Y-96361429D01*
X128488072Y-96361429D01*
X128488072Y-95670000D01*
X128475812Y-95545518D01*
X128439502Y-95425820D01*
X128380537Y-95315506D01*
X128301185Y-95218815D01*
X128204494Y-95139463D01*
X128094180Y-95080498D01*
X127974482Y-95044188D01*
X127850000Y-95031928D01*
X126415000Y-95031928D01*
X126415000Y-91339268D01*
X129215000Y-91339268D01*
X129215000Y-91700732D01*
X129285518Y-92055250D01*
X129423844Y-92389199D01*
X129624662Y-92689744D01*
X129880256Y-92945338D01*
X130180801Y-93146156D01*
X130514750Y-93284482D01*
X130869268Y-93355000D01*
X131230732Y-93355000D01*
X131585250Y-93284482D01*
X131919199Y-93146156D01*
X132219744Y-92945338D01*
X132475338Y-92689744D01*
X132676156Y-92389199D01*
X132814482Y-92055250D01*
X132885000Y-91700732D01*
X132885000Y-91339268D01*
X144215000Y-91339268D01*
X144215000Y-91700732D01*
X144285518Y-92055250D01*
X144423844Y-92389199D01*
X144624662Y-92689744D01*
X144880256Y-92945338D01*
X145180801Y-93146156D01*
X145514750Y-93284482D01*
X145869268Y-93355000D01*
X146230732Y-93355000D01*
X146585250Y-93284482D01*
X146919199Y-93146156D01*
X147219744Y-92945338D01*
X147475338Y-92689744D01*
X147676156Y-92389199D01*
X147814482Y-92055250D01*
X147885000Y-91700732D01*
X147885000Y-91339268D01*
X149295000Y-91339268D01*
X149295000Y-91700732D01*
X149365518Y-92055250D01*
X149503844Y-92389199D01*
X149704662Y-92689744D01*
X149960256Y-92945338D01*
X150260801Y-93146156D01*
X150594750Y-93284482D01*
X150949268Y-93355000D01*
X151310732Y-93355000D01*
X151665250Y-93284482D01*
X151999199Y-93146156D01*
X152299744Y-92945338D01*
X152555338Y-92689744D01*
X152756156Y-92389199D01*
X152894482Y-92055250D01*
X152965000Y-91700732D01*
X152965000Y-91339268D01*
X164295000Y-91339268D01*
X164295000Y-91700732D01*
X164365518Y-92055250D01*
X164503844Y-92389199D01*
X164704662Y-92689744D01*
X164960256Y-92945338D01*
X165260801Y-93146156D01*
X165594750Y-93284482D01*
X165949268Y-93355000D01*
X166310732Y-93355000D01*
X166665250Y-93284482D01*
X166999199Y-93146156D01*
X167299744Y-92945338D01*
X167555338Y-92689744D01*
X167756156Y-92389199D01*
X167894482Y-92055250D01*
X167965000Y-91700732D01*
X167965000Y-91339268D01*
X167894482Y-90984750D01*
X167756156Y-90650801D01*
X167555338Y-90350256D01*
X167299744Y-90094662D01*
X166999199Y-89893844D01*
X166665250Y-89755518D01*
X166310732Y-89685000D01*
X165949268Y-89685000D01*
X165594750Y-89755518D01*
X165260801Y-89893844D01*
X164960256Y-90094662D01*
X164704662Y-90350256D01*
X164503844Y-90650801D01*
X164365518Y-90984750D01*
X164295000Y-91339268D01*
X152965000Y-91339268D01*
X152894482Y-90984750D01*
X152756156Y-90650801D01*
X152555338Y-90350256D01*
X152299744Y-90094662D01*
X151999199Y-89893844D01*
X151665250Y-89755518D01*
X151310732Y-89685000D01*
X150949268Y-89685000D01*
X150594750Y-89755518D01*
X150260801Y-89893844D01*
X149960256Y-90094662D01*
X149704662Y-90350256D01*
X149503844Y-90650801D01*
X149365518Y-90984750D01*
X149295000Y-91339268D01*
X147885000Y-91339268D01*
X147814482Y-90984750D01*
X147676156Y-90650801D01*
X147475338Y-90350256D01*
X147219744Y-90094662D01*
X146919199Y-89893844D01*
X146585250Y-89755518D01*
X146230732Y-89685000D01*
X145869268Y-89685000D01*
X145514750Y-89755518D01*
X145180801Y-89893844D01*
X144880256Y-90094662D01*
X144624662Y-90350256D01*
X144423844Y-90650801D01*
X144285518Y-90984750D01*
X144215000Y-91339268D01*
X132885000Y-91339268D01*
X132814482Y-90984750D01*
X132676156Y-90650801D01*
X132475338Y-90350256D01*
X132219744Y-90094662D01*
X131919199Y-89893844D01*
X131585250Y-89755518D01*
X131230732Y-89685000D01*
X130869268Y-89685000D01*
X130514750Y-89755518D01*
X130180801Y-89893844D01*
X129880256Y-90094662D01*
X129624662Y-90350256D01*
X129423844Y-90650801D01*
X129285518Y-90984750D01*
X129215000Y-91339268D01*
X126415000Y-91339268D01*
X126415000Y-86361429D01*
X134440000Y-86361429D01*
X134440000Y-86678571D01*
X134501871Y-86989620D01*
X134623237Y-87282621D01*
X134799431Y-87546315D01*
X135023685Y-87770569D01*
X135287379Y-87946763D01*
X135580380Y-88068129D01*
X135891429Y-88130000D01*
X136208571Y-88130000D01*
X136519620Y-88068129D01*
X136812621Y-87946763D01*
X137076315Y-87770569D01*
X137300569Y-87546315D01*
X137476763Y-87282621D01*
X137598129Y-86989620D01*
X137660000Y-86678571D01*
X137660000Y-86361429D01*
X139440000Y-86361429D01*
X139440000Y-86678571D01*
X139501871Y-86989620D01*
X139623237Y-87282621D01*
X139799431Y-87546315D01*
X140023685Y-87770569D01*
X140287379Y-87946763D01*
X140580380Y-88068129D01*
X140891429Y-88130000D01*
X141208571Y-88130000D01*
X141519620Y-88068129D01*
X141812621Y-87946763D01*
X142076315Y-87770569D01*
X142209300Y-87637584D01*
X155192021Y-87637584D01*
X155284766Y-87899429D01*
X155570120Y-88037820D01*
X155876990Y-88117883D01*
X156193584Y-88136540D01*
X156507733Y-88093074D01*
X156807367Y-87989156D01*
X156975234Y-87899429D01*
X157067979Y-87637584D01*
X160192021Y-87637584D01*
X160284766Y-87899429D01*
X160570120Y-88037820D01*
X160876990Y-88117883D01*
X161193584Y-88136540D01*
X161507733Y-88093074D01*
X161807367Y-87989156D01*
X161975234Y-87899429D01*
X162067979Y-87637584D01*
X161130000Y-86699605D01*
X160192021Y-87637584D01*
X157067979Y-87637584D01*
X156130000Y-86699605D01*
X155192021Y-87637584D01*
X142209300Y-87637584D01*
X142300569Y-87546315D01*
X142476763Y-87282621D01*
X142598129Y-86989620D01*
X142660000Y-86678571D01*
X142660000Y-86583584D01*
X154513460Y-86583584D01*
X154556926Y-86897733D01*
X154660844Y-87197367D01*
X154750571Y-87365234D01*
X155012416Y-87457979D01*
X155950395Y-86520000D01*
X156309605Y-86520000D01*
X157247584Y-87457979D01*
X157509429Y-87365234D01*
X157647820Y-87079880D01*
X157727883Y-86773010D01*
X157739045Y-86583584D01*
X159513460Y-86583584D01*
X159556926Y-86897733D01*
X159660844Y-87197367D01*
X159750571Y-87365234D01*
X160012416Y-87457979D01*
X160950395Y-86520000D01*
X161309605Y-86520000D01*
X162247584Y-87457979D01*
X162509429Y-87365234D01*
X162647820Y-87079880D01*
X162727883Y-86773010D01*
X162746540Y-86456416D01*
X162703074Y-86142267D01*
X162599156Y-85842633D01*
X162509429Y-85674766D01*
X162247584Y-85582021D01*
X161309605Y-86520000D01*
X160950395Y-86520000D01*
X160012416Y-85582021D01*
X159750571Y-85674766D01*
X159612180Y-85960120D01*
X159532117Y-86266990D01*
X159513460Y-86583584D01*
X157739045Y-86583584D01*
X157746540Y-86456416D01*
X157703074Y-86142267D01*
X157599156Y-85842633D01*
X157509429Y-85674766D01*
X157247584Y-85582021D01*
X156309605Y-86520000D01*
X155950395Y-86520000D01*
X155012416Y-85582021D01*
X154750571Y-85674766D01*
X154612180Y-85960120D01*
X154532117Y-86266990D01*
X154513460Y-86583584D01*
X142660000Y-86583584D01*
X142660000Y-86361429D01*
X142598129Y-86050380D01*
X142476763Y-85757379D01*
X142300569Y-85493685D01*
X142209300Y-85402416D01*
X155192021Y-85402416D01*
X156130000Y-86340395D01*
X157067979Y-85402416D01*
X160192021Y-85402416D01*
X161130000Y-86340395D01*
X162067979Y-85402416D01*
X161975234Y-85140571D01*
X161689880Y-85002180D01*
X161383010Y-84922117D01*
X161066416Y-84903460D01*
X160752267Y-84946926D01*
X160452633Y-85050844D01*
X160284766Y-85140571D01*
X160192021Y-85402416D01*
X157067979Y-85402416D01*
X156975234Y-85140571D01*
X156689880Y-85002180D01*
X156383010Y-84922117D01*
X156066416Y-84903460D01*
X155752267Y-84946926D01*
X155452633Y-85050844D01*
X155284766Y-85140571D01*
X155192021Y-85402416D01*
X142209300Y-85402416D01*
X142076315Y-85269431D01*
X141812621Y-85093237D01*
X141519620Y-84971871D01*
X141208571Y-84910000D01*
X140891429Y-84910000D01*
X140580380Y-84971871D01*
X140287379Y-85093237D01*
X140023685Y-85269431D01*
X139799431Y-85493685D01*
X139623237Y-85757379D01*
X139501871Y-86050380D01*
X139440000Y-86361429D01*
X137660000Y-86361429D01*
X137598129Y-86050380D01*
X137476763Y-85757379D01*
X137300569Y-85493685D01*
X137076315Y-85269431D01*
X136812621Y-85093237D01*
X136519620Y-84971871D01*
X136208571Y-84910000D01*
X135891429Y-84910000D01*
X135580380Y-84971871D01*
X135287379Y-85093237D01*
X135023685Y-85269431D01*
X134799431Y-85493685D01*
X134623237Y-85757379D01*
X134501871Y-86050380D01*
X134440000Y-86361429D01*
X126415000Y-86361429D01*
X126415000Y-84505000D01*
X170765000Y-84505000D01*
X170765000Y-95031928D01*
X170765000Y-95031928D01*
G37*
X170765000Y-95031928D02*
X169330000Y-95031928D01*
X169205518Y-95044188D01*
X169085820Y-95080498D01*
X168975506Y-95139463D01*
X168878815Y-95218815D01*
X168799463Y-95315506D01*
X168740498Y-95425820D01*
X168704188Y-95545518D01*
X168691928Y-95670000D01*
X168691928Y-97370000D01*
X168704188Y-97494482D01*
X168740498Y-97614180D01*
X168799463Y-97724494D01*
X168878815Y-97821185D01*
X168975506Y-97900537D01*
X169085820Y-97959502D01*
X169154687Y-97980393D01*
X169124866Y-98004866D01*
X168939294Y-98230986D01*
X168801401Y-98488966D01*
X168716487Y-98768889D01*
X168687815Y-99060000D01*
X168716487Y-99351111D01*
X168801401Y-99631034D01*
X168939294Y-99889014D01*
X169124866Y-100115134D01*
X169350986Y-100300706D01*
X169608966Y-100438599D01*
X169888889Y-100523513D01*
X170107050Y-100545000D01*
X170252950Y-100545000D01*
X170471111Y-100523513D01*
X170751034Y-100438599D01*
X170765001Y-100431134D01*
X170765001Y-112811928D01*
X169330000Y-112811928D01*
X169205518Y-112824188D01*
X169085820Y-112860498D01*
X168975506Y-112919463D01*
X168878815Y-112998815D01*
X168799463Y-113095506D01*
X168740498Y-113205820D01*
X168719607Y-113274687D01*
X168695134Y-113244866D01*
X168469014Y-113059294D01*
X168211034Y-112921401D01*
X167931111Y-112836487D01*
X167712950Y-112815000D01*
X167567050Y-112815000D01*
X167348889Y-112836487D01*
X167068966Y-112921401D01*
X166810986Y-113059294D01*
X166584866Y-113244866D01*
X166399294Y-113470986D01*
X166261401Y-113728966D01*
X166176487Y-114008889D01*
X166147815Y-114300000D01*
X166176487Y-114591111D01*
X166261401Y-114871034D01*
X166268866Y-114885000D01*
X153771134Y-114885000D01*
X153778599Y-114871034D01*
X153863513Y-114591111D01*
X153892185Y-114300000D01*
X153863513Y-114008889D01*
X153778599Y-113728966D01*
X153640706Y-113470986D01*
X153455134Y-113244866D01*
X153229014Y-113059294D01*
X153174209Y-113030000D01*
X153229014Y-113000706D01*
X153455134Y-112815134D01*
X153506370Y-112752702D01*
X159206903Y-112752702D01*
X159278486Y-112996671D01*
X159533996Y-113117571D01*
X159808184Y-113186300D01*
X160090512Y-113200217D01*
X160370130Y-113158787D01*
X160636292Y-113063603D01*
X160761514Y-112996671D01*
X160833097Y-112752702D01*
X160020000Y-111939605D01*
X159206903Y-112752702D01*
X153506370Y-112752702D01*
X153640706Y-112589014D01*
X153778599Y-112331034D01*
X153863513Y-112051111D01*
X153885240Y-111830512D01*
X158579783Y-111830512D01*
X158621213Y-112110130D01*
X158716397Y-112376292D01*
X158783329Y-112501514D01*
X159027298Y-112573097D01*
X159840395Y-111760000D01*
X160199605Y-111760000D01*
X161012702Y-112573097D01*
X161256671Y-112501514D01*
X161377571Y-112246004D01*
X161446300Y-111971816D01*
X161460217Y-111689488D01*
X161418787Y-111409870D01*
X161323603Y-111143708D01*
X161256671Y-111018486D01*
X161012702Y-110946903D01*
X160199605Y-111760000D01*
X159840395Y-111760000D01*
X159027298Y-110946903D01*
X158783329Y-111018486D01*
X158662429Y-111273996D01*
X158593700Y-111548184D01*
X158579783Y-111830512D01*
X153885240Y-111830512D01*
X153892185Y-111760000D01*
X153863513Y-111468889D01*
X153778599Y-111188966D01*
X153640706Y-110930986D01*
X153455134Y-110704866D01*
X153229014Y-110519294D01*
X152971034Y-110381401D01*
X152691111Y-110296487D01*
X152472950Y-110275000D01*
X152327050Y-110275000D01*
X152108889Y-110296487D01*
X151828966Y-110381401D01*
X151570986Y-110519294D01*
X151344866Y-110704866D01*
X151159294Y-110930986D01*
X151130000Y-110985791D01*
X151100706Y-110930986D01*
X150915134Y-110704866D01*
X150689014Y-110519294D01*
X150431034Y-110381401D01*
X150151111Y-110296487D01*
X149932950Y-110275000D01*
X149787050Y-110275000D01*
X149568889Y-110296487D01*
X149288966Y-110381401D01*
X149030986Y-110519294D01*
X148804866Y-110704866D01*
X148619294Y-110930986D01*
X148584799Y-110995523D01*
X148515178Y-110878645D01*
X148320269Y-110662412D01*
X148086920Y-110488359D01*
X147824099Y-110363175D01*
X147676890Y-110318524D01*
X147447000Y-110439845D01*
X147447000Y-111633000D01*
X147467000Y-111633000D01*
X147467000Y-111887000D01*
X147447000Y-111887000D01*
X147447000Y-114173000D01*
X147467000Y-114173000D01*
X147467000Y-114427000D01*
X147447000Y-114427000D01*
X147447000Y-114447000D01*
X147193000Y-114447000D01*
X147193000Y-114427000D01*
X147173000Y-114427000D01*
X147173000Y-114173000D01*
X147193000Y-114173000D01*
X147193000Y-111887000D01*
X147173000Y-111887000D01*
X147173000Y-111633000D01*
X147193000Y-111633000D01*
X147193000Y-110439845D01*
X146963110Y-110318524D01*
X146815901Y-110363175D01*
X146553080Y-110488359D01*
X146319731Y-110662412D01*
X146243966Y-110746466D01*
X146219502Y-110665820D01*
X146160537Y-110555506D01*
X146081185Y-110458815D01*
X145984494Y-110379463D01*
X145874180Y-110320498D01*
X145754482Y-110284188D01*
X145665000Y-110275375D01*
X145665000Y-109263469D01*
X145669281Y-109220000D01*
X145665000Y-109176531D01*
X145665000Y-109176523D01*
X145659302Y-109118665D01*
X158585000Y-109118665D01*
X158585000Y-109401335D01*
X158640147Y-109678574D01*
X158748320Y-109939727D01*
X158905363Y-110174759D01*
X159105241Y-110374637D01*
X159305869Y-110508692D01*
X159278486Y-110523329D01*
X159206903Y-110767298D01*
X160020000Y-111580395D01*
X160833097Y-110767298D01*
X160761514Y-110523329D01*
X160732659Y-110509676D01*
X160934759Y-110374637D01*
X161134637Y-110174759D01*
X161291680Y-109939727D01*
X161399853Y-109678574D01*
X161455000Y-109401335D01*
X161455000Y-109118665D01*
X161399853Y-108841426D01*
X161291680Y-108580273D01*
X161134637Y-108345241D01*
X160934759Y-108145363D01*
X160699727Y-107988320D01*
X160438574Y-107880147D01*
X160161335Y-107825000D01*
X159878665Y-107825000D01*
X159601426Y-107880147D01*
X159340273Y-107988320D01*
X159105241Y-108145363D01*
X158905363Y-108345241D01*
X158748320Y-108580273D01*
X158640147Y-108841426D01*
X158585000Y-109118665D01*
X145659302Y-109118665D01*
X145652195Y-109046510D01*
X145601589Y-108879687D01*
X145519411Y-108725941D01*
X145408817Y-108591183D01*
X145375049Y-108563470D01*
X141124875Y-104313296D01*
X141141943Y-104140000D01*
X141114236Y-103858691D01*
X141032182Y-103588192D01*
X140898932Y-103338899D01*
X140719608Y-103120392D01*
X140501101Y-102941068D01*
X140374971Y-102873650D01*
X140379727Y-102871680D01*
X140614759Y-102714637D01*
X140814637Y-102514759D01*
X140971680Y-102279727D01*
X141079853Y-102018574D01*
X141135000Y-101741335D01*
X141135000Y-101458665D01*
X141079853Y-101181426D01*
X140971680Y-100920273D01*
X140814637Y-100685241D01*
X140614759Y-100485363D01*
X140379727Y-100328320D01*
X140118574Y-100220147D01*
X139841335Y-100165000D01*
X139558665Y-100165000D01*
X139281426Y-100220147D01*
X139020273Y-100328320D01*
X138785241Y-100485363D01*
X138585363Y-100685241D01*
X138451308Y-100885869D01*
X138436671Y-100858486D01*
X138192702Y-100786903D01*
X137379605Y-101600000D01*
X138192702Y-102413097D01*
X138436671Y-102341514D01*
X138450324Y-102312659D01*
X138585363Y-102514759D01*
X138785241Y-102714637D01*
X139020273Y-102871680D01*
X139025029Y-102873650D01*
X138898899Y-102941068D01*
X138680392Y-103120392D01*
X138501068Y-103338899D01*
X138367818Y-103588192D01*
X138285764Y-103858691D01*
X138258057Y-104140000D01*
X138285764Y-104421309D01*
X138367818Y-104691808D01*
X138501068Y-104941101D01*
X138680392Y-105159608D01*
X138898899Y-105338932D01*
X139031858Y-105410000D01*
X138898899Y-105481068D01*
X138680392Y-105660392D01*
X138501068Y-105878899D01*
X138367818Y-106128192D01*
X138285764Y-106398691D01*
X138258057Y-106680000D01*
X138285764Y-106961309D01*
X138367818Y-107231808D01*
X138501068Y-107481101D01*
X138680392Y-107699608D01*
X138898899Y-107878932D01*
X139031858Y-107950000D01*
X138898899Y-108021068D01*
X138680392Y-108200392D01*
X138501068Y-108418899D01*
X138367818Y-108668192D01*
X138285764Y-108938691D01*
X138258057Y-109220000D01*
X138285764Y-109501309D01*
X138367818Y-109771808D01*
X138501068Y-110021101D01*
X138680392Y-110239608D01*
X138898899Y-110418932D01*
X139036682Y-110492579D01*
X138844869Y-110607615D01*
X138636481Y-110796586D01*
X138468963Y-111022580D01*
X138348754Y-111276913D01*
X138308096Y-111410961D01*
X138430085Y-111633000D01*
X139573000Y-111633000D01*
X139573000Y-111613000D01*
X139827000Y-111613000D01*
X139827000Y-111633000D01*
X140969915Y-111633000D01*
X141091904Y-111410961D01*
X141051246Y-111276913D01*
X140931037Y-111022580D01*
X140763519Y-110796586D01*
X140555131Y-110607615D01*
X140363318Y-110492579D01*
X140501101Y-110418932D01*
X140719608Y-110239608D01*
X140898932Y-110021101D01*
X141032182Y-109771808D01*
X141114236Y-109501309D01*
X141141943Y-109220000D01*
X141114236Y-108938691D01*
X141032182Y-108668192D01*
X140898932Y-108418899D01*
X140719608Y-108200392D01*
X140501101Y-108021068D01*
X140368142Y-107950000D01*
X140501101Y-107878932D01*
X140719608Y-107699608D01*
X140898932Y-107481101D01*
X141032182Y-107231808D01*
X141114236Y-106961309D01*
X141128178Y-106819756D01*
X143895001Y-109586580D01*
X143895001Y-110275375D01*
X143805518Y-110284188D01*
X143685820Y-110320498D01*
X143575506Y-110379463D01*
X143478815Y-110458815D01*
X143399463Y-110555506D01*
X143340498Y-110665820D01*
X143304188Y-110785518D01*
X143291928Y-110910000D01*
X143291928Y-112610000D01*
X143304188Y-112734482D01*
X143340498Y-112854180D01*
X143399463Y-112964494D01*
X143453222Y-113030000D01*
X143399463Y-113095506D01*
X143340498Y-113205820D01*
X143304188Y-113325518D01*
X143291928Y-113450000D01*
X143291928Y-114885000D01*
X130911134Y-114885000D01*
X130918599Y-114871034D01*
X131003513Y-114591111D01*
X131032185Y-114300000D01*
X131003513Y-114008889D01*
X130918599Y-113728966D01*
X130780706Y-113470986D01*
X130595134Y-113244866D01*
X130369014Y-113059294D01*
X130261175Y-113001653D01*
X130341101Y-112958932D01*
X130559608Y-112779608D01*
X130738932Y-112561101D01*
X130810000Y-112428142D01*
X130881068Y-112561101D01*
X131060392Y-112779608D01*
X131278899Y-112958932D01*
X131528192Y-113092182D01*
X131798691Y-113174236D01*
X132009508Y-113195000D01*
X132150492Y-113195000D01*
X132361309Y-113174236D01*
X132631808Y-113092182D01*
X132881101Y-112958932D01*
X133099608Y-112779608D01*
X133278932Y-112561101D01*
X133412182Y-112311808D01*
X133473690Y-112109039D01*
X138308096Y-112109039D01*
X138348754Y-112243087D01*
X138468963Y-112497420D01*
X138636481Y-112723414D01*
X138844869Y-112912385D01*
X139086119Y-113057070D01*
X139350960Y-113151909D01*
X139573000Y-113030624D01*
X139573000Y-111887000D01*
X139827000Y-111887000D01*
X139827000Y-113030624D01*
X140049040Y-113151909D01*
X140313881Y-113057070D01*
X140555131Y-112912385D01*
X140763519Y-112723414D01*
X140931037Y-112497420D01*
X141051246Y-112243087D01*
X141091904Y-112109039D01*
X140969915Y-111887000D01*
X139827000Y-111887000D01*
X139573000Y-111887000D01*
X138430085Y-111887000D01*
X138308096Y-112109039D01*
X133473690Y-112109039D01*
X133494236Y-112041309D01*
X133521943Y-111760000D01*
X133494236Y-111478691D01*
X133412182Y-111208192D01*
X133278932Y-110958899D01*
X133099608Y-110740392D01*
X132881101Y-110561068D01*
X132748142Y-110490000D01*
X132881101Y-110418932D01*
X133099608Y-110239608D01*
X133278932Y-110021101D01*
X133412182Y-109771808D01*
X133494236Y-109501309D01*
X133521943Y-109220000D01*
X133494236Y-108938691D01*
X133412182Y-108668192D01*
X133278932Y-108418899D01*
X133099608Y-108200392D01*
X132881101Y-108021068D01*
X132748142Y-107950000D01*
X132881101Y-107878932D01*
X133099608Y-107699608D01*
X133278932Y-107481101D01*
X133412182Y-107231808D01*
X133494236Y-106961309D01*
X133521943Y-106680000D01*
X133494236Y-106398691D01*
X133412182Y-106128192D01*
X133278932Y-105878899D01*
X133099608Y-105660392D01*
X132986518Y-105567581D01*
X133004482Y-105565812D01*
X133124180Y-105529502D01*
X133234494Y-105470537D01*
X133331185Y-105391185D01*
X133410537Y-105294494D01*
X133469502Y-105184180D01*
X133505812Y-105064482D01*
X133518072Y-104940000D01*
X133518072Y-103340000D01*
X133505812Y-103215518D01*
X133469502Y-103095820D01*
X133410537Y-102985506D01*
X133331185Y-102888815D01*
X133234494Y-102809463D01*
X133124180Y-102750498D01*
X133004482Y-102714188D01*
X132880000Y-102701928D01*
X132861049Y-102701928D01*
X132893097Y-102592702D01*
X132080000Y-101779605D01*
X131266903Y-102592702D01*
X131298951Y-102701928D01*
X131280000Y-102701928D01*
X131155518Y-102714188D01*
X131035820Y-102750498D01*
X130925506Y-102809463D01*
X130828815Y-102888815D01*
X130810000Y-102911741D01*
X130791185Y-102888815D01*
X130694494Y-102809463D01*
X130584180Y-102750498D01*
X130464482Y-102714188D01*
X130340000Y-102701928D01*
X128740000Y-102701928D01*
X128615518Y-102714188D01*
X128495820Y-102750498D01*
X128385506Y-102809463D01*
X128288815Y-102888815D01*
X128209463Y-102985506D01*
X128150498Y-103095820D01*
X128114188Y-103215518D01*
X128101928Y-103340000D01*
X128101928Y-104940000D01*
X128114188Y-105064482D01*
X128150498Y-105184180D01*
X128209463Y-105294494D01*
X128288815Y-105391185D01*
X128385506Y-105470537D01*
X128495820Y-105529502D01*
X128615518Y-105565812D01*
X128740000Y-105578072D01*
X130340000Y-105578072D01*
X130464482Y-105565812D01*
X130584180Y-105529502D01*
X130694494Y-105470537D01*
X130791185Y-105391185D01*
X130810000Y-105368259D01*
X130828815Y-105391185D01*
X130925506Y-105470537D01*
X131035820Y-105529502D01*
X131155518Y-105565812D01*
X131173482Y-105567581D01*
X131060392Y-105660392D01*
X130881068Y-105878899D01*
X130747818Y-106128192D01*
X130665764Y-106398691D01*
X130638057Y-106680000D01*
X130665764Y-106961309D01*
X130747818Y-107231808D01*
X130881068Y-107481101D01*
X131060392Y-107699608D01*
X131278899Y-107878932D01*
X131411858Y-107950000D01*
X131278899Y-108021068D01*
X131060392Y-108200392D01*
X130881068Y-108418899D01*
X130747818Y-108668192D01*
X130665764Y-108938691D01*
X130638057Y-109220000D01*
X130665764Y-109501309D01*
X130747818Y-109771808D01*
X130881068Y-110021101D01*
X131060392Y-110239608D01*
X131278899Y-110418932D01*
X131411858Y-110490000D01*
X131278899Y-110561068D01*
X131060392Y-110740392D01*
X130881068Y-110958899D01*
X130810000Y-111091858D01*
X130738932Y-110958899D01*
X130559608Y-110740392D01*
X130341101Y-110561068D01*
X130091808Y-110427818D01*
X129821309Y-110345764D01*
X129610492Y-110325000D01*
X129469508Y-110325000D01*
X129258691Y-110345764D01*
X128988192Y-110427818D01*
X128738899Y-110561068D01*
X128520392Y-110740392D01*
X128341068Y-110958899D01*
X128273650Y-111085029D01*
X128271680Y-111080273D01*
X128114637Y-110845241D01*
X127914759Y-110645363D01*
X127679727Y-110488320D01*
X127418574Y-110380147D01*
X127141335Y-110325000D01*
X126858665Y-110325000D01*
X126581426Y-110380147D01*
X126415000Y-110449083D01*
X126415000Y-102914440D01*
X126448192Y-102932182D01*
X126718691Y-103014236D01*
X126929508Y-103035000D01*
X127070492Y-103035000D01*
X127281309Y-103014236D01*
X127551808Y-102932182D01*
X127801101Y-102798932D01*
X128019608Y-102619608D01*
X128198932Y-102401101D01*
X128332182Y-102151808D01*
X128414236Y-101881309D01*
X128434998Y-101670512D01*
X130639783Y-101670512D01*
X130681213Y-101950130D01*
X130776397Y-102216292D01*
X130843329Y-102341514D01*
X131087298Y-102413097D01*
X131900395Y-101600000D01*
X131087298Y-100786903D01*
X130843329Y-100858486D01*
X130722429Y-101113996D01*
X130653700Y-101388184D01*
X130639783Y-101670512D01*
X128434998Y-101670512D01*
X128441943Y-101600000D01*
X128414236Y-101318691D01*
X128332182Y-101048192D01*
X128198932Y-100798899D01*
X128041690Y-100607298D01*
X131266903Y-100607298D01*
X132080000Y-101420395D01*
X132893097Y-100607298D01*
X132854104Y-100474402D01*
X133080380Y-100568129D01*
X133391429Y-100630000D01*
X133520604Y-100630000D01*
X133465363Y-100685241D01*
X133331308Y-100885869D01*
X133316671Y-100858486D01*
X133072702Y-100786903D01*
X132259605Y-101600000D01*
X133072702Y-102413097D01*
X133316671Y-102341514D01*
X133330324Y-102312659D01*
X133465363Y-102514759D01*
X133665241Y-102714637D01*
X133900273Y-102871680D01*
X134161426Y-102979853D01*
X134438665Y-103035000D01*
X134721335Y-103035000D01*
X134998574Y-102979853D01*
X135259727Y-102871680D01*
X135494759Y-102714637D01*
X135616694Y-102592702D01*
X136386903Y-102592702D01*
X136458486Y-102836671D01*
X136713996Y-102957571D01*
X136988184Y-103026300D01*
X137270512Y-103040217D01*
X137550130Y-102998787D01*
X137816292Y-102903603D01*
X137941514Y-102836671D01*
X138013097Y-102592702D01*
X137200000Y-101779605D01*
X136386903Y-102592702D01*
X135616694Y-102592702D01*
X135694637Y-102514759D01*
X135851680Y-102279727D01*
X135887852Y-102192399D01*
X135896397Y-102216292D01*
X135963329Y-102341514D01*
X136207298Y-102413097D01*
X137020395Y-101600000D01*
X136207298Y-100786903D01*
X135963329Y-100858486D01*
X135890149Y-101013145D01*
X135851680Y-100920273D01*
X135694637Y-100685241D01*
X135616694Y-100607298D01*
X136386903Y-100607298D01*
X137200000Y-101420395D01*
X138013097Y-100607298D01*
X137941514Y-100363329D01*
X137686004Y-100242429D01*
X137411816Y-100173700D01*
X137129488Y-100159783D01*
X136849870Y-100201213D01*
X136583708Y-100296397D01*
X136458486Y-100363329D01*
X136386903Y-100607298D01*
X135616694Y-100607298D01*
X135494759Y-100485363D01*
X135259727Y-100328320D01*
X134998574Y-100220147D01*
X134721335Y-100165000D01*
X134681884Y-100165000D01*
X134800569Y-100046315D01*
X134976763Y-99782621D01*
X135098129Y-99489620D01*
X135160000Y-99178571D01*
X135160000Y-98861429D01*
X141940000Y-98861429D01*
X141940000Y-99178571D01*
X142001871Y-99489620D01*
X142123237Y-99782621D01*
X142299431Y-100046315D01*
X142523685Y-100270569D01*
X142720195Y-100401872D01*
X142595241Y-100485363D01*
X142395363Y-100685241D01*
X142238320Y-100920273D01*
X142130147Y-101181426D01*
X142075000Y-101458665D01*
X142075000Y-101741335D01*
X142130147Y-102018574D01*
X142238320Y-102279727D01*
X142395363Y-102514759D01*
X142595241Y-102714637D01*
X142830273Y-102871680D01*
X143091426Y-102979853D01*
X143368665Y-103035000D01*
X143651335Y-103035000D01*
X143686439Y-103028017D01*
X147933470Y-107275049D01*
X147961183Y-107308817D01*
X147994951Y-107336530D01*
X147994953Y-107336532D01*
X148023216Y-107359727D01*
X148095941Y-107419411D01*
X148249687Y-107501589D01*
X148416510Y-107552195D01*
X148546523Y-107565000D01*
X148546531Y-107565000D01*
X148590000Y-107569281D01*
X148633469Y-107565000D01*
X156345479Y-107565000D01*
X156365363Y-107594759D01*
X156565241Y-107794637D01*
X156800273Y-107951680D01*
X157061426Y-108059853D01*
X157338665Y-108115000D01*
X157621335Y-108115000D01*
X157898574Y-108059853D01*
X158159727Y-107951680D01*
X158394759Y-107794637D01*
X158594637Y-107594759D01*
X158751680Y-107359727D01*
X158859853Y-107098574D01*
X158915000Y-106821335D01*
X158915000Y-106680000D01*
X166198057Y-106680000D01*
X166225764Y-106961309D01*
X166307818Y-107231808D01*
X166441068Y-107481101D01*
X166620392Y-107699608D01*
X166838899Y-107878932D01*
X167088192Y-108012182D01*
X167358691Y-108094236D01*
X167569508Y-108115000D01*
X167710492Y-108115000D01*
X167921309Y-108094236D01*
X168191808Y-108012182D01*
X168441101Y-107878932D01*
X168659608Y-107699608D01*
X168838932Y-107481101D01*
X168972182Y-107231808D01*
X169054236Y-106961309D01*
X169081943Y-106680000D01*
X169054236Y-106398691D01*
X168972182Y-106128192D01*
X168838932Y-105878899D01*
X168659608Y-105660392D01*
X168441101Y-105481068D01*
X168314971Y-105413650D01*
X168319727Y-105411680D01*
X168554759Y-105254637D01*
X168754637Y-105054759D01*
X168911680Y-104819727D01*
X169019853Y-104558574D01*
X169075000Y-104281335D01*
X169075000Y-103998665D01*
X169019853Y-103721426D01*
X168911680Y-103460273D01*
X168754637Y-103225241D01*
X168554759Y-103025363D01*
X168319727Y-102868320D01*
X168058574Y-102760147D01*
X167781335Y-102705000D01*
X167498665Y-102705000D01*
X167221426Y-102760147D01*
X166960273Y-102868320D01*
X166725241Y-103025363D01*
X166525363Y-103225241D01*
X166368320Y-103460273D01*
X166260147Y-103721426D01*
X166205000Y-103998665D01*
X166205000Y-104281335D01*
X166260147Y-104558574D01*
X166368320Y-104819727D01*
X166525363Y-105054759D01*
X166725241Y-105254637D01*
X166960273Y-105411680D01*
X166965029Y-105413650D01*
X166838899Y-105481068D01*
X166620392Y-105660392D01*
X166441068Y-105878899D01*
X166307818Y-106128192D01*
X166225764Y-106398691D01*
X166198057Y-106680000D01*
X158915000Y-106680000D01*
X158915000Y-106538665D01*
X158859853Y-106261426D01*
X158751680Y-106000273D01*
X158594637Y-105765241D01*
X158394759Y-105565363D01*
X158159727Y-105408320D01*
X158154971Y-105406350D01*
X158281101Y-105338932D01*
X158499608Y-105159608D01*
X158678932Y-104941101D01*
X158812182Y-104691808D01*
X158894236Y-104421309D01*
X158921943Y-104140000D01*
X158894236Y-103858691D01*
X158812182Y-103588192D01*
X158678932Y-103338899D01*
X158499608Y-103120392D01*
X158281101Y-102941068D01*
X158031808Y-102807818D01*
X157761309Y-102725764D01*
X157550492Y-102705000D01*
X157409508Y-102705000D01*
X157198691Y-102725764D01*
X156928192Y-102807818D01*
X156678899Y-102941068D01*
X156460392Y-103120392D01*
X156281068Y-103338899D01*
X156147818Y-103588192D01*
X156065764Y-103858691D01*
X156038057Y-104140000D01*
X156065764Y-104421309D01*
X156147818Y-104691808D01*
X156281068Y-104941101D01*
X156460392Y-105159608D01*
X156678899Y-105338932D01*
X156805029Y-105406350D01*
X156800273Y-105408320D01*
X156565241Y-105565363D01*
X156365363Y-105765241D01*
X156345479Y-105795000D01*
X148956579Y-105795000D01*
X144938017Y-101776439D01*
X144945000Y-101741335D01*
X144945000Y-101458665D01*
X144889853Y-101181426D01*
X144781680Y-100920273D01*
X144624637Y-100685241D01*
X144424759Y-100485363D01*
X144339805Y-100428599D01*
X144576315Y-100270569D01*
X144800569Y-100046315D01*
X144976763Y-99782621D01*
X145098129Y-99489620D01*
X145160000Y-99178571D01*
X145160000Y-98861429D01*
X152020000Y-98861429D01*
X152020000Y-99178571D01*
X152081871Y-99489620D01*
X152203237Y-99782621D01*
X152379431Y-100046315D01*
X152603685Y-100270569D01*
X152837525Y-100426816D01*
X152650392Y-100580392D01*
X152471068Y-100798899D01*
X152337818Y-101048192D01*
X152255764Y-101318691D01*
X152228057Y-101600000D01*
X152255764Y-101881309D01*
X152337818Y-102151808D01*
X152471068Y-102401101D01*
X152650392Y-102619608D01*
X152868899Y-102798932D01*
X153118192Y-102932182D01*
X153388691Y-103014236D01*
X153599508Y-103035000D01*
X153740492Y-103035000D01*
X153951309Y-103014236D01*
X154221808Y-102932182D01*
X154471101Y-102798932D01*
X154689608Y-102619608D01*
X154868932Y-102401101D01*
X155002182Y-102151808D01*
X155084236Y-101881309D01*
X155111943Y-101600000D01*
X155084236Y-101318691D01*
X155002182Y-101048192D01*
X154868932Y-100798899D01*
X154689608Y-100580392D01*
X154471101Y-100401068D01*
X154465494Y-100398071D01*
X154656315Y-100270569D01*
X154880569Y-100046315D01*
X155056763Y-99782621D01*
X155178129Y-99489620D01*
X155240000Y-99178571D01*
X155240000Y-98861429D01*
X162020000Y-98861429D01*
X162020000Y-99178571D01*
X162081871Y-99489620D01*
X162203237Y-99782621D01*
X162379431Y-100046315D01*
X162603685Y-100270569D01*
X162867379Y-100446763D01*
X163160380Y-100568129D01*
X163471429Y-100630000D01*
X163788571Y-100630000D01*
X164099620Y-100568129D01*
X164392621Y-100446763D01*
X164656315Y-100270569D01*
X164880569Y-100046315D01*
X165056763Y-99782621D01*
X165178129Y-99489620D01*
X165240000Y-99178571D01*
X165240000Y-98861429D01*
X165178129Y-98550380D01*
X165056763Y-98257379D01*
X164880569Y-97993685D01*
X164656315Y-97769431D01*
X164392621Y-97593237D01*
X164099620Y-97471871D01*
X163788571Y-97410000D01*
X163471429Y-97410000D01*
X163160380Y-97471871D01*
X162867379Y-97593237D01*
X162603685Y-97769431D01*
X162379431Y-97993685D01*
X162203237Y-98257379D01*
X162081871Y-98550380D01*
X162020000Y-98861429D01*
X155240000Y-98861429D01*
X155178129Y-98550380D01*
X155056763Y-98257379D01*
X154880569Y-97993685D01*
X154656315Y-97769431D01*
X154458992Y-97637584D01*
X157692021Y-97637584D01*
X157784766Y-97899429D01*
X158070120Y-98037820D01*
X158376990Y-98117883D01*
X158693584Y-98136540D01*
X159007733Y-98093074D01*
X159307367Y-97989156D01*
X159475234Y-97899429D01*
X159567979Y-97637584D01*
X158630000Y-96699605D01*
X157692021Y-97637584D01*
X154458992Y-97637584D01*
X154392621Y-97593237D01*
X154099620Y-97471871D01*
X153788571Y-97410000D01*
X153471429Y-97410000D01*
X153160380Y-97471871D01*
X152867379Y-97593237D01*
X152603685Y-97769431D01*
X152379431Y-97993685D01*
X152203237Y-98257379D01*
X152081871Y-98550380D01*
X152020000Y-98861429D01*
X145160000Y-98861429D01*
X145098129Y-98550380D01*
X144976763Y-98257379D01*
X144800569Y-97993685D01*
X144576315Y-97769431D01*
X144312621Y-97593237D01*
X144019620Y-97471871D01*
X143708571Y-97410000D01*
X143391429Y-97410000D01*
X143080380Y-97471871D01*
X142787379Y-97593237D01*
X142523685Y-97769431D01*
X142299431Y-97993685D01*
X142123237Y-98257379D01*
X142001871Y-98550380D01*
X141940000Y-98861429D01*
X135160000Y-98861429D01*
X135098129Y-98550380D01*
X134976763Y-98257379D01*
X134800569Y-97993685D01*
X134576315Y-97769431D01*
X134312621Y-97593237D01*
X134019620Y-97471871D01*
X133708571Y-97410000D01*
X133391429Y-97410000D01*
X133080380Y-97471871D01*
X132787379Y-97593237D01*
X132523685Y-97769431D01*
X132299431Y-97993685D01*
X132123237Y-98257379D01*
X132001871Y-98550380D01*
X131940000Y-98861429D01*
X131940000Y-99178571D01*
X132001871Y-99489620D01*
X132123237Y-99782621D01*
X132299431Y-100046315D01*
X132471975Y-100218859D01*
X132291816Y-100173700D01*
X132009488Y-100159783D01*
X131729870Y-100201213D01*
X131463708Y-100296397D01*
X131338486Y-100363329D01*
X131266903Y-100607298D01*
X128041690Y-100607298D01*
X128019608Y-100580392D01*
X127801101Y-100401068D01*
X127721175Y-100358347D01*
X127829014Y-100300706D01*
X128055134Y-100115134D01*
X128240706Y-99889014D01*
X128378599Y-99631034D01*
X128463513Y-99351111D01*
X128492185Y-99060000D01*
X128463513Y-98768889D01*
X128378599Y-98488966D01*
X128240706Y-98230986D01*
X128055134Y-98004866D01*
X128025313Y-97980393D01*
X128094180Y-97959502D01*
X128204494Y-97900537D01*
X128301185Y-97821185D01*
X128380537Y-97724494D01*
X128439502Y-97614180D01*
X128475812Y-97494482D01*
X128488072Y-97370000D01*
X128488072Y-96361429D01*
X129440000Y-96361429D01*
X129440000Y-96678571D01*
X129501871Y-96989620D01*
X129623237Y-97282621D01*
X129799431Y-97546315D01*
X130023685Y-97770569D01*
X130287379Y-97946763D01*
X130580380Y-98068129D01*
X130891429Y-98130000D01*
X131208571Y-98130000D01*
X131519620Y-98068129D01*
X131812621Y-97946763D01*
X132076315Y-97770569D01*
X132300569Y-97546315D01*
X132476763Y-97282621D01*
X132598129Y-96989620D01*
X132660000Y-96678571D01*
X132660000Y-96361429D01*
X136940000Y-96361429D01*
X136940000Y-96678571D01*
X137001871Y-96989620D01*
X137123237Y-97282621D01*
X137299431Y-97546315D01*
X137523685Y-97770569D01*
X137787379Y-97946763D01*
X138080380Y-98068129D01*
X138391429Y-98130000D01*
X138708571Y-98130000D01*
X139019620Y-98068129D01*
X139312621Y-97946763D01*
X139576315Y-97770569D01*
X139800569Y-97546315D01*
X139976763Y-97282621D01*
X140098129Y-96989620D01*
X140160000Y-96678571D01*
X140160000Y-96361429D01*
X144440000Y-96361429D01*
X144440000Y-96678571D01*
X144501871Y-96989620D01*
X144623237Y-97282621D01*
X144799431Y-97546315D01*
X145023685Y-97770569D01*
X145287379Y-97946763D01*
X145580380Y-98068129D01*
X145891429Y-98130000D01*
X146208571Y-98130000D01*
X146519620Y-98068129D01*
X146812621Y-97946763D01*
X147076315Y-97770569D01*
X147300569Y-97546315D01*
X147476763Y-97282621D01*
X147598129Y-96989620D01*
X147660000Y-96678571D01*
X147660000Y-96361429D01*
X149520000Y-96361429D01*
X149520000Y-96678571D01*
X149581871Y-96989620D01*
X149703237Y-97282621D01*
X149879431Y-97546315D01*
X150103685Y-97770569D01*
X150367379Y-97946763D01*
X150660380Y-98068129D01*
X150971429Y-98130000D01*
X151288571Y-98130000D01*
X151599620Y-98068129D01*
X151892621Y-97946763D01*
X152156315Y-97770569D01*
X152380569Y-97546315D01*
X152556763Y-97282621D01*
X152678129Y-96989620D01*
X152740000Y-96678571D01*
X152740000Y-96583584D01*
X157013460Y-96583584D01*
X157056926Y-96897733D01*
X157160844Y-97197367D01*
X157250571Y-97365234D01*
X157512416Y-97457979D01*
X158450395Y-96520000D01*
X158809605Y-96520000D01*
X159747584Y-97457979D01*
X160009429Y-97365234D01*
X160147820Y-97079880D01*
X160227883Y-96773010D01*
X160246540Y-96456416D01*
X160233398Y-96361429D01*
X164520000Y-96361429D01*
X164520000Y-96678571D01*
X164581871Y-96989620D01*
X164703237Y-97282621D01*
X164879431Y-97546315D01*
X165103685Y-97770569D01*
X165367379Y-97946763D01*
X165660380Y-98068129D01*
X165971429Y-98130000D01*
X166288571Y-98130000D01*
X166599620Y-98068129D01*
X166892621Y-97946763D01*
X167156315Y-97770569D01*
X167380569Y-97546315D01*
X167556763Y-97282621D01*
X167678129Y-96989620D01*
X167740000Y-96678571D01*
X167740000Y-96361429D01*
X167678129Y-96050380D01*
X167556763Y-95757379D01*
X167380569Y-95493685D01*
X167156315Y-95269431D01*
X166892621Y-95093237D01*
X166599620Y-94971871D01*
X166288571Y-94910000D01*
X165971429Y-94910000D01*
X165660380Y-94971871D01*
X165367379Y-95093237D01*
X165103685Y-95269431D01*
X164879431Y-95493685D01*
X164703237Y-95757379D01*
X164581871Y-96050380D01*
X164520000Y-96361429D01*
X160233398Y-96361429D01*
X160203074Y-96142267D01*
X160099156Y-95842633D01*
X160009429Y-95674766D01*
X159747584Y-95582021D01*
X158809605Y-96520000D01*
X158450395Y-96520000D01*
X157512416Y-95582021D01*
X157250571Y-95674766D01*
X157112180Y-95960120D01*
X157032117Y-96266990D01*
X157013460Y-96583584D01*
X152740000Y-96583584D01*
X152740000Y-96361429D01*
X152678129Y-96050380D01*
X152556763Y-95757379D01*
X152380569Y-95493685D01*
X152289300Y-95402416D01*
X157692021Y-95402416D01*
X158630000Y-96340395D01*
X159567979Y-95402416D01*
X159475234Y-95140571D01*
X159189880Y-95002180D01*
X158883010Y-94922117D01*
X158566416Y-94903460D01*
X158252267Y-94946926D01*
X157952633Y-95050844D01*
X157784766Y-95140571D01*
X157692021Y-95402416D01*
X152289300Y-95402416D01*
X152156315Y-95269431D01*
X151892621Y-95093237D01*
X151599620Y-94971871D01*
X151288571Y-94910000D01*
X150971429Y-94910000D01*
X150660380Y-94971871D01*
X150367379Y-95093237D01*
X150103685Y-95269431D01*
X149879431Y-95493685D01*
X149703237Y-95757379D01*
X149581871Y-96050380D01*
X149520000Y-96361429D01*
X147660000Y-96361429D01*
X147598129Y-96050380D01*
X147476763Y-95757379D01*
X147300569Y-95493685D01*
X147076315Y-95269431D01*
X146812621Y-95093237D01*
X146519620Y-94971871D01*
X146208571Y-94910000D01*
X145891429Y-94910000D01*
X145580380Y-94971871D01*
X145287379Y-95093237D01*
X145023685Y-95269431D01*
X144799431Y-95493685D01*
X144623237Y-95757379D01*
X144501871Y-96050380D01*
X144440000Y-96361429D01*
X140160000Y-96361429D01*
X140098129Y-96050380D01*
X139976763Y-95757379D01*
X139800569Y-95493685D01*
X139576315Y-95269431D01*
X139312621Y-95093237D01*
X139019620Y-94971871D01*
X138708571Y-94910000D01*
X138391429Y-94910000D01*
X138080380Y-94971871D01*
X137787379Y-95093237D01*
X137523685Y-95269431D01*
X137299431Y-95493685D01*
X137123237Y-95757379D01*
X137001871Y-96050380D01*
X136940000Y-96361429D01*
X132660000Y-96361429D01*
X132598129Y-96050380D01*
X132476763Y-95757379D01*
X132300569Y-95493685D01*
X132076315Y-95269431D01*
X131812621Y-95093237D01*
X131519620Y-94971871D01*
X131208571Y-94910000D01*
X130891429Y-94910000D01*
X130580380Y-94971871D01*
X130287379Y-95093237D01*
X130023685Y-95269431D01*
X129799431Y-95493685D01*
X129623237Y-95757379D01*
X129501871Y-96050380D01*
X129440000Y-96361429D01*
X128488072Y-96361429D01*
X128488072Y-95670000D01*
X128475812Y-95545518D01*
X128439502Y-95425820D01*
X128380537Y-95315506D01*
X128301185Y-95218815D01*
X128204494Y-95139463D01*
X128094180Y-95080498D01*
X127974482Y-95044188D01*
X127850000Y-95031928D01*
X126415000Y-95031928D01*
X126415000Y-91339268D01*
X129215000Y-91339268D01*
X129215000Y-91700732D01*
X129285518Y-92055250D01*
X129423844Y-92389199D01*
X129624662Y-92689744D01*
X129880256Y-92945338D01*
X130180801Y-93146156D01*
X130514750Y-93284482D01*
X130869268Y-93355000D01*
X131230732Y-93355000D01*
X131585250Y-93284482D01*
X131919199Y-93146156D01*
X132219744Y-92945338D01*
X132475338Y-92689744D01*
X132676156Y-92389199D01*
X132814482Y-92055250D01*
X132885000Y-91700732D01*
X132885000Y-91339268D01*
X144215000Y-91339268D01*
X144215000Y-91700732D01*
X144285518Y-92055250D01*
X144423844Y-92389199D01*
X144624662Y-92689744D01*
X144880256Y-92945338D01*
X145180801Y-93146156D01*
X145514750Y-93284482D01*
X145869268Y-93355000D01*
X146230732Y-93355000D01*
X146585250Y-93284482D01*
X146919199Y-93146156D01*
X147219744Y-92945338D01*
X147475338Y-92689744D01*
X147676156Y-92389199D01*
X147814482Y-92055250D01*
X147885000Y-91700732D01*
X147885000Y-91339268D01*
X149295000Y-91339268D01*
X149295000Y-91700732D01*
X149365518Y-92055250D01*
X149503844Y-92389199D01*
X149704662Y-92689744D01*
X149960256Y-92945338D01*
X150260801Y-93146156D01*
X150594750Y-93284482D01*
X150949268Y-93355000D01*
X151310732Y-93355000D01*
X151665250Y-93284482D01*
X151999199Y-93146156D01*
X152299744Y-92945338D01*
X152555338Y-92689744D01*
X152756156Y-92389199D01*
X152894482Y-92055250D01*
X152965000Y-91700732D01*
X152965000Y-91339268D01*
X164295000Y-91339268D01*
X164295000Y-91700732D01*
X164365518Y-92055250D01*
X164503844Y-92389199D01*
X164704662Y-92689744D01*
X164960256Y-92945338D01*
X165260801Y-93146156D01*
X165594750Y-93284482D01*
X165949268Y-93355000D01*
X166310732Y-93355000D01*
X166665250Y-93284482D01*
X166999199Y-93146156D01*
X167299744Y-92945338D01*
X167555338Y-92689744D01*
X167756156Y-92389199D01*
X167894482Y-92055250D01*
X167965000Y-91700732D01*
X167965000Y-91339268D01*
X167894482Y-90984750D01*
X167756156Y-90650801D01*
X167555338Y-90350256D01*
X167299744Y-90094662D01*
X166999199Y-89893844D01*
X166665250Y-89755518D01*
X166310732Y-89685000D01*
X165949268Y-89685000D01*
X165594750Y-89755518D01*
X165260801Y-89893844D01*
X164960256Y-90094662D01*
X164704662Y-90350256D01*
X164503844Y-90650801D01*
X164365518Y-90984750D01*
X164295000Y-91339268D01*
X152965000Y-91339268D01*
X152894482Y-90984750D01*
X152756156Y-90650801D01*
X152555338Y-90350256D01*
X152299744Y-90094662D01*
X151999199Y-89893844D01*
X151665250Y-89755518D01*
X151310732Y-89685000D01*
X150949268Y-89685000D01*
X150594750Y-89755518D01*
X150260801Y-89893844D01*
X149960256Y-90094662D01*
X149704662Y-90350256D01*
X149503844Y-90650801D01*
X149365518Y-90984750D01*
X149295000Y-91339268D01*
X147885000Y-91339268D01*
X147814482Y-90984750D01*
X147676156Y-90650801D01*
X147475338Y-90350256D01*
X147219744Y-90094662D01*
X146919199Y-89893844D01*
X146585250Y-89755518D01*
X146230732Y-89685000D01*
X145869268Y-89685000D01*
X145514750Y-89755518D01*
X145180801Y-89893844D01*
X144880256Y-90094662D01*
X144624662Y-90350256D01*
X144423844Y-90650801D01*
X144285518Y-90984750D01*
X144215000Y-91339268D01*
X132885000Y-91339268D01*
X132814482Y-90984750D01*
X132676156Y-90650801D01*
X132475338Y-90350256D01*
X132219744Y-90094662D01*
X131919199Y-89893844D01*
X131585250Y-89755518D01*
X131230732Y-89685000D01*
X130869268Y-89685000D01*
X130514750Y-89755518D01*
X130180801Y-89893844D01*
X129880256Y-90094662D01*
X129624662Y-90350256D01*
X129423844Y-90650801D01*
X129285518Y-90984750D01*
X129215000Y-91339268D01*
X126415000Y-91339268D01*
X126415000Y-86361429D01*
X134440000Y-86361429D01*
X134440000Y-86678571D01*
X134501871Y-86989620D01*
X134623237Y-87282621D01*
X134799431Y-87546315D01*
X135023685Y-87770569D01*
X135287379Y-87946763D01*
X135580380Y-88068129D01*
X135891429Y-88130000D01*
X136208571Y-88130000D01*
X136519620Y-88068129D01*
X136812621Y-87946763D01*
X137076315Y-87770569D01*
X137300569Y-87546315D01*
X137476763Y-87282621D01*
X137598129Y-86989620D01*
X137660000Y-86678571D01*
X137660000Y-86361429D01*
X139440000Y-86361429D01*
X139440000Y-86678571D01*
X139501871Y-86989620D01*
X139623237Y-87282621D01*
X139799431Y-87546315D01*
X140023685Y-87770569D01*
X140287379Y-87946763D01*
X140580380Y-88068129D01*
X140891429Y-88130000D01*
X141208571Y-88130000D01*
X141519620Y-88068129D01*
X141812621Y-87946763D01*
X142076315Y-87770569D01*
X142209300Y-87637584D01*
X155192021Y-87637584D01*
X155284766Y-87899429D01*
X155570120Y-88037820D01*
X155876990Y-88117883D01*
X156193584Y-88136540D01*
X156507733Y-88093074D01*
X156807367Y-87989156D01*
X156975234Y-87899429D01*
X157067979Y-87637584D01*
X160192021Y-87637584D01*
X160284766Y-87899429D01*
X160570120Y-88037820D01*
X160876990Y-88117883D01*
X161193584Y-88136540D01*
X161507733Y-88093074D01*
X161807367Y-87989156D01*
X161975234Y-87899429D01*
X162067979Y-87637584D01*
X161130000Y-86699605D01*
X160192021Y-87637584D01*
X157067979Y-87637584D01*
X156130000Y-86699605D01*
X155192021Y-87637584D01*
X142209300Y-87637584D01*
X142300569Y-87546315D01*
X142476763Y-87282621D01*
X142598129Y-86989620D01*
X142660000Y-86678571D01*
X142660000Y-86583584D01*
X154513460Y-86583584D01*
X154556926Y-86897733D01*
X154660844Y-87197367D01*
X154750571Y-87365234D01*
X155012416Y-87457979D01*
X155950395Y-86520000D01*
X156309605Y-86520000D01*
X157247584Y-87457979D01*
X157509429Y-87365234D01*
X157647820Y-87079880D01*
X157727883Y-86773010D01*
X157739045Y-86583584D01*
X159513460Y-86583584D01*
X159556926Y-86897733D01*
X159660844Y-87197367D01*
X159750571Y-87365234D01*
X160012416Y-87457979D01*
X160950395Y-86520000D01*
X161309605Y-86520000D01*
X162247584Y-87457979D01*
X162509429Y-87365234D01*
X162647820Y-87079880D01*
X162727883Y-86773010D01*
X162746540Y-86456416D01*
X162703074Y-86142267D01*
X162599156Y-85842633D01*
X162509429Y-85674766D01*
X162247584Y-85582021D01*
X161309605Y-86520000D01*
X160950395Y-86520000D01*
X160012416Y-85582021D01*
X159750571Y-85674766D01*
X159612180Y-85960120D01*
X159532117Y-86266990D01*
X159513460Y-86583584D01*
X157739045Y-86583584D01*
X157746540Y-86456416D01*
X157703074Y-86142267D01*
X157599156Y-85842633D01*
X157509429Y-85674766D01*
X157247584Y-85582021D01*
X156309605Y-86520000D01*
X155950395Y-86520000D01*
X155012416Y-85582021D01*
X154750571Y-85674766D01*
X154612180Y-85960120D01*
X154532117Y-86266990D01*
X154513460Y-86583584D01*
X142660000Y-86583584D01*
X142660000Y-86361429D01*
X142598129Y-86050380D01*
X142476763Y-85757379D01*
X142300569Y-85493685D01*
X142209300Y-85402416D01*
X155192021Y-85402416D01*
X156130000Y-86340395D01*
X157067979Y-85402416D01*
X160192021Y-85402416D01*
X161130000Y-86340395D01*
X162067979Y-85402416D01*
X161975234Y-85140571D01*
X161689880Y-85002180D01*
X161383010Y-84922117D01*
X161066416Y-84903460D01*
X160752267Y-84946926D01*
X160452633Y-85050844D01*
X160284766Y-85140571D01*
X160192021Y-85402416D01*
X157067979Y-85402416D01*
X156975234Y-85140571D01*
X156689880Y-85002180D01*
X156383010Y-84922117D01*
X156066416Y-84903460D01*
X155752267Y-84946926D01*
X155452633Y-85050844D01*
X155284766Y-85140571D01*
X155192021Y-85402416D01*
X142209300Y-85402416D01*
X142076315Y-85269431D01*
X141812621Y-85093237D01*
X141519620Y-84971871D01*
X141208571Y-84910000D01*
X140891429Y-84910000D01*
X140580380Y-84971871D01*
X140287379Y-85093237D01*
X140023685Y-85269431D01*
X139799431Y-85493685D01*
X139623237Y-85757379D01*
X139501871Y-86050380D01*
X139440000Y-86361429D01*
X137660000Y-86361429D01*
X137598129Y-86050380D01*
X137476763Y-85757379D01*
X137300569Y-85493685D01*
X137076315Y-85269431D01*
X136812621Y-85093237D01*
X136519620Y-84971871D01*
X136208571Y-84910000D01*
X135891429Y-84910000D01*
X135580380Y-84971871D01*
X135287379Y-85093237D01*
X135023685Y-85269431D01*
X134799431Y-85493685D01*
X134623237Y-85757379D01*
X134501871Y-86050380D01*
X134440000Y-86361429D01*
X126415000Y-86361429D01*
X126415000Y-84505000D01*
X170765000Y-84505000D01*
X170765000Y-95031928D01*
M02*
