G04 #@! TF.GenerationSoftware,KiCad,Pcbnew,(5.1.4)-1*
G04 #@! TF.CreationDate,2020-12-21T11:36:29-05:00*
G04 #@! TF.ProjectId,breadboard_midi,62726561-6462-46f6-9172-645f6d696469,rev?*
G04 #@! TF.SameCoordinates,Original*
G04 #@! TF.FileFunction,Soldermask,Bot*
G04 #@! TF.FilePolarity,Negative*
%FSLAX46Y46*%
G04 Gerber Fmt 4.6, Leading zero omitted, Abs format (unit mm)*
G04 Created by KiCad (PCBNEW (5.1.4)-1) date 2020-12-21 11:36:29*
%MOMM*%
%LPD*%
G04 APERTURE LIST*
%ADD10C,0.100000*%
G04 APERTURE END LIST*
D10*
G36*
X171081000Y-115201000D02*
G01*
X169279000Y-115201000D01*
X169279000Y-113399000D01*
X171081000Y-113399000D01*
X171081000Y-115201000D01*
X171081000Y-115201000D01*
G37*
G36*
X129650443Y-113405519D02*
G01*
X129716627Y-113412037D01*
X129886466Y-113463557D01*
X130042991Y-113547222D01*
X130078729Y-113576552D01*
X130180186Y-113659814D01*
X130263448Y-113761271D01*
X130292778Y-113797009D01*
X130376443Y-113953534D01*
X130427963Y-114123373D01*
X130445359Y-114300000D01*
X130427963Y-114476627D01*
X130376443Y-114646466D01*
X130292778Y-114802991D01*
X130263448Y-114838729D01*
X130180186Y-114940186D01*
X130078729Y-115023448D01*
X130042991Y-115052778D01*
X129886466Y-115136443D01*
X129716627Y-115187963D01*
X129650442Y-115194482D01*
X129584260Y-115201000D01*
X129495740Y-115201000D01*
X129429558Y-115194482D01*
X129363373Y-115187963D01*
X129193534Y-115136443D01*
X129037009Y-115052778D01*
X129001271Y-115023448D01*
X128899814Y-114940186D01*
X128816552Y-114838729D01*
X128787222Y-114802991D01*
X128703557Y-114646466D01*
X128652037Y-114476627D01*
X128634641Y-114300000D01*
X128652037Y-114123373D01*
X128703557Y-113953534D01*
X128787222Y-113797009D01*
X128816552Y-113761271D01*
X128899814Y-113659814D01*
X129001271Y-113576552D01*
X129037009Y-113547222D01*
X129193534Y-113463557D01*
X129363373Y-113412037D01*
X129429557Y-113405519D01*
X129495740Y-113399000D01*
X129584260Y-113399000D01*
X129650443Y-113405519D01*
X129650443Y-113405519D01*
G37*
G36*
X127901000Y-115201000D02*
G01*
X126099000Y-115201000D01*
X126099000Y-113399000D01*
X127901000Y-113399000D01*
X127901000Y-115201000D01*
X127901000Y-115201000D01*
G37*
G36*
X167750443Y-113405519D02*
G01*
X167816627Y-113412037D01*
X167986466Y-113463557D01*
X168142991Y-113547222D01*
X168178729Y-113576552D01*
X168280186Y-113659814D01*
X168363448Y-113761271D01*
X168392778Y-113797009D01*
X168476443Y-113953534D01*
X168527963Y-114123373D01*
X168545359Y-114300000D01*
X168527963Y-114476627D01*
X168476443Y-114646466D01*
X168392778Y-114802991D01*
X168363448Y-114838729D01*
X168280186Y-114940186D01*
X168178729Y-115023448D01*
X168142991Y-115052778D01*
X167986466Y-115136443D01*
X167816627Y-115187963D01*
X167750442Y-115194482D01*
X167684260Y-115201000D01*
X167595740Y-115201000D01*
X167529558Y-115194482D01*
X167463373Y-115187963D01*
X167293534Y-115136443D01*
X167137009Y-115052778D01*
X167101271Y-115023448D01*
X166999814Y-114940186D01*
X166916552Y-114838729D01*
X166887222Y-114802991D01*
X166803557Y-114646466D01*
X166752037Y-114476627D01*
X166734641Y-114300000D01*
X166752037Y-114123373D01*
X166803557Y-113953534D01*
X166887222Y-113797009D01*
X166916552Y-113761271D01*
X166999814Y-113659814D01*
X167101271Y-113576552D01*
X167137009Y-113547222D01*
X167293534Y-113463557D01*
X167463373Y-113412037D01*
X167529557Y-113405519D01*
X167595740Y-113399000D01*
X167684260Y-113399000D01*
X167750443Y-113405519D01*
X167750443Y-113405519D01*
G37*
G36*
X152510443Y-113405519D02*
G01*
X152576627Y-113412037D01*
X152746466Y-113463557D01*
X152902991Y-113547222D01*
X152938729Y-113576552D01*
X153040186Y-113659814D01*
X153123448Y-113761271D01*
X153152778Y-113797009D01*
X153236443Y-113953534D01*
X153287963Y-114123373D01*
X153305359Y-114300000D01*
X153287963Y-114476627D01*
X153236443Y-114646466D01*
X153152778Y-114802991D01*
X153123448Y-114838729D01*
X153040186Y-114940186D01*
X152938729Y-115023448D01*
X152902991Y-115052778D01*
X152746466Y-115136443D01*
X152576627Y-115187963D01*
X152510442Y-115194482D01*
X152444260Y-115201000D01*
X152355740Y-115201000D01*
X152289558Y-115194482D01*
X152223373Y-115187963D01*
X152053534Y-115136443D01*
X151897009Y-115052778D01*
X151861271Y-115023448D01*
X151759814Y-114940186D01*
X151676552Y-114838729D01*
X151647222Y-114802991D01*
X151563557Y-114646466D01*
X151512037Y-114476627D01*
X151494641Y-114300000D01*
X151512037Y-114123373D01*
X151563557Y-113953534D01*
X151647222Y-113797009D01*
X151676552Y-113761271D01*
X151759814Y-113659814D01*
X151861271Y-113576552D01*
X151897009Y-113547222D01*
X152053534Y-113463557D01*
X152223373Y-113412037D01*
X152289557Y-113405519D01*
X152355740Y-113399000D01*
X152444260Y-113399000D01*
X152510443Y-113405519D01*
X152510443Y-113405519D01*
G37*
G36*
X147430443Y-113405519D02*
G01*
X147496627Y-113412037D01*
X147666466Y-113463557D01*
X147822991Y-113547222D01*
X147858729Y-113576552D01*
X147960186Y-113659814D01*
X148043448Y-113761271D01*
X148072778Y-113797009D01*
X148156443Y-113953534D01*
X148207963Y-114123373D01*
X148225359Y-114300000D01*
X148207963Y-114476627D01*
X148156443Y-114646466D01*
X148072778Y-114802991D01*
X148043448Y-114838729D01*
X147960186Y-114940186D01*
X147858729Y-115023448D01*
X147822991Y-115052778D01*
X147666466Y-115136443D01*
X147496627Y-115187963D01*
X147430442Y-115194482D01*
X147364260Y-115201000D01*
X147275740Y-115201000D01*
X147209558Y-115194482D01*
X147143373Y-115187963D01*
X146973534Y-115136443D01*
X146817009Y-115052778D01*
X146781271Y-115023448D01*
X146679814Y-114940186D01*
X146596552Y-114838729D01*
X146567222Y-114802991D01*
X146483557Y-114646466D01*
X146432037Y-114476627D01*
X146414641Y-114300000D01*
X146432037Y-114123373D01*
X146483557Y-113953534D01*
X146567222Y-113797009D01*
X146596552Y-113761271D01*
X146679814Y-113659814D01*
X146781271Y-113576552D01*
X146817009Y-113547222D01*
X146973534Y-113463557D01*
X147143373Y-113412037D01*
X147209557Y-113405519D01*
X147275740Y-113399000D01*
X147364260Y-113399000D01*
X147430443Y-113405519D01*
X147430443Y-113405519D01*
G37*
G36*
X145681000Y-115201000D02*
G01*
X143879000Y-115201000D01*
X143879000Y-113399000D01*
X145681000Y-113399000D01*
X145681000Y-115201000D01*
X145681000Y-115201000D01*
G37*
G36*
X149970443Y-113405519D02*
G01*
X150036627Y-113412037D01*
X150206466Y-113463557D01*
X150362991Y-113547222D01*
X150398729Y-113576552D01*
X150500186Y-113659814D01*
X150583448Y-113761271D01*
X150612778Y-113797009D01*
X150696443Y-113953534D01*
X150747963Y-114123373D01*
X150765359Y-114300000D01*
X150747963Y-114476627D01*
X150696443Y-114646466D01*
X150612778Y-114802991D01*
X150583448Y-114838729D01*
X150500186Y-114940186D01*
X150398729Y-115023448D01*
X150362991Y-115052778D01*
X150206466Y-115136443D01*
X150036627Y-115187963D01*
X149970442Y-115194482D01*
X149904260Y-115201000D01*
X149815740Y-115201000D01*
X149749558Y-115194482D01*
X149683373Y-115187963D01*
X149513534Y-115136443D01*
X149357009Y-115052778D01*
X149321271Y-115023448D01*
X149219814Y-114940186D01*
X149136552Y-114838729D01*
X149107222Y-114802991D01*
X149023557Y-114646466D01*
X148972037Y-114476627D01*
X148954641Y-114300000D01*
X148972037Y-114123373D01*
X149023557Y-113953534D01*
X149107222Y-113797009D01*
X149136552Y-113761271D01*
X149219814Y-113659814D01*
X149321271Y-113576552D01*
X149357009Y-113547222D01*
X149513534Y-113463557D01*
X149683373Y-113412037D01*
X149749557Y-113405519D01*
X149815740Y-113399000D01*
X149904260Y-113399000D01*
X149970443Y-113405519D01*
X149970443Y-113405519D01*
G37*
G36*
X152510442Y-110865518D02*
G01*
X152576627Y-110872037D01*
X152746466Y-110923557D01*
X152902991Y-111007222D01*
X152938729Y-111036552D01*
X153040186Y-111119814D01*
X153120369Y-111217519D01*
X153152778Y-111257009D01*
X153236443Y-111413534D01*
X153287963Y-111583373D01*
X153305359Y-111760000D01*
X153287963Y-111936627D01*
X153236443Y-112106466D01*
X153152778Y-112262991D01*
X153123448Y-112298729D01*
X153040186Y-112400186D01*
X152938729Y-112483448D01*
X152902991Y-112512778D01*
X152746466Y-112596443D01*
X152576627Y-112647963D01*
X152510442Y-112654482D01*
X152444260Y-112661000D01*
X152355740Y-112661000D01*
X152289558Y-112654482D01*
X152223373Y-112647963D01*
X152053534Y-112596443D01*
X151897009Y-112512778D01*
X151861271Y-112483448D01*
X151759814Y-112400186D01*
X151676552Y-112298729D01*
X151647222Y-112262991D01*
X151563557Y-112106466D01*
X151512037Y-111936627D01*
X151494641Y-111760000D01*
X151512037Y-111583373D01*
X151563557Y-111413534D01*
X151647222Y-111257009D01*
X151679631Y-111217519D01*
X151759814Y-111119814D01*
X151861271Y-111036552D01*
X151897009Y-111007222D01*
X152053534Y-110923557D01*
X152223373Y-110872037D01*
X152289558Y-110865518D01*
X152355740Y-110859000D01*
X152444260Y-110859000D01*
X152510442Y-110865518D01*
X152510442Y-110865518D01*
G37*
G36*
X145681000Y-112661000D02*
G01*
X143879000Y-112661000D01*
X143879000Y-110859000D01*
X145681000Y-110859000D01*
X145681000Y-112661000D01*
X145681000Y-112661000D01*
G37*
G36*
X147430442Y-110865518D02*
G01*
X147496627Y-110872037D01*
X147666466Y-110923557D01*
X147822991Y-111007222D01*
X147858729Y-111036552D01*
X147960186Y-111119814D01*
X148040369Y-111217519D01*
X148072778Y-111257009D01*
X148156443Y-111413534D01*
X148207963Y-111583373D01*
X148225359Y-111760000D01*
X148207963Y-111936627D01*
X148156443Y-112106466D01*
X148072778Y-112262991D01*
X148043448Y-112298729D01*
X147960186Y-112400186D01*
X147858729Y-112483448D01*
X147822991Y-112512778D01*
X147666466Y-112596443D01*
X147496627Y-112647963D01*
X147430442Y-112654482D01*
X147364260Y-112661000D01*
X147275740Y-112661000D01*
X147209558Y-112654482D01*
X147143373Y-112647963D01*
X146973534Y-112596443D01*
X146817009Y-112512778D01*
X146781271Y-112483448D01*
X146679814Y-112400186D01*
X146596552Y-112298729D01*
X146567222Y-112262991D01*
X146483557Y-112106466D01*
X146432037Y-111936627D01*
X146414641Y-111760000D01*
X146432037Y-111583373D01*
X146483557Y-111413534D01*
X146567222Y-111257009D01*
X146599631Y-111217519D01*
X146679814Y-111119814D01*
X146781271Y-111036552D01*
X146817009Y-111007222D01*
X146973534Y-110923557D01*
X147143373Y-110872037D01*
X147209558Y-110865518D01*
X147275740Y-110859000D01*
X147364260Y-110859000D01*
X147430442Y-110865518D01*
X147430442Y-110865518D01*
G37*
G36*
X149970442Y-110865518D02*
G01*
X150036627Y-110872037D01*
X150206466Y-110923557D01*
X150362991Y-111007222D01*
X150398729Y-111036552D01*
X150500186Y-111119814D01*
X150580369Y-111217519D01*
X150612778Y-111257009D01*
X150696443Y-111413534D01*
X150747963Y-111583373D01*
X150765359Y-111760000D01*
X150747963Y-111936627D01*
X150696443Y-112106466D01*
X150612778Y-112262991D01*
X150583448Y-112298729D01*
X150500186Y-112400186D01*
X150398729Y-112483448D01*
X150362991Y-112512778D01*
X150206466Y-112596443D01*
X150036627Y-112647963D01*
X149970442Y-112654482D01*
X149904260Y-112661000D01*
X149815740Y-112661000D01*
X149749558Y-112654482D01*
X149683373Y-112647963D01*
X149513534Y-112596443D01*
X149357009Y-112512778D01*
X149321271Y-112483448D01*
X149219814Y-112400186D01*
X149136552Y-112298729D01*
X149107222Y-112262991D01*
X149023557Y-112106466D01*
X148972037Y-111936627D01*
X148954641Y-111760000D01*
X148972037Y-111583373D01*
X149023557Y-111413534D01*
X149107222Y-111257009D01*
X149139631Y-111217519D01*
X149219814Y-111119814D01*
X149321271Y-111036552D01*
X149357009Y-111007222D01*
X149513534Y-110923557D01*
X149683373Y-110872037D01*
X149749558Y-110865518D01*
X149815740Y-110859000D01*
X149904260Y-110859000D01*
X149970442Y-110865518D01*
X149970442Y-110865518D01*
G37*
G36*
X139866823Y-110921313D02*
G01*
X140027242Y-110969976D01*
X140094361Y-111005852D01*
X140175078Y-111048996D01*
X140304659Y-111155341D01*
X140411004Y-111284922D01*
X140411005Y-111284924D01*
X140490024Y-111432758D01*
X140538687Y-111593177D01*
X140555117Y-111760000D01*
X140538687Y-111926823D01*
X140490024Y-112087242D01*
X140449477Y-112163100D01*
X140411004Y-112235078D01*
X140304659Y-112364659D01*
X140175078Y-112471004D01*
X140175076Y-112471005D01*
X140027242Y-112550024D01*
X139866823Y-112598687D01*
X139741804Y-112611000D01*
X139658196Y-112611000D01*
X139533177Y-112598687D01*
X139372758Y-112550024D01*
X139224924Y-112471005D01*
X139224922Y-112471004D01*
X139095341Y-112364659D01*
X138988996Y-112235078D01*
X138950523Y-112163100D01*
X138909976Y-112087242D01*
X138861313Y-111926823D01*
X138844883Y-111760000D01*
X138861313Y-111593177D01*
X138909976Y-111432758D01*
X138988995Y-111284924D01*
X138988996Y-111284922D01*
X139095341Y-111155341D01*
X139224922Y-111048996D01*
X139305639Y-111005852D01*
X139372758Y-110969976D01*
X139533177Y-110921313D01*
X139658196Y-110909000D01*
X139741804Y-110909000D01*
X139866823Y-110921313D01*
X139866823Y-110921313D01*
G37*
G36*
X132246823Y-110921313D02*
G01*
X132407242Y-110969976D01*
X132474361Y-111005852D01*
X132555078Y-111048996D01*
X132684659Y-111155341D01*
X132791004Y-111284922D01*
X132791005Y-111284924D01*
X132870024Y-111432758D01*
X132918687Y-111593177D01*
X132935117Y-111760000D01*
X132918687Y-111926823D01*
X132870024Y-112087242D01*
X132829477Y-112163100D01*
X132791004Y-112235078D01*
X132684659Y-112364659D01*
X132555078Y-112471004D01*
X132555076Y-112471005D01*
X132407242Y-112550024D01*
X132246823Y-112598687D01*
X132121804Y-112611000D01*
X132038196Y-112611000D01*
X131913177Y-112598687D01*
X131752758Y-112550024D01*
X131604924Y-112471005D01*
X131604922Y-112471004D01*
X131475341Y-112364659D01*
X131368996Y-112235078D01*
X131330523Y-112163100D01*
X131289976Y-112087242D01*
X131241313Y-111926823D01*
X131224883Y-111760000D01*
X131241313Y-111593177D01*
X131289976Y-111432758D01*
X131368995Y-111284924D01*
X131368996Y-111284922D01*
X131475341Y-111155341D01*
X131604922Y-111048996D01*
X131685639Y-111005852D01*
X131752758Y-110969976D01*
X131913177Y-110921313D01*
X132038196Y-110909000D01*
X132121804Y-110909000D01*
X132246823Y-110921313D01*
X132246823Y-110921313D01*
G37*
G36*
X127248228Y-110941703D02*
G01*
X127403100Y-111005853D01*
X127542481Y-111098985D01*
X127661015Y-111217519D01*
X127754147Y-111356900D01*
X127818297Y-111511772D01*
X127851000Y-111676184D01*
X127851000Y-111843816D01*
X127818297Y-112008228D01*
X127754147Y-112163100D01*
X127661015Y-112302481D01*
X127542481Y-112421015D01*
X127403100Y-112514147D01*
X127248228Y-112578297D01*
X127083816Y-112611000D01*
X126916184Y-112611000D01*
X126751772Y-112578297D01*
X126596900Y-112514147D01*
X126457519Y-112421015D01*
X126338985Y-112302481D01*
X126245853Y-112163100D01*
X126181703Y-112008228D01*
X126149000Y-111843816D01*
X126149000Y-111676184D01*
X126181703Y-111511772D01*
X126245853Y-111356900D01*
X126338985Y-111217519D01*
X126457519Y-111098985D01*
X126596900Y-111005853D01*
X126751772Y-110941703D01*
X126916184Y-110909000D01*
X127083816Y-110909000D01*
X127248228Y-110941703D01*
X127248228Y-110941703D01*
G37*
G36*
X160268228Y-110941703D02*
G01*
X160423100Y-111005853D01*
X160562481Y-111098985D01*
X160681015Y-111217519D01*
X160774147Y-111356900D01*
X160838297Y-111511772D01*
X160871000Y-111676184D01*
X160871000Y-111843816D01*
X160838297Y-112008228D01*
X160774147Y-112163100D01*
X160681015Y-112302481D01*
X160562481Y-112421015D01*
X160423100Y-112514147D01*
X160268228Y-112578297D01*
X160103816Y-112611000D01*
X159936184Y-112611000D01*
X159771772Y-112578297D01*
X159616900Y-112514147D01*
X159477519Y-112421015D01*
X159358985Y-112302481D01*
X159265853Y-112163100D01*
X159201703Y-112008228D01*
X159169000Y-111843816D01*
X159169000Y-111676184D01*
X159201703Y-111511772D01*
X159265853Y-111356900D01*
X159358985Y-111217519D01*
X159477519Y-111098985D01*
X159616900Y-111005853D01*
X159771772Y-110941703D01*
X159936184Y-110909000D01*
X160103816Y-110909000D01*
X160268228Y-110941703D01*
X160268228Y-110941703D01*
G37*
G36*
X129706823Y-110921313D02*
G01*
X129867242Y-110969976D01*
X129934361Y-111005852D01*
X130015078Y-111048996D01*
X130144659Y-111155341D01*
X130251004Y-111284922D01*
X130251005Y-111284924D01*
X130330024Y-111432758D01*
X130378687Y-111593177D01*
X130395117Y-111760000D01*
X130378687Y-111926823D01*
X130330024Y-112087242D01*
X130289477Y-112163100D01*
X130251004Y-112235078D01*
X130144659Y-112364659D01*
X130015078Y-112471004D01*
X130015076Y-112471005D01*
X129867242Y-112550024D01*
X129706823Y-112598687D01*
X129581804Y-112611000D01*
X129498196Y-112611000D01*
X129373177Y-112598687D01*
X129212758Y-112550024D01*
X129064924Y-112471005D01*
X129064922Y-112471004D01*
X128935341Y-112364659D01*
X128828996Y-112235078D01*
X128790523Y-112163100D01*
X128749976Y-112087242D01*
X128701313Y-111926823D01*
X128684883Y-111760000D01*
X128701313Y-111593177D01*
X128749976Y-111432758D01*
X128828995Y-111284924D01*
X128828996Y-111284922D01*
X128935341Y-111155341D01*
X129064922Y-111048996D01*
X129145639Y-111005852D01*
X129212758Y-110969976D01*
X129373177Y-110921313D01*
X129498196Y-110909000D01*
X129581804Y-110909000D01*
X129706823Y-110921313D01*
X129706823Y-110921313D01*
G37*
G36*
X160268228Y-108441703D02*
G01*
X160423100Y-108505853D01*
X160562481Y-108598985D01*
X160681015Y-108717519D01*
X160774147Y-108856900D01*
X160838297Y-109011772D01*
X160871000Y-109176184D01*
X160871000Y-109343816D01*
X160838297Y-109508228D01*
X160774147Y-109663100D01*
X160681015Y-109802481D01*
X160562481Y-109921015D01*
X160423100Y-110014147D01*
X160268228Y-110078297D01*
X160103816Y-110111000D01*
X159936184Y-110111000D01*
X159771772Y-110078297D01*
X159616900Y-110014147D01*
X159477519Y-109921015D01*
X159358985Y-109802481D01*
X159265853Y-109663100D01*
X159201703Y-109508228D01*
X159169000Y-109343816D01*
X159169000Y-109176184D01*
X159201703Y-109011772D01*
X159265853Y-108856900D01*
X159358985Y-108717519D01*
X159477519Y-108598985D01*
X159616900Y-108505853D01*
X159771772Y-108441703D01*
X159936184Y-108409000D01*
X160103816Y-108409000D01*
X160268228Y-108441703D01*
X160268228Y-108441703D01*
G37*
G36*
X139866823Y-108381313D02*
G01*
X140027242Y-108429976D01*
X140159906Y-108500886D01*
X140175078Y-108508996D01*
X140304659Y-108615341D01*
X140411004Y-108744922D01*
X140411005Y-108744924D01*
X140490024Y-108892758D01*
X140538687Y-109053177D01*
X140555117Y-109220000D01*
X140538687Y-109386823D01*
X140490024Y-109547242D01*
X140419114Y-109679906D01*
X140411004Y-109695078D01*
X140304659Y-109824659D01*
X140175078Y-109931004D01*
X140175076Y-109931005D01*
X140027242Y-110010024D01*
X140027239Y-110010025D01*
X140013647Y-110014148D01*
X139866823Y-110058687D01*
X139741804Y-110071000D01*
X139658196Y-110071000D01*
X139533177Y-110058687D01*
X139386353Y-110014148D01*
X139372761Y-110010025D01*
X139372758Y-110010024D01*
X139224924Y-109931005D01*
X139224922Y-109931004D01*
X139095341Y-109824659D01*
X138988996Y-109695078D01*
X138980886Y-109679906D01*
X138909976Y-109547242D01*
X138861313Y-109386823D01*
X138844883Y-109220000D01*
X138861313Y-109053177D01*
X138909976Y-108892758D01*
X138988995Y-108744924D01*
X138988996Y-108744922D01*
X139095341Y-108615341D01*
X139224922Y-108508996D01*
X139240094Y-108500886D01*
X139372758Y-108429976D01*
X139533177Y-108381313D01*
X139658196Y-108369000D01*
X139741804Y-108369000D01*
X139866823Y-108381313D01*
X139866823Y-108381313D01*
G37*
G36*
X132246823Y-108381313D02*
G01*
X132407242Y-108429976D01*
X132539906Y-108500886D01*
X132555078Y-108508996D01*
X132684659Y-108615341D01*
X132791004Y-108744922D01*
X132791005Y-108744924D01*
X132870024Y-108892758D01*
X132918687Y-109053177D01*
X132935117Y-109220000D01*
X132918687Y-109386823D01*
X132870024Y-109547242D01*
X132799114Y-109679906D01*
X132791004Y-109695078D01*
X132684659Y-109824659D01*
X132555078Y-109931004D01*
X132555076Y-109931005D01*
X132407242Y-110010024D01*
X132407239Y-110010025D01*
X132393647Y-110014148D01*
X132246823Y-110058687D01*
X132121804Y-110071000D01*
X132038196Y-110071000D01*
X131913177Y-110058687D01*
X131766353Y-110014148D01*
X131752761Y-110010025D01*
X131752758Y-110010024D01*
X131604924Y-109931005D01*
X131604922Y-109931004D01*
X131475341Y-109824659D01*
X131368996Y-109695078D01*
X131360886Y-109679906D01*
X131289976Y-109547242D01*
X131241313Y-109386823D01*
X131224883Y-109220000D01*
X131241313Y-109053177D01*
X131289976Y-108892758D01*
X131368995Y-108744924D01*
X131368996Y-108744922D01*
X131475341Y-108615341D01*
X131604922Y-108508996D01*
X131620094Y-108500886D01*
X131752758Y-108429976D01*
X131913177Y-108381313D01*
X132038196Y-108369000D01*
X132121804Y-108369000D01*
X132246823Y-108381313D01*
X132246823Y-108381313D01*
G37*
G36*
X139866823Y-105841313D02*
G01*
X140027242Y-105889976D01*
X140094361Y-105925852D01*
X140175078Y-105968996D01*
X140304659Y-106075341D01*
X140411004Y-106204922D01*
X140411005Y-106204924D01*
X140490024Y-106352758D01*
X140538687Y-106513177D01*
X140555117Y-106680000D01*
X140538687Y-106846823D01*
X140490024Y-107007242D01*
X140449477Y-107083100D01*
X140411004Y-107155078D01*
X140304659Y-107284659D01*
X140175078Y-107391004D01*
X140175076Y-107391005D01*
X140027242Y-107470024D01*
X139866823Y-107518687D01*
X139741804Y-107531000D01*
X139658196Y-107531000D01*
X139533177Y-107518687D01*
X139372758Y-107470024D01*
X139224924Y-107391005D01*
X139224922Y-107391004D01*
X139095341Y-107284659D01*
X138988996Y-107155078D01*
X138950523Y-107083100D01*
X138909976Y-107007242D01*
X138861313Y-106846823D01*
X138844883Y-106680000D01*
X138861313Y-106513177D01*
X138909976Y-106352758D01*
X138988995Y-106204924D01*
X138988996Y-106204922D01*
X139095341Y-106075341D01*
X139224922Y-105968996D01*
X139305639Y-105925852D01*
X139372758Y-105889976D01*
X139533177Y-105841313D01*
X139658196Y-105829000D01*
X139741804Y-105829000D01*
X139866823Y-105841313D01*
X139866823Y-105841313D01*
G37*
G36*
X132246823Y-105841313D02*
G01*
X132407242Y-105889976D01*
X132474361Y-105925852D01*
X132555078Y-105968996D01*
X132684659Y-106075341D01*
X132791004Y-106204922D01*
X132791005Y-106204924D01*
X132870024Y-106352758D01*
X132918687Y-106513177D01*
X132935117Y-106680000D01*
X132918687Y-106846823D01*
X132870024Y-107007242D01*
X132829477Y-107083100D01*
X132791004Y-107155078D01*
X132684659Y-107284659D01*
X132555078Y-107391004D01*
X132555076Y-107391005D01*
X132407242Y-107470024D01*
X132246823Y-107518687D01*
X132121804Y-107531000D01*
X132038196Y-107531000D01*
X131913177Y-107518687D01*
X131752758Y-107470024D01*
X131604924Y-107391005D01*
X131604922Y-107391004D01*
X131475341Y-107284659D01*
X131368996Y-107155078D01*
X131330523Y-107083100D01*
X131289976Y-107007242D01*
X131241313Y-106846823D01*
X131224883Y-106680000D01*
X131241313Y-106513177D01*
X131289976Y-106352758D01*
X131368995Y-106204924D01*
X131368996Y-106204922D01*
X131475341Y-106075341D01*
X131604922Y-105968996D01*
X131685639Y-105925852D01*
X131752758Y-105889976D01*
X131913177Y-105841313D01*
X132038196Y-105829000D01*
X132121804Y-105829000D01*
X132246823Y-105841313D01*
X132246823Y-105841313D01*
G37*
G36*
X157728228Y-105861703D02*
G01*
X157883100Y-105925853D01*
X158022481Y-106018985D01*
X158141015Y-106137519D01*
X158234147Y-106276900D01*
X158298297Y-106431772D01*
X158331000Y-106596184D01*
X158331000Y-106763816D01*
X158298297Y-106928228D01*
X158234147Y-107083100D01*
X158141015Y-107222481D01*
X158022481Y-107341015D01*
X157883100Y-107434147D01*
X157728228Y-107498297D01*
X157563816Y-107531000D01*
X157396184Y-107531000D01*
X157231772Y-107498297D01*
X157076900Y-107434147D01*
X156937519Y-107341015D01*
X156818985Y-107222481D01*
X156725853Y-107083100D01*
X156661703Y-106928228D01*
X156629000Y-106763816D01*
X156629000Y-106596184D01*
X156661703Y-106431772D01*
X156725853Y-106276900D01*
X156818985Y-106137519D01*
X156937519Y-106018985D01*
X157076900Y-105925853D01*
X157231772Y-105861703D01*
X157396184Y-105829000D01*
X157563816Y-105829000D01*
X157728228Y-105861703D01*
X157728228Y-105861703D01*
G37*
G36*
X167806823Y-105841313D02*
G01*
X167967242Y-105889976D01*
X168034361Y-105925852D01*
X168115078Y-105968996D01*
X168244659Y-106075341D01*
X168351004Y-106204922D01*
X168351005Y-106204924D01*
X168430024Y-106352758D01*
X168478687Y-106513177D01*
X168495117Y-106680000D01*
X168478687Y-106846823D01*
X168430024Y-107007242D01*
X168389477Y-107083100D01*
X168351004Y-107155078D01*
X168244659Y-107284659D01*
X168115078Y-107391004D01*
X168115076Y-107391005D01*
X167967242Y-107470024D01*
X167806823Y-107518687D01*
X167681804Y-107531000D01*
X167598196Y-107531000D01*
X167473177Y-107518687D01*
X167312758Y-107470024D01*
X167164924Y-107391005D01*
X167164922Y-107391004D01*
X167035341Y-107284659D01*
X166928996Y-107155078D01*
X166890523Y-107083100D01*
X166849976Y-107007242D01*
X166801313Y-106846823D01*
X166784883Y-106680000D01*
X166801313Y-106513177D01*
X166849976Y-106352758D01*
X166928995Y-106204924D01*
X166928996Y-106204922D01*
X167035341Y-106075341D01*
X167164922Y-105968996D01*
X167245639Y-105925852D01*
X167312758Y-105889976D01*
X167473177Y-105841313D01*
X167598196Y-105829000D01*
X167681804Y-105829000D01*
X167806823Y-105841313D01*
X167806823Y-105841313D01*
G37*
G36*
X139866823Y-103301313D02*
G01*
X140027242Y-103349976D01*
X140094361Y-103385852D01*
X140175078Y-103428996D01*
X140304659Y-103535341D01*
X140411004Y-103664922D01*
X140411005Y-103664924D01*
X140490024Y-103812758D01*
X140538687Y-103973177D01*
X140555117Y-104140000D01*
X140538687Y-104306823D01*
X140490024Y-104467242D01*
X140449477Y-104543100D01*
X140411004Y-104615078D01*
X140304659Y-104744659D01*
X140175078Y-104851004D01*
X140175076Y-104851005D01*
X140027242Y-104930024D01*
X139866823Y-104978687D01*
X139741804Y-104991000D01*
X139658196Y-104991000D01*
X139533177Y-104978687D01*
X139372758Y-104930024D01*
X139224924Y-104851005D01*
X139224922Y-104851004D01*
X139095341Y-104744659D01*
X138988996Y-104615078D01*
X138950523Y-104543100D01*
X138909976Y-104467242D01*
X138861313Y-104306823D01*
X138844883Y-104140000D01*
X138861313Y-103973177D01*
X138909976Y-103812758D01*
X138988995Y-103664924D01*
X138988996Y-103664922D01*
X139095341Y-103535341D01*
X139224922Y-103428996D01*
X139305639Y-103385852D01*
X139372758Y-103349976D01*
X139533177Y-103301313D01*
X139658196Y-103289000D01*
X139741804Y-103289000D01*
X139866823Y-103301313D01*
X139866823Y-103301313D01*
G37*
G36*
X130391000Y-104991000D02*
G01*
X128689000Y-104991000D01*
X128689000Y-103289000D01*
X130391000Y-103289000D01*
X130391000Y-104991000D01*
X130391000Y-104991000D01*
G37*
G36*
X132931000Y-104991000D02*
G01*
X131229000Y-104991000D01*
X131229000Y-103289000D01*
X132931000Y-103289000D01*
X132931000Y-104991000D01*
X132931000Y-104991000D01*
G37*
G36*
X157646823Y-103301313D02*
G01*
X157807242Y-103349976D01*
X157874361Y-103385852D01*
X157955078Y-103428996D01*
X158084659Y-103535341D01*
X158191004Y-103664922D01*
X158191005Y-103664924D01*
X158270024Y-103812758D01*
X158318687Y-103973177D01*
X158335117Y-104140000D01*
X158318687Y-104306823D01*
X158270024Y-104467242D01*
X158229477Y-104543100D01*
X158191004Y-104615078D01*
X158084659Y-104744659D01*
X157955078Y-104851004D01*
X157955076Y-104851005D01*
X157807242Y-104930024D01*
X157646823Y-104978687D01*
X157521804Y-104991000D01*
X157438196Y-104991000D01*
X157313177Y-104978687D01*
X157152758Y-104930024D01*
X157004924Y-104851005D01*
X157004922Y-104851004D01*
X156875341Y-104744659D01*
X156768996Y-104615078D01*
X156730523Y-104543100D01*
X156689976Y-104467242D01*
X156641313Y-104306823D01*
X156624883Y-104140000D01*
X156641313Y-103973177D01*
X156689976Y-103812758D01*
X156768995Y-103664924D01*
X156768996Y-103664922D01*
X156875341Y-103535341D01*
X157004922Y-103428996D01*
X157085639Y-103385852D01*
X157152758Y-103349976D01*
X157313177Y-103301313D01*
X157438196Y-103289000D01*
X157521804Y-103289000D01*
X157646823Y-103301313D01*
X157646823Y-103301313D01*
G37*
G36*
X167888228Y-103321703D02*
G01*
X168043100Y-103385853D01*
X168182481Y-103478985D01*
X168301015Y-103597519D01*
X168394147Y-103736900D01*
X168458297Y-103891772D01*
X168491000Y-104056184D01*
X168491000Y-104223816D01*
X168458297Y-104388228D01*
X168394147Y-104543100D01*
X168301015Y-104682481D01*
X168182481Y-104801015D01*
X168043100Y-104894147D01*
X167888228Y-104958297D01*
X167723816Y-104991000D01*
X167556184Y-104991000D01*
X167391772Y-104958297D01*
X167236900Y-104894147D01*
X167097519Y-104801015D01*
X166978985Y-104682481D01*
X166885853Y-104543100D01*
X166821703Y-104388228D01*
X166789000Y-104223816D01*
X166789000Y-104056184D01*
X166821703Y-103891772D01*
X166885853Y-103736900D01*
X166978985Y-103597519D01*
X167097519Y-103478985D01*
X167236900Y-103385853D01*
X167391772Y-103321703D01*
X167556184Y-103289000D01*
X167723816Y-103289000D01*
X167888228Y-103321703D01*
X167888228Y-103321703D01*
G37*
G36*
X127166823Y-100761313D02*
G01*
X127327242Y-100809976D01*
X127394361Y-100845852D01*
X127475078Y-100888996D01*
X127604659Y-100995341D01*
X127711004Y-101124922D01*
X127711005Y-101124924D01*
X127790024Y-101272758D01*
X127838687Y-101433177D01*
X127855117Y-101600000D01*
X127838687Y-101766823D01*
X127790024Y-101927242D01*
X127749477Y-102003100D01*
X127711004Y-102075078D01*
X127604659Y-102204659D01*
X127475078Y-102311004D01*
X127475076Y-102311005D01*
X127327242Y-102390024D01*
X127166823Y-102438687D01*
X127041804Y-102451000D01*
X126958196Y-102451000D01*
X126833177Y-102438687D01*
X126672758Y-102390024D01*
X126524924Y-102311005D01*
X126524922Y-102311004D01*
X126395341Y-102204659D01*
X126288996Y-102075078D01*
X126250523Y-102003100D01*
X126209976Y-101927242D01*
X126161313Y-101766823D01*
X126144883Y-101600000D01*
X126161313Y-101433177D01*
X126209976Y-101272758D01*
X126288995Y-101124924D01*
X126288996Y-101124922D01*
X126395341Y-100995341D01*
X126524922Y-100888996D01*
X126605639Y-100845852D01*
X126672758Y-100809976D01*
X126833177Y-100761313D01*
X126958196Y-100749000D01*
X127041804Y-100749000D01*
X127166823Y-100761313D01*
X127166823Y-100761313D01*
G37*
G36*
X139948228Y-100781703D02*
G01*
X140103100Y-100845853D01*
X140242481Y-100938985D01*
X140361015Y-101057519D01*
X140454147Y-101196900D01*
X140518297Y-101351772D01*
X140551000Y-101516184D01*
X140551000Y-101683816D01*
X140518297Y-101848228D01*
X140454147Y-102003100D01*
X140361015Y-102142481D01*
X140242481Y-102261015D01*
X140103100Y-102354147D01*
X139948228Y-102418297D01*
X139783816Y-102451000D01*
X139616184Y-102451000D01*
X139451772Y-102418297D01*
X139296900Y-102354147D01*
X139157519Y-102261015D01*
X139038985Y-102142481D01*
X138945853Y-102003100D01*
X138881703Y-101848228D01*
X138849000Y-101683816D01*
X138849000Y-101516184D01*
X138881703Y-101351772D01*
X138945853Y-101196900D01*
X139038985Y-101057519D01*
X139157519Y-100938985D01*
X139296900Y-100845853D01*
X139451772Y-100781703D01*
X139616184Y-100749000D01*
X139783816Y-100749000D01*
X139948228Y-100781703D01*
X139948228Y-100781703D01*
G37*
G36*
X137448228Y-100781703D02*
G01*
X137603100Y-100845853D01*
X137742481Y-100938985D01*
X137861015Y-101057519D01*
X137954147Y-101196900D01*
X138018297Y-101351772D01*
X138051000Y-101516184D01*
X138051000Y-101683816D01*
X138018297Y-101848228D01*
X137954147Y-102003100D01*
X137861015Y-102142481D01*
X137742481Y-102261015D01*
X137603100Y-102354147D01*
X137448228Y-102418297D01*
X137283816Y-102451000D01*
X137116184Y-102451000D01*
X136951772Y-102418297D01*
X136796900Y-102354147D01*
X136657519Y-102261015D01*
X136538985Y-102142481D01*
X136445853Y-102003100D01*
X136381703Y-101848228D01*
X136349000Y-101683816D01*
X136349000Y-101516184D01*
X136381703Y-101351772D01*
X136445853Y-101196900D01*
X136538985Y-101057519D01*
X136657519Y-100938985D01*
X136796900Y-100845853D01*
X136951772Y-100781703D01*
X137116184Y-100749000D01*
X137283816Y-100749000D01*
X137448228Y-100781703D01*
X137448228Y-100781703D01*
G37*
G36*
X134828228Y-100781703D02*
G01*
X134983100Y-100845853D01*
X135122481Y-100938985D01*
X135241015Y-101057519D01*
X135334147Y-101196900D01*
X135398297Y-101351772D01*
X135431000Y-101516184D01*
X135431000Y-101683816D01*
X135398297Y-101848228D01*
X135334147Y-102003100D01*
X135241015Y-102142481D01*
X135122481Y-102261015D01*
X134983100Y-102354147D01*
X134828228Y-102418297D01*
X134663816Y-102451000D01*
X134496184Y-102451000D01*
X134331772Y-102418297D01*
X134176900Y-102354147D01*
X134037519Y-102261015D01*
X133918985Y-102142481D01*
X133825853Y-102003100D01*
X133761703Y-101848228D01*
X133729000Y-101683816D01*
X133729000Y-101516184D01*
X133761703Y-101351772D01*
X133825853Y-101196900D01*
X133918985Y-101057519D01*
X134037519Y-100938985D01*
X134176900Y-100845853D01*
X134331772Y-100781703D01*
X134496184Y-100749000D01*
X134663816Y-100749000D01*
X134828228Y-100781703D01*
X134828228Y-100781703D01*
G37*
G36*
X153836823Y-100761313D02*
G01*
X153997242Y-100809976D01*
X154064361Y-100845852D01*
X154145078Y-100888996D01*
X154274659Y-100995341D01*
X154381004Y-101124922D01*
X154381005Y-101124924D01*
X154460024Y-101272758D01*
X154508687Y-101433177D01*
X154525117Y-101600000D01*
X154508687Y-101766823D01*
X154460024Y-101927242D01*
X154419477Y-102003100D01*
X154381004Y-102075078D01*
X154274659Y-102204659D01*
X154145078Y-102311004D01*
X154145076Y-102311005D01*
X153997242Y-102390024D01*
X153836823Y-102438687D01*
X153711804Y-102451000D01*
X153628196Y-102451000D01*
X153503177Y-102438687D01*
X153342758Y-102390024D01*
X153194924Y-102311005D01*
X153194922Y-102311004D01*
X153065341Y-102204659D01*
X152958996Y-102075078D01*
X152920523Y-102003100D01*
X152879976Y-101927242D01*
X152831313Y-101766823D01*
X152814883Y-101600000D01*
X152831313Y-101433177D01*
X152879976Y-101272758D01*
X152958995Y-101124924D01*
X152958996Y-101124922D01*
X153065341Y-100995341D01*
X153194922Y-100888996D01*
X153275639Y-100845852D01*
X153342758Y-100809976D01*
X153503177Y-100761313D01*
X153628196Y-100749000D01*
X153711804Y-100749000D01*
X153836823Y-100761313D01*
X153836823Y-100761313D01*
G37*
G36*
X143758228Y-100781703D02*
G01*
X143913100Y-100845853D01*
X144052481Y-100938985D01*
X144171015Y-101057519D01*
X144264147Y-101196900D01*
X144328297Y-101351772D01*
X144361000Y-101516184D01*
X144361000Y-101683816D01*
X144328297Y-101848228D01*
X144264147Y-102003100D01*
X144171015Y-102142481D01*
X144052481Y-102261015D01*
X143913100Y-102354147D01*
X143758228Y-102418297D01*
X143593816Y-102451000D01*
X143426184Y-102451000D01*
X143261772Y-102418297D01*
X143106900Y-102354147D01*
X142967519Y-102261015D01*
X142848985Y-102142481D01*
X142755853Y-102003100D01*
X142691703Y-101848228D01*
X142659000Y-101683816D01*
X142659000Y-101516184D01*
X142691703Y-101351772D01*
X142755853Y-101196900D01*
X142848985Y-101057519D01*
X142967519Y-100938985D01*
X143106900Y-100845853D01*
X143261772Y-100781703D01*
X143426184Y-100749000D01*
X143593816Y-100749000D01*
X143758228Y-100781703D01*
X143758228Y-100781703D01*
G37*
G36*
X132328228Y-100781703D02*
G01*
X132483100Y-100845853D01*
X132622481Y-100938985D01*
X132741015Y-101057519D01*
X132834147Y-101196900D01*
X132898297Y-101351772D01*
X132931000Y-101516184D01*
X132931000Y-101683816D01*
X132898297Y-101848228D01*
X132834147Y-102003100D01*
X132741015Y-102142481D01*
X132622481Y-102261015D01*
X132483100Y-102354147D01*
X132328228Y-102418297D01*
X132163816Y-102451000D01*
X131996184Y-102451000D01*
X131831772Y-102418297D01*
X131676900Y-102354147D01*
X131537519Y-102261015D01*
X131418985Y-102142481D01*
X131325853Y-102003100D01*
X131261703Y-101848228D01*
X131229000Y-101683816D01*
X131229000Y-101516184D01*
X131261703Y-101351772D01*
X131325853Y-101196900D01*
X131418985Y-101057519D01*
X131537519Y-100938985D01*
X131676900Y-100845853D01*
X131831772Y-100781703D01*
X131996184Y-100749000D01*
X132163816Y-100749000D01*
X132328228Y-100781703D01*
X132328228Y-100781703D01*
G37*
G36*
X163929272Y-98033428D02*
G01*
X164115991Y-98110770D01*
X164115993Y-98110771D01*
X164284037Y-98223054D01*
X164426946Y-98365963D01*
X164539229Y-98534007D01*
X164539230Y-98534009D01*
X164616572Y-98720728D01*
X164656000Y-98918947D01*
X164656000Y-99121053D01*
X164616572Y-99319272D01*
X164580454Y-99406468D01*
X164539229Y-99505993D01*
X164426946Y-99674037D01*
X164284037Y-99816946D01*
X164115993Y-99929229D01*
X164115992Y-99929230D01*
X164115991Y-99929230D01*
X163929272Y-100006572D01*
X163731053Y-100046000D01*
X163528947Y-100046000D01*
X163330728Y-100006572D01*
X163144009Y-99929230D01*
X163144008Y-99929230D01*
X163144007Y-99929229D01*
X162975963Y-99816946D01*
X162833054Y-99674037D01*
X162720771Y-99505993D01*
X162679546Y-99406468D01*
X162643428Y-99319272D01*
X162604000Y-99121053D01*
X162604000Y-98918947D01*
X162643428Y-98720728D01*
X162720770Y-98534009D01*
X162720771Y-98534007D01*
X162833054Y-98365963D01*
X162975963Y-98223054D01*
X163144007Y-98110771D01*
X163144009Y-98110770D01*
X163330728Y-98033428D01*
X163528947Y-97994000D01*
X163731053Y-97994000D01*
X163929272Y-98033428D01*
X163929272Y-98033428D01*
G37*
G36*
X153929272Y-98033428D02*
G01*
X154115991Y-98110770D01*
X154115993Y-98110771D01*
X154284037Y-98223054D01*
X154426946Y-98365963D01*
X154539229Y-98534007D01*
X154539230Y-98534009D01*
X154616572Y-98720728D01*
X154656000Y-98918947D01*
X154656000Y-99121053D01*
X154616572Y-99319272D01*
X154580454Y-99406468D01*
X154539229Y-99505993D01*
X154426946Y-99674037D01*
X154284037Y-99816946D01*
X154115993Y-99929229D01*
X154115992Y-99929230D01*
X154115991Y-99929230D01*
X153929272Y-100006572D01*
X153731053Y-100046000D01*
X153528947Y-100046000D01*
X153330728Y-100006572D01*
X153144009Y-99929230D01*
X153144008Y-99929230D01*
X153144007Y-99929229D01*
X152975963Y-99816946D01*
X152833054Y-99674037D01*
X152720771Y-99505993D01*
X152679546Y-99406468D01*
X152643428Y-99319272D01*
X152604000Y-99121053D01*
X152604000Y-98918947D01*
X152643428Y-98720728D01*
X152720770Y-98534009D01*
X152720771Y-98534007D01*
X152833054Y-98365963D01*
X152975963Y-98223054D01*
X153144007Y-98110771D01*
X153144009Y-98110770D01*
X153330728Y-98033428D01*
X153528947Y-97994000D01*
X153731053Y-97994000D01*
X153929272Y-98033428D01*
X153929272Y-98033428D01*
G37*
G36*
X143849272Y-98033428D02*
G01*
X144035991Y-98110770D01*
X144035993Y-98110771D01*
X144204037Y-98223054D01*
X144346946Y-98365963D01*
X144459229Y-98534007D01*
X144459230Y-98534009D01*
X144536572Y-98720728D01*
X144576000Y-98918947D01*
X144576000Y-99121053D01*
X144536572Y-99319272D01*
X144500454Y-99406468D01*
X144459229Y-99505993D01*
X144346946Y-99674037D01*
X144204037Y-99816946D01*
X144035993Y-99929229D01*
X144035992Y-99929230D01*
X144035991Y-99929230D01*
X143849272Y-100006572D01*
X143651053Y-100046000D01*
X143448947Y-100046000D01*
X143250728Y-100006572D01*
X143064009Y-99929230D01*
X143064008Y-99929230D01*
X143064007Y-99929229D01*
X142895963Y-99816946D01*
X142753054Y-99674037D01*
X142640771Y-99505993D01*
X142599546Y-99406468D01*
X142563428Y-99319272D01*
X142524000Y-99121053D01*
X142524000Y-98918947D01*
X142563428Y-98720728D01*
X142640770Y-98534009D01*
X142640771Y-98534007D01*
X142753054Y-98365963D01*
X142895963Y-98223054D01*
X143064007Y-98110771D01*
X143064009Y-98110770D01*
X143250728Y-98033428D01*
X143448947Y-97994000D01*
X143651053Y-97994000D01*
X143849272Y-98033428D01*
X143849272Y-98033428D01*
G37*
G36*
X133849272Y-98033428D02*
G01*
X134035991Y-98110770D01*
X134035993Y-98110771D01*
X134204037Y-98223054D01*
X134346946Y-98365963D01*
X134459229Y-98534007D01*
X134459230Y-98534009D01*
X134536572Y-98720728D01*
X134576000Y-98918947D01*
X134576000Y-99121053D01*
X134536572Y-99319272D01*
X134500454Y-99406468D01*
X134459229Y-99505993D01*
X134346946Y-99674037D01*
X134204037Y-99816946D01*
X134035993Y-99929229D01*
X134035992Y-99929230D01*
X134035991Y-99929230D01*
X133849272Y-100006572D01*
X133651053Y-100046000D01*
X133448947Y-100046000D01*
X133250728Y-100006572D01*
X133064009Y-99929230D01*
X133064008Y-99929230D01*
X133064007Y-99929229D01*
X132895963Y-99816946D01*
X132753054Y-99674037D01*
X132640771Y-99505993D01*
X132599546Y-99406468D01*
X132563428Y-99319272D01*
X132524000Y-99121053D01*
X132524000Y-98918947D01*
X132563428Y-98720728D01*
X132640770Y-98534009D01*
X132640771Y-98534007D01*
X132753054Y-98365963D01*
X132895963Y-98223054D01*
X133064007Y-98110771D01*
X133064009Y-98110770D01*
X133250728Y-98033428D01*
X133448947Y-97994000D01*
X133651053Y-97994000D01*
X133849272Y-98033428D01*
X133849272Y-98033428D01*
G37*
G36*
X127110443Y-98165519D02*
G01*
X127176627Y-98172037D01*
X127346466Y-98223557D01*
X127502991Y-98307222D01*
X127538729Y-98336552D01*
X127640186Y-98419814D01*
X127723448Y-98521271D01*
X127752778Y-98557009D01*
X127836443Y-98713534D01*
X127887963Y-98883373D01*
X127905359Y-99060000D01*
X127887963Y-99236627D01*
X127836443Y-99406466D01*
X127752778Y-99562991D01*
X127723448Y-99598729D01*
X127640186Y-99700186D01*
X127538729Y-99783448D01*
X127502991Y-99812778D01*
X127346466Y-99896443D01*
X127176627Y-99947963D01*
X127110443Y-99954481D01*
X127044260Y-99961000D01*
X126955740Y-99961000D01*
X126889557Y-99954481D01*
X126823373Y-99947963D01*
X126653534Y-99896443D01*
X126497009Y-99812778D01*
X126461271Y-99783448D01*
X126359814Y-99700186D01*
X126276552Y-99598729D01*
X126247222Y-99562991D01*
X126163557Y-99406466D01*
X126112037Y-99236627D01*
X126094641Y-99060000D01*
X126112037Y-98883373D01*
X126163557Y-98713534D01*
X126247222Y-98557009D01*
X126276552Y-98521271D01*
X126359814Y-98419814D01*
X126461271Y-98336552D01*
X126497009Y-98307222D01*
X126653534Y-98223557D01*
X126823373Y-98172037D01*
X126889557Y-98165519D01*
X126955740Y-98159000D01*
X127044260Y-98159000D01*
X127110443Y-98165519D01*
X127110443Y-98165519D01*
G37*
G36*
X170290443Y-98165519D02*
G01*
X170356627Y-98172037D01*
X170526466Y-98223557D01*
X170682991Y-98307222D01*
X170718729Y-98336552D01*
X170820186Y-98419814D01*
X170903448Y-98521271D01*
X170932778Y-98557009D01*
X171016443Y-98713534D01*
X171067963Y-98883373D01*
X171085359Y-99060000D01*
X171067963Y-99236627D01*
X171016443Y-99406466D01*
X170932778Y-99562991D01*
X170903448Y-99598729D01*
X170820186Y-99700186D01*
X170718729Y-99783448D01*
X170682991Y-99812778D01*
X170526466Y-99896443D01*
X170356627Y-99947963D01*
X170290443Y-99954481D01*
X170224260Y-99961000D01*
X170135740Y-99961000D01*
X170069557Y-99954481D01*
X170003373Y-99947963D01*
X169833534Y-99896443D01*
X169677009Y-99812778D01*
X169641271Y-99783448D01*
X169539814Y-99700186D01*
X169456552Y-99598729D01*
X169427222Y-99562991D01*
X169343557Y-99406466D01*
X169292037Y-99236627D01*
X169274641Y-99060000D01*
X169292037Y-98883373D01*
X169343557Y-98713534D01*
X169427222Y-98557009D01*
X169456552Y-98521271D01*
X169539814Y-98419814D01*
X169641271Y-98336552D01*
X169677009Y-98307222D01*
X169833534Y-98223557D01*
X170003373Y-98172037D01*
X170069557Y-98165519D01*
X170135740Y-98159000D01*
X170224260Y-98159000D01*
X170290443Y-98165519D01*
X170290443Y-98165519D01*
G37*
G36*
X138849272Y-95533428D02*
G01*
X139035991Y-95610770D01*
X139035993Y-95610771D01*
X139204037Y-95723054D01*
X139346946Y-95865963D01*
X139459229Y-96034007D01*
X139459230Y-96034009D01*
X139536572Y-96220728D01*
X139576000Y-96418947D01*
X139576000Y-96621053D01*
X139536572Y-96819272D01*
X139459230Y-97005991D01*
X139459229Y-97005993D01*
X139346946Y-97174037D01*
X139204037Y-97316946D01*
X139035993Y-97429229D01*
X139035992Y-97429230D01*
X139035991Y-97429230D01*
X138849272Y-97506572D01*
X138651053Y-97546000D01*
X138448947Y-97546000D01*
X138250728Y-97506572D01*
X138064009Y-97429230D01*
X138064008Y-97429230D01*
X138064007Y-97429229D01*
X137895963Y-97316946D01*
X137753054Y-97174037D01*
X137640771Y-97005993D01*
X137640770Y-97005991D01*
X137563428Y-96819272D01*
X137524000Y-96621053D01*
X137524000Y-96418947D01*
X137563428Y-96220728D01*
X137640770Y-96034009D01*
X137640771Y-96034007D01*
X137753054Y-95865963D01*
X137895963Y-95723054D01*
X138064007Y-95610771D01*
X138064009Y-95610770D01*
X138250728Y-95533428D01*
X138448947Y-95494000D01*
X138651053Y-95494000D01*
X138849272Y-95533428D01*
X138849272Y-95533428D01*
G37*
G36*
X151429272Y-95533428D02*
G01*
X151615991Y-95610770D01*
X151615993Y-95610771D01*
X151784037Y-95723054D01*
X151926946Y-95865963D01*
X152039229Y-96034007D01*
X152039230Y-96034009D01*
X152116572Y-96220728D01*
X152156000Y-96418947D01*
X152156000Y-96621053D01*
X152116572Y-96819272D01*
X152039230Y-97005991D01*
X152039229Y-97005993D01*
X151926946Y-97174037D01*
X151784037Y-97316946D01*
X151615993Y-97429229D01*
X151615992Y-97429230D01*
X151615991Y-97429230D01*
X151429272Y-97506572D01*
X151231053Y-97546000D01*
X151028947Y-97546000D01*
X150830728Y-97506572D01*
X150644009Y-97429230D01*
X150644008Y-97429230D01*
X150644007Y-97429229D01*
X150475963Y-97316946D01*
X150333054Y-97174037D01*
X150220771Y-97005993D01*
X150220770Y-97005991D01*
X150143428Y-96819272D01*
X150104000Y-96621053D01*
X150104000Y-96418947D01*
X150143428Y-96220728D01*
X150220770Y-96034009D01*
X150220771Y-96034007D01*
X150333054Y-95865963D01*
X150475963Y-95723054D01*
X150644007Y-95610771D01*
X150644009Y-95610770D01*
X150830728Y-95533428D01*
X151028947Y-95494000D01*
X151231053Y-95494000D01*
X151429272Y-95533428D01*
X151429272Y-95533428D01*
G37*
G36*
X158929272Y-95533428D02*
G01*
X159115991Y-95610770D01*
X159115993Y-95610771D01*
X159284037Y-95723054D01*
X159426946Y-95865963D01*
X159539229Y-96034007D01*
X159539230Y-96034009D01*
X159616572Y-96220728D01*
X159656000Y-96418947D01*
X159656000Y-96621053D01*
X159616572Y-96819272D01*
X159539230Y-97005991D01*
X159539229Y-97005993D01*
X159426946Y-97174037D01*
X159284037Y-97316946D01*
X159115993Y-97429229D01*
X159115992Y-97429230D01*
X159115991Y-97429230D01*
X158929272Y-97506572D01*
X158731053Y-97546000D01*
X158528947Y-97546000D01*
X158330728Y-97506572D01*
X158144009Y-97429230D01*
X158144008Y-97429230D01*
X158144007Y-97429229D01*
X157975963Y-97316946D01*
X157833054Y-97174037D01*
X157720771Y-97005993D01*
X157720770Y-97005991D01*
X157643428Y-96819272D01*
X157604000Y-96621053D01*
X157604000Y-96418947D01*
X157643428Y-96220728D01*
X157720770Y-96034009D01*
X157720771Y-96034007D01*
X157833054Y-95865963D01*
X157975963Y-95723054D01*
X158144007Y-95610771D01*
X158144009Y-95610770D01*
X158330728Y-95533428D01*
X158528947Y-95494000D01*
X158731053Y-95494000D01*
X158929272Y-95533428D01*
X158929272Y-95533428D01*
G37*
G36*
X131349272Y-95533428D02*
G01*
X131535991Y-95610770D01*
X131535993Y-95610771D01*
X131704037Y-95723054D01*
X131846946Y-95865963D01*
X131959229Y-96034007D01*
X131959230Y-96034009D01*
X132036572Y-96220728D01*
X132076000Y-96418947D01*
X132076000Y-96621053D01*
X132036572Y-96819272D01*
X131959230Y-97005991D01*
X131959229Y-97005993D01*
X131846946Y-97174037D01*
X131704037Y-97316946D01*
X131535993Y-97429229D01*
X131535992Y-97429230D01*
X131535991Y-97429230D01*
X131349272Y-97506572D01*
X131151053Y-97546000D01*
X130948947Y-97546000D01*
X130750728Y-97506572D01*
X130564009Y-97429230D01*
X130564008Y-97429230D01*
X130564007Y-97429229D01*
X130395963Y-97316946D01*
X130253054Y-97174037D01*
X130140771Y-97005993D01*
X130140770Y-97005991D01*
X130063428Y-96819272D01*
X130024000Y-96621053D01*
X130024000Y-96418947D01*
X130063428Y-96220728D01*
X130140770Y-96034009D01*
X130140771Y-96034007D01*
X130253054Y-95865963D01*
X130395963Y-95723054D01*
X130564007Y-95610771D01*
X130564009Y-95610770D01*
X130750728Y-95533428D01*
X130948947Y-95494000D01*
X131151053Y-95494000D01*
X131349272Y-95533428D01*
X131349272Y-95533428D01*
G37*
G36*
X146349272Y-95533428D02*
G01*
X146535991Y-95610770D01*
X146535993Y-95610771D01*
X146704037Y-95723054D01*
X146846946Y-95865963D01*
X146959229Y-96034007D01*
X146959230Y-96034009D01*
X147036572Y-96220728D01*
X147076000Y-96418947D01*
X147076000Y-96621053D01*
X147036572Y-96819272D01*
X146959230Y-97005991D01*
X146959229Y-97005993D01*
X146846946Y-97174037D01*
X146704037Y-97316946D01*
X146535993Y-97429229D01*
X146535992Y-97429230D01*
X146535991Y-97429230D01*
X146349272Y-97506572D01*
X146151053Y-97546000D01*
X145948947Y-97546000D01*
X145750728Y-97506572D01*
X145564009Y-97429230D01*
X145564008Y-97429230D01*
X145564007Y-97429229D01*
X145395963Y-97316946D01*
X145253054Y-97174037D01*
X145140771Y-97005993D01*
X145140770Y-97005991D01*
X145063428Y-96819272D01*
X145024000Y-96621053D01*
X145024000Y-96418947D01*
X145063428Y-96220728D01*
X145140770Y-96034009D01*
X145140771Y-96034007D01*
X145253054Y-95865963D01*
X145395963Y-95723054D01*
X145564007Y-95610771D01*
X145564009Y-95610770D01*
X145750728Y-95533428D01*
X145948947Y-95494000D01*
X146151053Y-95494000D01*
X146349272Y-95533428D01*
X146349272Y-95533428D01*
G37*
G36*
X166429272Y-95533428D02*
G01*
X166615991Y-95610770D01*
X166615993Y-95610771D01*
X166784037Y-95723054D01*
X166926946Y-95865963D01*
X167039229Y-96034007D01*
X167039230Y-96034009D01*
X167116572Y-96220728D01*
X167156000Y-96418947D01*
X167156000Y-96621053D01*
X167116572Y-96819272D01*
X167039230Y-97005991D01*
X167039229Y-97005993D01*
X166926946Y-97174037D01*
X166784037Y-97316946D01*
X166615993Y-97429229D01*
X166615992Y-97429230D01*
X166615991Y-97429230D01*
X166429272Y-97506572D01*
X166231053Y-97546000D01*
X166028947Y-97546000D01*
X165830728Y-97506572D01*
X165644009Y-97429230D01*
X165644008Y-97429230D01*
X165644007Y-97429229D01*
X165475963Y-97316946D01*
X165333054Y-97174037D01*
X165220771Y-97005993D01*
X165220770Y-97005991D01*
X165143428Y-96819272D01*
X165104000Y-96621053D01*
X165104000Y-96418947D01*
X165143428Y-96220728D01*
X165220770Y-96034009D01*
X165220771Y-96034007D01*
X165333054Y-95865963D01*
X165475963Y-95723054D01*
X165644007Y-95610771D01*
X165644009Y-95610770D01*
X165830728Y-95533428D01*
X166028947Y-95494000D01*
X166231053Y-95494000D01*
X166429272Y-95533428D01*
X166429272Y-95533428D01*
G37*
G36*
X171081000Y-97421000D02*
G01*
X169279000Y-97421000D01*
X169279000Y-95619000D01*
X171081000Y-95619000D01*
X171081000Y-97421000D01*
X171081000Y-97421000D01*
G37*
G36*
X127901000Y-97421000D02*
G01*
X126099000Y-97421000D01*
X126099000Y-95619000D01*
X127901000Y-95619000D01*
X127901000Y-97421000D01*
X127901000Y-97421000D01*
G37*
G36*
X151494903Y-90317075D02*
G01*
X151722571Y-90411378D01*
X151927466Y-90548285D01*
X152101715Y-90722534D01*
X152238622Y-90927429D01*
X152332925Y-91155097D01*
X152381000Y-91396787D01*
X152381000Y-91643213D01*
X152332925Y-91884903D01*
X152238622Y-92112571D01*
X152101715Y-92317466D01*
X151927466Y-92491715D01*
X151722571Y-92628622D01*
X151722570Y-92628623D01*
X151722569Y-92628623D01*
X151494903Y-92722925D01*
X151253214Y-92771000D01*
X151006786Y-92771000D01*
X150765097Y-92722925D01*
X150537431Y-92628623D01*
X150537430Y-92628623D01*
X150537429Y-92628622D01*
X150332534Y-92491715D01*
X150158285Y-92317466D01*
X150021378Y-92112571D01*
X149927075Y-91884903D01*
X149879000Y-91643213D01*
X149879000Y-91396787D01*
X149927075Y-91155097D01*
X150021378Y-90927429D01*
X150158285Y-90722534D01*
X150332534Y-90548285D01*
X150537429Y-90411378D01*
X150765097Y-90317075D01*
X151006786Y-90269000D01*
X151253214Y-90269000D01*
X151494903Y-90317075D01*
X151494903Y-90317075D01*
G37*
G36*
X166494903Y-90317075D02*
G01*
X166722571Y-90411378D01*
X166927466Y-90548285D01*
X167101715Y-90722534D01*
X167238622Y-90927429D01*
X167332925Y-91155097D01*
X167381000Y-91396787D01*
X167381000Y-91643213D01*
X167332925Y-91884903D01*
X167238622Y-92112571D01*
X167101715Y-92317466D01*
X166927466Y-92491715D01*
X166722571Y-92628622D01*
X166722570Y-92628623D01*
X166722569Y-92628623D01*
X166494903Y-92722925D01*
X166253214Y-92771000D01*
X166006786Y-92771000D01*
X165765097Y-92722925D01*
X165537431Y-92628623D01*
X165537430Y-92628623D01*
X165537429Y-92628622D01*
X165332534Y-92491715D01*
X165158285Y-92317466D01*
X165021378Y-92112571D01*
X164927075Y-91884903D01*
X164879000Y-91643213D01*
X164879000Y-91396787D01*
X164927075Y-91155097D01*
X165021378Y-90927429D01*
X165158285Y-90722534D01*
X165332534Y-90548285D01*
X165537429Y-90411378D01*
X165765097Y-90317075D01*
X166006786Y-90269000D01*
X166253214Y-90269000D01*
X166494903Y-90317075D01*
X166494903Y-90317075D01*
G37*
G36*
X146414903Y-90317075D02*
G01*
X146642571Y-90411378D01*
X146847466Y-90548285D01*
X147021715Y-90722534D01*
X147158622Y-90927429D01*
X147252925Y-91155097D01*
X147301000Y-91396787D01*
X147301000Y-91643213D01*
X147252925Y-91884903D01*
X147158622Y-92112571D01*
X147021715Y-92317466D01*
X146847466Y-92491715D01*
X146642571Y-92628622D01*
X146642570Y-92628623D01*
X146642569Y-92628623D01*
X146414903Y-92722925D01*
X146173214Y-92771000D01*
X145926786Y-92771000D01*
X145685097Y-92722925D01*
X145457431Y-92628623D01*
X145457430Y-92628623D01*
X145457429Y-92628622D01*
X145252534Y-92491715D01*
X145078285Y-92317466D01*
X144941378Y-92112571D01*
X144847075Y-91884903D01*
X144799000Y-91643213D01*
X144799000Y-91396787D01*
X144847075Y-91155097D01*
X144941378Y-90927429D01*
X145078285Y-90722534D01*
X145252534Y-90548285D01*
X145457429Y-90411378D01*
X145685097Y-90317075D01*
X145926786Y-90269000D01*
X146173214Y-90269000D01*
X146414903Y-90317075D01*
X146414903Y-90317075D01*
G37*
G36*
X131414903Y-90317075D02*
G01*
X131642571Y-90411378D01*
X131847466Y-90548285D01*
X132021715Y-90722534D01*
X132158622Y-90927429D01*
X132252925Y-91155097D01*
X132301000Y-91396787D01*
X132301000Y-91643213D01*
X132252925Y-91884903D01*
X132158622Y-92112571D01*
X132021715Y-92317466D01*
X131847466Y-92491715D01*
X131642571Y-92628622D01*
X131642570Y-92628623D01*
X131642569Y-92628623D01*
X131414903Y-92722925D01*
X131173214Y-92771000D01*
X130926786Y-92771000D01*
X130685097Y-92722925D01*
X130457431Y-92628623D01*
X130457430Y-92628623D01*
X130457429Y-92628622D01*
X130252534Y-92491715D01*
X130078285Y-92317466D01*
X129941378Y-92112571D01*
X129847075Y-91884903D01*
X129799000Y-91643213D01*
X129799000Y-91396787D01*
X129847075Y-91155097D01*
X129941378Y-90927429D01*
X130078285Y-90722534D01*
X130252534Y-90548285D01*
X130457429Y-90411378D01*
X130685097Y-90317075D01*
X130926786Y-90269000D01*
X131173214Y-90269000D01*
X131414903Y-90317075D01*
X131414903Y-90317075D01*
G37*
G36*
X141349272Y-85533428D02*
G01*
X141535991Y-85610770D01*
X141535993Y-85610771D01*
X141704037Y-85723054D01*
X141846946Y-85865963D01*
X141959229Y-86034007D01*
X141959230Y-86034009D01*
X142036572Y-86220728D01*
X142076000Y-86418947D01*
X142076000Y-86621053D01*
X142036572Y-86819272D01*
X141959230Y-87005991D01*
X141959229Y-87005993D01*
X141846946Y-87174037D01*
X141704037Y-87316946D01*
X141535993Y-87429229D01*
X141535992Y-87429230D01*
X141535991Y-87429230D01*
X141349272Y-87506572D01*
X141151053Y-87546000D01*
X140948947Y-87546000D01*
X140750728Y-87506572D01*
X140564009Y-87429230D01*
X140564008Y-87429230D01*
X140564007Y-87429229D01*
X140395963Y-87316946D01*
X140253054Y-87174037D01*
X140140771Y-87005993D01*
X140140770Y-87005991D01*
X140063428Y-86819272D01*
X140024000Y-86621053D01*
X140024000Y-86418947D01*
X140063428Y-86220728D01*
X140140770Y-86034009D01*
X140140771Y-86034007D01*
X140253054Y-85865963D01*
X140395963Y-85723054D01*
X140564007Y-85610771D01*
X140564009Y-85610770D01*
X140750728Y-85533428D01*
X140948947Y-85494000D01*
X141151053Y-85494000D01*
X141349272Y-85533428D01*
X141349272Y-85533428D01*
G37*
G36*
X156429272Y-85533428D02*
G01*
X156615991Y-85610770D01*
X156615993Y-85610771D01*
X156784037Y-85723054D01*
X156926946Y-85865963D01*
X157039229Y-86034007D01*
X157039230Y-86034009D01*
X157116572Y-86220728D01*
X157156000Y-86418947D01*
X157156000Y-86621053D01*
X157116572Y-86819272D01*
X157039230Y-87005991D01*
X157039229Y-87005993D01*
X156926946Y-87174037D01*
X156784037Y-87316946D01*
X156615993Y-87429229D01*
X156615992Y-87429230D01*
X156615991Y-87429230D01*
X156429272Y-87506572D01*
X156231053Y-87546000D01*
X156028947Y-87546000D01*
X155830728Y-87506572D01*
X155644009Y-87429230D01*
X155644008Y-87429230D01*
X155644007Y-87429229D01*
X155475963Y-87316946D01*
X155333054Y-87174037D01*
X155220771Y-87005993D01*
X155220770Y-87005991D01*
X155143428Y-86819272D01*
X155104000Y-86621053D01*
X155104000Y-86418947D01*
X155143428Y-86220728D01*
X155220770Y-86034009D01*
X155220771Y-86034007D01*
X155333054Y-85865963D01*
X155475963Y-85723054D01*
X155644007Y-85610771D01*
X155644009Y-85610770D01*
X155830728Y-85533428D01*
X156028947Y-85494000D01*
X156231053Y-85494000D01*
X156429272Y-85533428D01*
X156429272Y-85533428D01*
G37*
G36*
X161429272Y-85533428D02*
G01*
X161615991Y-85610770D01*
X161615993Y-85610771D01*
X161784037Y-85723054D01*
X161926946Y-85865963D01*
X162039229Y-86034007D01*
X162039230Y-86034009D01*
X162116572Y-86220728D01*
X162156000Y-86418947D01*
X162156000Y-86621053D01*
X162116572Y-86819272D01*
X162039230Y-87005991D01*
X162039229Y-87005993D01*
X161926946Y-87174037D01*
X161784037Y-87316946D01*
X161615993Y-87429229D01*
X161615992Y-87429230D01*
X161615991Y-87429230D01*
X161429272Y-87506572D01*
X161231053Y-87546000D01*
X161028947Y-87546000D01*
X160830728Y-87506572D01*
X160644009Y-87429230D01*
X160644008Y-87429230D01*
X160644007Y-87429229D01*
X160475963Y-87316946D01*
X160333054Y-87174037D01*
X160220771Y-87005993D01*
X160220770Y-87005991D01*
X160143428Y-86819272D01*
X160104000Y-86621053D01*
X160104000Y-86418947D01*
X160143428Y-86220728D01*
X160220770Y-86034009D01*
X160220771Y-86034007D01*
X160333054Y-85865963D01*
X160475963Y-85723054D01*
X160644007Y-85610771D01*
X160644009Y-85610770D01*
X160830728Y-85533428D01*
X161028947Y-85494000D01*
X161231053Y-85494000D01*
X161429272Y-85533428D01*
X161429272Y-85533428D01*
G37*
G36*
X136349272Y-85533428D02*
G01*
X136535991Y-85610770D01*
X136535993Y-85610771D01*
X136704037Y-85723054D01*
X136846946Y-85865963D01*
X136959229Y-86034007D01*
X136959230Y-86034009D01*
X137036572Y-86220728D01*
X137076000Y-86418947D01*
X137076000Y-86621053D01*
X137036572Y-86819272D01*
X136959230Y-87005991D01*
X136959229Y-87005993D01*
X136846946Y-87174037D01*
X136704037Y-87316946D01*
X136535993Y-87429229D01*
X136535992Y-87429230D01*
X136535991Y-87429230D01*
X136349272Y-87506572D01*
X136151053Y-87546000D01*
X135948947Y-87546000D01*
X135750728Y-87506572D01*
X135564009Y-87429230D01*
X135564008Y-87429230D01*
X135564007Y-87429229D01*
X135395963Y-87316946D01*
X135253054Y-87174037D01*
X135140771Y-87005993D01*
X135140770Y-87005991D01*
X135063428Y-86819272D01*
X135024000Y-86621053D01*
X135024000Y-86418947D01*
X135063428Y-86220728D01*
X135140770Y-86034009D01*
X135140771Y-86034007D01*
X135253054Y-85865963D01*
X135395963Y-85723054D01*
X135564007Y-85610771D01*
X135564009Y-85610770D01*
X135750728Y-85533428D01*
X135948947Y-85494000D01*
X136151053Y-85494000D01*
X136349272Y-85533428D01*
X136349272Y-85533428D01*
G37*
M02*
